<svg width="1937" height="1425" viewBox="0 0 1937 1425" fill="none" xmlns="http://www.w3.org/2000/svg">
<mask id="mask0_94_2347" style="mask-type:alpha" maskUnits="userSpaceOnUse" x="0" y="0" width="1937" height="385">
<rect width="1936.28" height="384.774" fill="url(#paint0_linear_94_2347)"/>
</mask>
<g mask="url(#mask0_94_2347)">
<path d="M29.8 -6.68481L49.697 13.2121L29.8 33.109" stroke="#F26A25" stroke-width="8"/>
<path d="M69.5948 -6.68481L49.6979 13.2121L69.5948 33.109" stroke="#F26A25" stroke-width="8"/>
<path d="M29.7996 125.621L49.6965 145.518L29.7996 165.415" stroke="#F26A25" stroke-width="8"/>
<path d="M69.5956 125.621L49.6987 145.518L69.5956 165.415" stroke="#F26A25" stroke-width="8"/>
<path d="M29.8 257.925L49.697 277.822L29.8 297.719" stroke="#F26A25" stroke-width="8"/>
<path d="M69.5948 257.925L49.6979 277.822L69.5948 297.719" stroke="#F26A25" stroke-width="8"/>
<path d="M82.4703 58.7921L102.367 78.689L82.4703 98.5859" stroke="#F26A25" stroke-width="8"/>
<path d="M122.265 58.7921L102.368 78.689L122.265 98.5859" stroke="#F26A25" stroke-width="8"/>
<path d="M82.4703 191.098L102.367 210.995L82.4703 230.892" stroke="#F26A25" stroke-width="8"/>
<path d="M122.265 191.098L102.368 210.995L122.265 230.892" stroke="#F26A25" stroke-width="8"/>
<path d="M82.4703 323.402L102.367 343.299L82.4703 363.196" stroke="#F26A25" stroke-width="8"/>
<path d="M122.265 323.402L102.368 343.299L122.265 363.196" stroke="#F26A25" stroke-width="8"/>
<path d="M134.713 -6.68481L154.61 13.2121L134.713 33.109" stroke="#F26A25" stroke-width="8"/>
<path d="M174.508 -6.68481L154.611 13.2121L174.508 33.109" stroke="#F26A25" stroke-width="8"/>
<path d="M134.713 125.621L154.61 145.518L134.713 165.415" stroke="#F26A25" stroke-width="8"/>
<path d="M174.509 125.621L154.612 145.518L174.509 165.415" stroke="#F26A25" stroke-width="8"/>
<path d="M134.713 257.925L154.61 277.822L134.713 297.719" stroke="#F26A25" stroke-width="8"/>
<path d="M174.508 257.925L154.611 277.822L174.508 297.719" stroke="#F26A25" stroke-width="8"/>
<path d="M187.385 58.7921L207.282 78.689L187.385 98.5859" stroke="#F26A25" stroke-width="8"/>
<path d="M227.18 58.7921L207.283 78.689L227.18 98.5859" stroke="#F26A25" stroke-width="8"/>
<path d="M187.385 191.097L207.282 210.994L187.385 230.891" stroke="#F26A25" stroke-width="8"/>
<path d="M227.18 191.097L207.283 210.994L227.18 230.891" stroke="#F26A25" stroke-width="8"/>
<path d="M187.385 323.402L207.282 343.299L187.385 363.196" stroke="#F26A25" stroke-width="8"/>
<path d="M227.18 323.402L207.283 343.299L227.18 363.196" stroke="#F26A25" stroke-width="8"/>
<path d="M239.626 -6.62781L259.523 13.2691L239.626 33.166" stroke="#F26A25" stroke-width="8"/>
<path d="M279.421 -6.62781L259.524 13.2691L279.421 33.166" stroke="#F26A25" stroke-width="8"/>
<path d="M239.626 125.675L259.523 145.572L239.626 165.469" stroke="#F26A25" stroke-width="8"/>
<path d="M279.421 125.675L259.524 145.572L279.421 165.469" stroke="#F26A25" stroke-width="8"/>
<path d="M239.626 257.979L259.523 277.876L239.626 297.773" stroke="#F26A25" stroke-width="8"/>
<path d="M279.421 257.979L259.524 277.876L279.421 297.773" stroke="#F26A25" stroke-width="8"/>
<path d="M292.297 58.8447L312.194 78.7416L292.297 98.6385" stroke="#F26A25" stroke-width="8"/>
<path d="M332.092 58.8447L312.195 78.7416L332.092 98.6385" stroke="#F26A25" stroke-width="8"/>
<path d="M292.297 191.15L312.194 211.047L292.297 230.944" stroke="#F26A25" stroke-width="8"/>
<path d="M332.092 191.15L312.195 211.047L332.092 230.944" stroke="#F26A25" stroke-width="8"/>
<path d="M292.297 323.456L312.194 343.353L292.297 363.25" stroke="#F26A25" stroke-width="8"/>
<path d="M332.092 323.456L312.195 343.353L332.092 363.25" stroke="#F26A25" stroke-width="8"/>
<path d="M344.539 -6.57559L364.436 13.3213L344.539 33.2182" stroke="#F26A25" stroke-width="8"/>
<path d="M384.335 -6.57559L364.438 13.3213L384.335 33.2182" stroke="#F26A25" stroke-width="8"/>
<path d="M344.539 125.73L364.436 145.627L344.539 165.524" stroke="#F26A25" stroke-width="8"/>
<path d="M384.333 125.73L364.437 145.627L384.333 165.524" stroke="#F26A25" stroke-width="8"/>
<path d="M344.539 258.036L364.436 277.933L344.539 297.83" stroke="#F26A25" stroke-width="8"/>
<path d="M384.333 258.036L364.437 277.933L384.333 297.83" stroke="#F26A25" stroke-width="8"/>
<path d="M397.211 58.9013L417.108 78.7982L397.211 98.6951" stroke="#F26A25" stroke-width="8"/>
<path d="M437.006 58.9013L417.109 78.7982L437.006 98.6951" stroke="#F26A25" stroke-width="8"/>
<path d="M397.211 191.206L417.108 211.103L397.211 231" stroke="#F26A25" stroke-width="8"/>
<path d="M437.006 191.206L417.109 211.103L437.006 231" stroke="#F26A25" stroke-width="8"/>
<path d="M397.211 323.512L417.108 343.409L397.211 363.306" stroke="#F26A25" stroke-width="8"/>
<path d="M437.006 323.512L417.109 343.409L437.006 363.306" stroke="#F26A25" stroke-width="8"/>
<path d="M449.453 -6.52145L469.35 13.3755L449.453 33.2724" stroke="#F26A25" stroke-width="8"/>
<path d="M489.248 -6.52145L469.351 13.3755L489.248 33.2724" stroke="#F26A25" stroke-width="8"/>
<path d="M449.452 125.784L469.349 145.681L449.452 165.578" stroke="#F26A25" stroke-width="8"/>
<path d="M489.248 125.784L469.351 145.681L489.248 165.578" stroke="#F26A25" stroke-width="8"/>
<path d="M449.453 258.09L469.35 277.987L449.453 297.884" stroke="#F26A25" stroke-width="8"/>
<path d="M489.248 258.09L469.351 277.987L489.248 297.884" stroke="#F26A25" stroke-width="8"/>
<path d="M502.124 58.9554L522.021 78.8524L502.124 98.7493" stroke="#F26A25" stroke-width="8"/>
<path d="M541.918 58.9554L522.022 78.8524L541.918 98.7493" stroke="#F26A25" stroke-width="8"/>
<path d="M502.124 191.26L522.021 211.157L502.124 231.054" stroke="#F26A25" stroke-width="8"/>
<path d="M541.919 191.26L522.022 211.157L541.919 231.054" stroke="#F26A25" stroke-width="8"/>
<path d="M502.124 323.566L522.021 343.462L502.124 363.359" stroke="#F26A25" stroke-width="8"/>
<path d="M541.918 323.566L522.022 343.462L541.918 363.359" stroke="#F26A25" stroke-width="8"/>
<path d="M554.367 -6.46591L574.264 13.431L554.367 33.3279" stroke="#F26A25" stroke-width="8"/>
<path d="M594.162 -6.46591L574.265 13.431L594.162 33.3279" stroke="#F26A25" stroke-width="8"/>
<path d="M554.368 125.84L574.265 145.737L554.368 165.634" stroke="#F26A25" stroke-width="8"/>
<path d="M594.162 125.84L574.265 145.737L594.162 165.634" stroke="#F26A25" stroke-width="8"/>
<path d="M554.366 258.143L574.263 278.04L554.366 297.937" stroke="#F26A25" stroke-width="8"/>
<path d="M594.162 258.143L574.265 278.04L594.162 297.937" stroke="#F26A25" stroke-width="8"/>
<path d="M607.037 59.011L626.934 78.9079L607.037 98.8048" stroke="#F26A25" stroke-width="8"/>
<path d="M646.832 59.011L626.935 78.9079L646.832 98.8048" stroke="#F26A25" stroke-width="8"/>
<path d="M607.037 191.314L626.934 211.211L607.037 231.107" stroke="#F26A25" stroke-width="8"/>
<path d="M646.832 191.314L626.935 211.211L646.832 231.107" stroke="#F26A25" stroke-width="8"/>
<path d="M607.037 323.62L626.934 343.517L607.037 363.414" stroke="#F26A25" stroke-width="8"/>
<path d="M646.832 323.62L626.935 343.517L646.832 363.414" stroke="#F26A25" stroke-width="8"/>
<path d="M659.279 -6.41223L679.176 13.4847L659.279 33.3816" stroke="#F26A25" stroke-width="8"/>
<path d="M699.074 -6.41223L679.177 13.4847L699.074 33.3816" stroke="#F26A25" stroke-width="8"/>
<path d="M659.279 125.894L679.176 145.791L659.279 165.688" stroke="#F26A25" stroke-width="8"/>
<path d="M699.074 125.894L679.177 145.791L699.074 165.688" stroke="#F26A25" stroke-width="8"/>
<path d="M659.279 258.196L679.176 278.093L659.279 297.99" stroke="#F26A25" stroke-width="8"/>
<path d="M699.074 258.196L679.177 278.093L699.074 297.99" stroke="#F26A25" stroke-width="8"/>
<path d="M711.952 59.0637L731.849 78.9606L711.952 98.8575" stroke="#F26A25" stroke-width="8"/>
<path d="M751.746 59.0637L731.849 78.9606L751.746 98.8575" stroke="#F26A25" stroke-width="8"/>
<path d="M711.952 191.366L731.849 211.263L711.952 231.16" stroke="#F26A25" stroke-width="8"/>
<path d="M751.746 191.366L731.849 211.263L751.746 231.16" stroke="#F26A25" stroke-width="8"/>
<path d="M711.952 323.673L731.849 343.57L711.952 363.467" stroke="#F26A25" stroke-width="8"/>
<path d="M751.746 323.673L731.849 343.57L751.746 363.467" stroke="#F26A25" stroke-width="8"/>
<path d="M764.194 -6.35812L784.091 13.5388L764.194 33.4357" stroke="#F26A25" stroke-width="8"/>
<path d="M803.988 -6.35812L784.091 13.5388L803.988 33.4357" stroke="#F26A25" stroke-width="8"/>
<path d="M764.192 125.946L784.089 145.843L764.192 165.74" stroke="#F26A25" stroke-width="8"/>
<path d="M803.988 125.946L784.091 145.843L803.988 165.74" stroke="#F26A25" stroke-width="8"/>
<path d="M764.194 258.253L784.091 278.15L764.194 298.047" stroke="#F26A25" stroke-width="8"/>
<path d="M803.988 258.253L784.091 278.15L803.988 298.047" stroke="#F26A25" stroke-width="8"/>
<path d="M816.864 59.1173L836.761 79.0142L816.864 98.9111" stroke="#F26A25" stroke-width="8"/>
<path d="M856.659 59.1173L836.762 79.0142L856.659 98.9111" stroke="#F26A25" stroke-width="8"/>
<path d="M816.864 191.423L836.761 211.32L816.864 231.217" stroke="#F26A25" stroke-width="8"/>
<path d="M856.659 191.423L836.762 211.32L856.659 231.217" stroke="#F26A25" stroke-width="8"/>
<path d="M816.864 323.729L836.761 343.626L816.864 363.523" stroke="#F26A25" stroke-width="8"/>
<path d="M856.659 323.729L836.762 343.626L856.659 363.523" stroke="#F26A25" stroke-width="8"/>
<path d="M869.105 -6.30542L889.002 13.5915L869.105 33.4884" stroke="#F26A25" stroke-width="8"/>
<path d="M908.901 -6.30542L889.004 13.5915L908.901 33.4884" stroke="#F26A25" stroke-width="8"/>
<path d="M869.105 126.002L889.002 145.899L869.105 165.796" stroke="#F26A25" stroke-width="8"/>
<path d="M908.9 126.002L889.003 145.899L908.9 165.796" stroke="#F26A25" stroke-width="8"/>
<path d="M869.105 258.306L889.002 278.203L869.105 298.1" stroke="#F26A25" stroke-width="8"/>
<path d="M908.9 258.306L889.003 278.203L908.9 298.1" stroke="#F26A25" stroke-width="8"/>
<path d="M921.778 59.1729L941.674 79.0698L921.778 98.9667" stroke="#F26A25" stroke-width="8"/>
<path d="M961.572 59.1729L941.675 79.0698L961.572 98.9667" stroke="#F26A25" stroke-width="8"/>
<path d="M921.778 191.479L941.674 211.376L921.778 231.273" stroke="#F26A25" stroke-width="8"/>
<path d="M961.572 191.479L941.675 211.376L961.572 231.273" stroke="#F26A25" stroke-width="8"/>
<path d="M921.778 323.781L941.674 343.678L921.778 363.575" stroke="#F26A25" stroke-width="8"/>
<path d="M961.572 323.781L941.675 343.678L961.572 363.575" stroke="#F26A25" stroke-width="8"/>
<path d="M974.021 -6.25034L993.918 13.6466L974.021 33.5435" stroke="#F26A25" stroke-width="8"/>
<path d="M1013.82 -6.25034L993.919 13.6466L1013.82 33.5435" stroke="#F26A25" stroke-width="8"/>
<path d="M974.021 126.056L993.918 145.953L974.021 165.85" stroke="#F26A25" stroke-width="8"/>
<path d="M1013.82 126.056L993.919 145.953L1013.82 165.85" stroke="#F26A25" stroke-width="8"/>
<path d="M974.021 258.362L993.918 278.259L974.021 298.156" stroke="#F26A25" stroke-width="8"/>
<path d="M1013.82 258.362L993.919 278.259L1013.82 298.156" stroke="#F26A25" stroke-width="8"/>
<path d="M1026.69 59.227L1046.59 79.1239L1026.69 99.0208" stroke="#F26A25" stroke-width="8"/>
<path d="M1066.49 59.227L1046.59 79.1239L1066.49 99.0208" stroke="#F26A25" stroke-width="8"/>
<path d="M1026.69 191.533L1046.59 211.429L1026.69 231.326" stroke="#F26A25" stroke-width="8"/>
<path d="M1066.49 191.533L1046.59 211.429L1066.49 231.326" stroke="#F26A25" stroke-width="8"/>
<path d="M1026.69 323.837L1046.59 343.734L1026.69 363.63" stroke="#F26A25" stroke-width="8"/>
<path d="M1066.49 323.837L1046.59 343.734L1066.49 363.63" stroke="#F26A25" stroke-width="8"/>
<path d="M1078.93 -6.19476L1098.83 13.7021L1078.93 33.599" stroke="#F26A25" stroke-width="8"/>
<path d="M1118.73 -6.19476L1098.83 13.7021L1118.73 33.599" stroke="#F26A25" stroke-width="8"/>
<path d="M1078.93 126.108L1098.83 146.005L1078.93 165.902" stroke="#F26A25" stroke-width="8"/>
<path d="M1118.73 126.108L1098.83 146.005L1118.73 165.902" stroke="#F26A25" stroke-width="8"/>
<path d="M1078.93 258.414L1098.83 278.311L1078.93 298.208" stroke="#F26A25" stroke-width="8"/>
<path d="M1118.73 258.414L1098.83 278.311L1118.73 298.208" stroke="#F26A25" stroke-width="8"/>
<path d="M1131.6 59.2826L1151.5 79.1795L1131.6 99.0764" stroke="#F26A25" stroke-width="8"/>
<path d="M1171.4 59.2826L1151.5 79.1795L1171.4 99.0764" stroke="#F26A25" stroke-width="8"/>
<path d="M1131.6 191.585L1151.5 211.482L1131.6 231.379" stroke="#F26A25" stroke-width="8"/>
<path d="M1171.4 191.585L1151.5 211.482L1171.4 231.379" stroke="#F26A25" stroke-width="8"/>
<path d="M1131.6 323.892L1151.5 343.789L1131.6 363.686" stroke="#F26A25" stroke-width="8"/>
<path d="M1171.4 323.892L1151.5 343.789L1171.4 363.686" stroke="#F26A25" stroke-width="8"/>
<path d="M1183.85 -6.14066L1203.74 13.7563L1183.85 33.6532" stroke="#F26A25" stroke-width="8"/>
<path d="M1223.64 -6.14066L1203.74 13.7563L1223.64 33.6532" stroke="#F26A25" stroke-width="8"/>
<path d="M1183.85 126.163L1203.74 146.06L1183.85 165.957" stroke="#F26A25" stroke-width="8"/>
<path d="M1223.64 126.163L1203.74 146.06L1223.64 165.957" stroke="#F26A25" stroke-width="8"/>
<path d="M1183.85 258.468L1203.74 278.365L1183.85 298.262" stroke="#F26A25" stroke-width="8"/>
<path d="M1223.64 258.468L1203.74 278.365L1223.64 298.262" stroke="#F26A25" stroke-width="8"/>
<path d="M1236.52 59.3362L1256.42 79.2331L1236.52 99.1301" stroke="#F26A25" stroke-width="8"/>
<path d="M1276.31 59.3362L1256.42 79.2331L1276.31 99.1301" stroke="#F26A25" stroke-width="8"/>
<path d="M1236.52 191.642L1256.42 211.539L1236.52 231.436" stroke="#F26A25" stroke-width="8"/>
<path d="M1276.31 191.642L1256.42 211.539L1276.31 231.436" stroke="#F26A25" stroke-width="8"/>
<path d="M1236.52 323.945L1256.42 343.842L1236.52 363.739" stroke="#F26A25" stroke-width="8"/>
<path d="M1276.31 323.945L1256.42 343.842L1276.31 363.739" stroke="#F26A25" stroke-width="8"/>
<path d="M1288.76 -6.08795L1308.66 13.809L1288.76 33.7059" stroke="#F26A25" stroke-width="8"/>
<path d="M1328.55 -6.08795L1308.66 13.809L1328.55 33.7059" stroke="#F26A25" stroke-width="8"/>
<path d="M1288.76 126.219L1308.66 146.116L1288.76 166.013" stroke="#F26A25" stroke-width="8"/>
<path d="M1328.55 126.219L1308.66 146.116L1328.55 166.013" stroke="#F26A25" stroke-width="8"/>
<path d="M1288.76 258.524L1308.66 278.42L1288.76 298.317" stroke="#F26A25" stroke-width="8"/>
<path d="M1328.55 258.524L1308.66 278.42L1328.55 298.317" stroke="#F26A25" stroke-width="8"/>
<path d="M1341.43 59.3889L1361.33 79.2858L1341.43 99.1827" stroke="#F26A25" stroke-width="8"/>
<path d="M1381.23 59.3889L1361.33 79.2858L1381.23 99.1827" stroke="#F26A25" stroke-width="8"/>
<path d="M1341.43 191.696L1361.33 211.593L1341.43 231.49" stroke="#F26A25" stroke-width="8"/>
<path d="M1381.23 191.696L1361.33 211.593L1381.23 231.49" stroke="#F26A25" stroke-width="8"/>
<path d="M1341.43 323.999L1361.33 343.896L1341.43 363.793" stroke="#F26A25" stroke-width="8"/>
<path d="M1381.23 323.999L1361.33 343.896L1381.23 363.793" stroke="#F26A25" stroke-width="8"/>
<path d="M1393.67 -6.03287L1413.57 13.864L1393.67 33.7609" stroke="#F26A25" stroke-width="8"/>
<path d="M1433.47 -6.03287L1413.57 13.864L1433.47 33.7609" stroke="#F26A25" stroke-width="8"/>
<path d="M1393.67 126.273L1413.57 146.17L1393.67 166.067" stroke="#F26A25" stroke-width="8"/>
<path d="M1433.47 126.273L1413.57 146.17L1433.47 166.067" stroke="#F26A25" stroke-width="8"/>
<path d="M1393.67 258.577L1413.57 278.474L1393.67 298.371" stroke="#F26A25" stroke-width="8"/>
<path d="M1433.47 258.577L1413.57 278.474L1433.47 298.371" stroke="#F26A25" stroke-width="8"/>
<path d="M1446.35 59.444L1466.24 79.3409L1446.35 99.2378" stroke="#F26A25" stroke-width="8"/>
<path d="M1486.14 59.444L1466.24 79.3409L1486.14 99.2378" stroke="#F26A25" stroke-width="8"/>
<path d="M1446.35 191.747L1466.24 211.644L1446.35 231.541" stroke="#F26A25" stroke-width="8"/>
<path d="M1486.14 191.747L1466.24 211.644L1486.14 231.541" stroke="#F26A25" stroke-width="8"/>
<path d="M1446.35 324.054L1466.24 343.951L1446.35 363.848" stroke="#F26A25" stroke-width="8"/>
<path d="M1486.14 324.054L1466.24 343.951L1486.14 363.848" stroke="#F26A25" stroke-width="8"/>
<path d="M1498.59 -5.97586L1518.48 13.921L1498.59 33.818" stroke="#F26A25" stroke-width="8"/>
<path d="M1538.38 -5.97586L1518.49 13.921L1538.38 33.818" stroke="#F26A25" stroke-width="8"/>
<path d="M1498.59 126.327L1518.48 146.224L1498.59 166.121" stroke="#F26A25" stroke-width="8"/>
<path d="M1538.38 126.327L1518.49 146.224L1538.38 166.121" stroke="#F26A25" stroke-width="8"/>
<path d="M1498.59 258.631L1518.48 278.528L1498.59 298.425" stroke="#F26A25" stroke-width="8"/>
<path d="M1538.38 258.631L1518.49 278.528L1538.38 298.425" stroke="#F26A25" stroke-width="8"/>
<path d="M1551.26 59.4967L1571.16 79.3936L1551.26 99.2905" stroke="#F26A25" stroke-width="8"/>
<path d="M1591.05 59.4967L1571.16 79.3936L1591.05 99.2905" stroke="#F26A25" stroke-width="8"/>
<path d="M1551.26 191.802L1571.16 211.699L1551.26 231.596" stroke="#F26A25" stroke-width="8"/>
<path d="M1591.05 191.802L1571.16 211.699L1591.05 231.596" stroke="#F26A25" stroke-width="8"/>
<path d="M1551.26 324.108L1571.16 344.005L1551.26 363.902" stroke="#F26A25" stroke-width="8"/>
<path d="M1591.05 324.108L1571.16 344.005L1591.05 363.902" stroke="#F26A25" stroke-width="8"/>
<path d="M1603.5 -5.92319L1623.4 13.9737L1603.5 33.8706" stroke="#F26A25" stroke-width="8"/>
<path d="M1643.3 -5.92319L1623.4 13.9737L1643.3 33.8706" stroke="#F26A25" stroke-width="8"/>
<path d="M1603.5 126.379L1623.4 146.276L1603.5 166.173" stroke="#F26A25" stroke-width="8"/>
<path d="M1643.3 126.379L1623.4 146.276L1643.3 166.173" stroke="#F26A25" stroke-width="8"/>
<path d="M1603.5 258.686L1623.4 278.582L1603.5 298.479" stroke="#F26A25" stroke-width="8"/>
<path d="M1643.3 258.686L1623.4 278.582L1643.3 298.479" stroke="#F26A25" stroke-width="8"/>
<path d="M1656.17 59.5504L1676.07 79.4473L1656.17 99.3442" stroke="#F26A25" stroke-width="8"/>
<path d="M1695.97 59.5504L1676.07 79.4473L1695.97 99.3442" stroke="#F26A25" stroke-width="8"/>
<path d="M1656.17 191.856L1676.07 211.753L1656.17 231.65" stroke="#F26A25" stroke-width="8"/>
<path d="M1695.97 191.856L1676.07 211.753L1695.97 231.65" stroke="#F26A25" stroke-width="8"/>
<path d="M1656.17 324.164L1676.07 344.061L1656.17 363.958" stroke="#F26A25" stroke-width="8"/>
<path d="M1695.97 324.164L1676.07 344.061L1695.97 363.958" stroke="#F26A25" stroke-width="8"/>
<path d="M1708.41 -5.86951L1728.31 14.0274L1708.41 33.9243" stroke="#F26A25" stroke-width="8"/>
<path d="M1748.21 -5.86951L1728.31 14.0274L1748.21 33.9243" stroke="#F26A25" stroke-width="8"/>
<path d="M1708.41 126.437L1728.31 146.333L1708.41 166.23" stroke="#F26A25" stroke-width="8"/>
<path d="M1748.21 126.437L1728.31 146.333L1748.21 166.23" stroke="#F26A25" stroke-width="8"/>
<path d="M1708.41 258.743L1728.31 278.639L1708.41 298.536" stroke="#F26A25" stroke-width="8"/>
<path d="M1748.21 258.743L1728.31 278.639L1748.21 298.536" stroke="#F26A25" stroke-width="8"/>
<path d="M1761.08 59.6064L1780.98 79.5033L1761.08 99.4002" stroke="#F26A25" stroke-width="8"/>
<path d="M1800.88 59.6064L1780.98 79.5033L1800.88 99.4002" stroke="#F26A25" stroke-width="8"/>
<path d="M1761.08 191.913L1780.98 211.81L1761.08 231.707" stroke="#F26A25" stroke-width="8"/>
<path d="M1800.88 191.913L1780.98 211.81L1800.88 231.707" stroke="#F26A25" stroke-width="8"/>
<path d="M1761.09 324.217L1780.98 344.114L1761.09 364.011" stroke="#F26A25" stroke-width="8"/>
<path d="M1800.88 324.217L1780.98 344.114L1800.88 364.011" stroke="#F26A25" stroke-width="8"/>
<path d="M1813.33 -5.81393L1833.22 14.083L1813.33 33.9799" stroke="#F26A25" stroke-width="8"/>
<path d="M1853.12 -5.81393L1833.22 14.083L1853.12 33.9799" stroke="#F26A25" stroke-width="8"/>
<path d="M1813.33 126.489L1833.22 146.386L1813.33 166.283" stroke="#F26A25" stroke-width="8"/>
<path d="M1853.12 126.489L1833.22 146.386L1853.12 166.283" stroke="#F26A25" stroke-width="8"/>
<path d="M1813.33 258.796L1833.22 278.693L1813.33 298.59" stroke="#F26A25" stroke-width="8"/>
<path d="M1853.12 258.796L1833.22 278.693L1853.12 298.59" stroke="#F26A25" stroke-width="8"/>
<path d="M1866 59.66L1885.9 79.5569L1866 99.4538" stroke="#F26A25" stroke-width="8"/>
<path d="M1905.79 59.66L1885.9 79.5569L1905.79 99.4538" stroke="#F26A25" stroke-width="8"/>
<path d="M1866 191.966L1885.9 211.863L1866 231.76" stroke="#F26A25" stroke-width="8"/>
<path d="M1905.79 191.966L1885.9 211.863L1905.79 231.76" stroke="#F26A25" stroke-width="8"/>
<path d="M1866 324.272L1885.9 344.169L1866 364.065" stroke="#F26A25" stroke-width="8"/>
<path d="M1905.79 324.272L1885.9 344.169L1905.79 364.065" stroke="#F26A25" stroke-width="8"/>
</g>
<mask id="mask1_94_2347" style="mask-type:alpha" maskUnits="userSpaceOnUse" x="0" y="665" width="1937" height="385">
<rect y="665" width="1936.28" height="384.774" fill="url(#paint1_linear_94_2347)"/>
</mask>
<g mask="url(#mask1_94_2347)">
<path d="M29.8 658.315L49.697 678.212L29.8 698.109" stroke="#F26A25" stroke-width="8"/>
<path d="M69.5948 658.315L49.6979 678.212L69.5948 698.109" stroke="#F26A25" stroke-width="8"/>
<path d="M29.7996 790.621L49.6965 810.518L29.7996 830.415" stroke="#F26A25" stroke-width="8"/>
<path d="M69.5956 790.621L49.6987 810.518L69.5956 830.415" stroke="#F26A25" stroke-width="8"/>
<path d="M29.8 922.925L49.697 942.822L29.8 962.719" stroke="#F26A25" stroke-width="8"/>
<path d="M69.5948 922.925L49.6979 942.822L69.5948 962.719" stroke="#F26A25" stroke-width="8"/>
<path d="M82.4703 723.792L102.367 743.689L82.4703 763.586" stroke="#F26A25" stroke-width="8"/>
<path d="M122.265 723.792L102.368 743.689L122.265 763.586" stroke="#F26A25" stroke-width="8"/>
<path d="M82.4703 856.098L102.367 875.995L82.4703 895.892" stroke="#F26A25" stroke-width="8"/>
<path d="M122.265 856.098L102.368 875.995L122.265 895.892" stroke="#F26A25" stroke-width="8"/>
<path d="M82.4703 988.402L102.367 1008.3L82.4703 1028.2" stroke="#F26A25" stroke-width="8"/>
<path d="M122.265 988.402L102.368 1008.3L122.265 1028.2" stroke="#F26A25" stroke-width="8"/>
<path d="M134.713 658.315L154.61 678.212L134.713 698.109" stroke="#F26A25" stroke-width="8"/>
<path d="M174.508 658.315L154.611 678.212L174.508 698.109" stroke="#F26A25" stroke-width="8"/>
<path d="M134.713 790.621L154.61 810.518L134.713 830.415" stroke="#F26A25" stroke-width="8"/>
<path d="M174.509 790.621L154.612 810.518L174.509 830.415" stroke="#F26A25" stroke-width="8"/>
<path d="M134.713 922.925L154.61 942.822L134.713 962.719" stroke="#F26A25" stroke-width="8"/>
<path d="M174.508 922.925L154.611 942.822L174.508 962.719" stroke="#F26A25" stroke-width="8"/>
<path d="M187.385 723.792L207.282 743.689L187.385 763.586" stroke="#F26A25" stroke-width="8"/>
<path d="M227.18 723.792L207.283 743.689L227.18 763.586" stroke="#F26A25" stroke-width="8"/>
<path d="M187.385 856.097L207.282 875.994L187.385 895.891" stroke="#F26A25" stroke-width="8"/>
<path d="M227.18 856.097L207.283 875.994L227.18 895.891" stroke="#F26A25" stroke-width="8"/>
<path d="M187.385 988.402L207.282 1008.3L187.385 1028.2" stroke="#F26A25" stroke-width="8"/>
<path d="M227.18 988.402L207.283 1008.3L227.18 1028.2" stroke="#F26A25" stroke-width="8"/>
<path d="M239.626 658.372L259.523 678.269L239.626 698.166" stroke="#F26A25" stroke-width="8"/>
<path d="M279.421 658.372L259.524 678.269L279.421 698.166" stroke="#F26A25" stroke-width="8"/>
<path d="M239.626 790.675L259.523 810.572L239.626 830.469" stroke="#F26A25" stroke-width="8"/>
<path d="M279.421 790.675L259.524 810.572L279.421 830.469" stroke="#F26A25" stroke-width="8"/>
<path d="M239.626 922.979L259.523 942.876L239.626 962.773" stroke="#F26A25" stroke-width="8"/>
<path d="M279.421 922.979L259.524 942.876L279.421 962.773" stroke="#F26A25" stroke-width="8"/>
<path d="M292.297 723.845L312.194 743.742L292.297 763.639" stroke="#F26A25" stroke-width="8"/>
<path d="M332.092 723.845L312.195 743.742L332.092 763.639" stroke="#F26A25" stroke-width="8"/>
<path d="M292.297 856.15L312.194 876.047L292.297 895.944" stroke="#F26A25" stroke-width="8"/>
<path d="M332.092 856.15L312.195 876.047L332.092 895.944" stroke="#F26A25" stroke-width="8"/>
<path d="M292.297 988.456L312.194 1008.35L292.297 1028.25" stroke="#F26A25" stroke-width="8"/>
<path d="M332.092 988.456L312.195 1008.35L332.092 1028.25" stroke="#F26A25" stroke-width="8"/>
<path d="M344.539 658.424L364.436 678.321L344.539 698.218" stroke="#F26A25" stroke-width="8"/>
<path d="M384.335 658.424L364.438 678.321L384.335 698.218" stroke="#F26A25" stroke-width="8"/>
<path d="M344.539 790.73L364.436 810.627L344.539 830.524" stroke="#F26A25" stroke-width="8"/>
<path d="M384.333 790.73L364.437 810.627L384.333 830.524" stroke="#F26A25" stroke-width="8"/>
<path d="M344.539 923.036L364.436 942.933L344.539 962.83" stroke="#F26A25" stroke-width="8"/>
<path d="M384.333 923.036L364.437 942.933L384.333 962.83" stroke="#F26A25" stroke-width="8"/>
<path d="M397.211 723.901L417.108 743.798L397.211 763.695" stroke="#F26A25" stroke-width="8"/>
<path d="M437.006 723.901L417.109 743.798L437.006 763.695" stroke="#F26A25" stroke-width="8"/>
<path d="M397.211 856.206L417.108 876.103L397.211 896" stroke="#F26A25" stroke-width="8"/>
<path d="M437.006 856.206L417.109 876.103L437.006 896" stroke="#F26A25" stroke-width="8"/>
<path d="M397.211 988.512L417.108 1008.41L397.211 1028.31" stroke="#F26A25" stroke-width="8"/>
<path d="M437.006 988.512L417.109 1008.41L437.006 1028.31" stroke="#F26A25" stroke-width="8"/>
<path d="M449.453 658.479L469.35 678.375L449.453 698.272" stroke="#F26A25" stroke-width="8"/>
<path d="M489.248 658.479L469.351 678.375L489.248 698.272" stroke="#F26A25" stroke-width="8"/>
<path d="M449.452 790.784L469.349 810.681L449.452 830.578" stroke="#F26A25" stroke-width="8"/>
<path d="M489.248 790.784L469.351 810.681L489.248 830.578" stroke="#F26A25" stroke-width="8"/>
<path d="M449.453 923.09L469.35 942.987L449.453 962.884" stroke="#F26A25" stroke-width="8"/>
<path d="M489.248 923.09L469.351 942.987L489.248 962.884" stroke="#F26A25" stroke-width="8"/>
<path d="M502.124 723.955L522.021 743.852L502.124 763.749" stroke="#F26A25" stroke-width="8"/>
<path d="M541.918 723.955L522.022 743.852L541.918 763.749" stroke="#F26A25" stroke-width="8"/>
<path d="M502.124 856.26L522.021 876.157L502.124 896.054" stroke="#F26A25" stroke-width="8"/>
<path d="M541.919 856.26L522.022 876.157L541.919 896.054" stroke="#F26A25" stroke-width="8"/>
<path d="M502.124 988.566L522.021 1008.46L502.124 1028.36" stroke="#F26A25" stroke-width="8"/>
<path d="M541.918 988.566L522.022 1008.46L541.918 1028.36" stroke="#F26A25" stroke-width="8"/>
<path d="M554.367 658.534L574.264 678.431L554.367 698.328" stroke="#F26A25" stroke-width="8"/>
<path d="M594.162 658.534L574.265 678.431L594.162 698.328" stroke="#F26A25" stroke-width="8"/>
<path d="M554.368 790.84L574.265 810.737L554.368 830.634" stroke="#F26A25" stroke-width="8"/>
<path d="M594.162 790.84L574.265 810.737L594.162 830.634" stroke="#F26A25" stroke-width="8"/>
<path d="M554.366 923.143L574.263 943.04L554.366 962.937" stroke="#F26A25" stroke-width="8"/>
<path d="M594.162 923.143L574.265 943.04L594.162 962.937" stroke="#F26A25" stroke-width="8"/>
<path d="M607.037 724.011L626.934 743.908L607.037 763.805" stroke="#F26A25" stroke-width="8"/>
<path d="M646.832 724.011L626.935 743.908L646.832 763.805" stroke="#F26A25" stroke-width="8"/>
<path d="M607.037 856.314L626.934 876.211L607.037 896.107" stroke="#F26A25" stroke-width="8"/>
<path d="M646.832 856.314L626.935 876.211L646.832 896.107" stroke="#F26A25" stroke-width="8"/>
<path d="M607.037 988.62L626.934 1008.52L607.037 1028.41" stroke="#F26A25" stroke-width="8"/>
<path d="M646.832 988.62L626.935 1008.52L646.832 1028.41" stroke="#F26A25" stroke-width="8"/>
<path d="M659.279 658.588L679.176 678.485L659.279 698.382" stroke="#F26A25" stroke-width="8"/>
<path d="M699.074 658.588L679.177 678.485L699.074 698.382" stroke="#F26A25" stroke-width="8"/>
<path d="M659.279 790.894L679.176 810.791L659.279 830.688" stroke="#F26A25" stroke-width="8"/>
<path d="M699.074 790.894L679.177 810.791L699.074 830.688" stroke="#F26A25" stroke-width="8"/>
<path d="M659.279 923.196L679.176 943.093L659.279 962.99" stroke="#F26A25" stroke-width="8"/>
<path d="M699.074 923.196L679.177 943.093L699.074 962.99" stroke="#F26A25" stroke-width="8"/>
<path d="M711.952 724.064L731.849 743.961L711.952 763.858" stroke="#F26A25" stroke-width="8"/>
<path d="M751.746 724.064L731.849 743.961L751.746 763.858" stroke="#F26A25" stroke-width="8"/>
<path d="M711.952 856.366L731.849 876.263L711.952 896.16" stroke="#F26A25" stroke-width="8"/>
<path d="M751.746 856.366L731.849 876.263L751.746 896.16" stroke="#F26A25" stroke-width="8"/>
<path d="M711.952 988.673L731.849 1008.57L711.952 1028.47" stroke="#F26A25" stroke-width="8"/>
<path d="M751.746 988.673L731.849 1008.57L751.746 1028.47" stroke="#F26A25" stroke-width="8"/>
<path d="M764.194 658.642L784.091 678.539L764.194 698.436" stroke="#F26A25" stroke-width="8"/>
<path d="M803.988 658.642L784.091 678.539L803.988 698.436" stroke="#F26A25" stroke-width="8"/>
<path d="M764.192 790.946L784.089 810.843L764.192 830.74" stroke="#F26A25" stroke-width="8"/>
<path d="M803.988 790.946L784.091 810.843L803.988 830.74" stroke="#F26A25" stroke-width="8"/>
<path d="M764.194 923.253L784.091 943.15L764.194 963.047" stroke="#F26A25" stroke-width="8"/>
<path d="M803.988 923.253L784.091 943.15L803.988 963.047" stroke="#F26A25" stroke-width="8"/>
<path d="M816.864 724.117L836.761 744.014L816.864 763.911" stroke="#F26A25" stroke-width="8"/>
<path d="M856.659 724.117L836.762 744.014L856.659 763.911" stroke="#F26A25" stroke-width="8"/>
<path d="M816.864 856.423L836.761 876.32L816.864 896.217" stroke="#F26A25" stroke-width="8"/>
<path d="M856.659 856.423L836.762 876.32L856.659 896.217" stroke="#F26A25" stroke-width="8"/>
<path d="M816.864 988.729L836.761 1008.63L816.864 1028.52" stroke="#F26A25" stroke-width="8"/>
<path d="M856.659 988.729L836.762 1008.63L856.659 1028.52" stroke="#F26A25" stroke-width="8"/>
<path d="M869.105 658.695L889.002 678.591L869.105 698.488" stroke="#F26A25" stroke-width="8"/>
<path d="M908.901 658.695L889.004 678.591L908.901 698.488" stroke="#F26A25" stroke-width="8"/>
<path d="M869.105 791.002L889.002 810.899L869.105 830.796" stroke="#F26A25" stroke-width="8"/>
<path d="M908.9 791.002L889.003 810.899L908.9 830.796" stroke="#F26A25" stroke-width="8"/>
<path d="M869.105 923.306L889.002 943.203L869.105 963.1" stroke="#F26A25" stroke-width="8"/>
<path d="M908.9 923.306L889.003 943.203L908.9 963.1" stroke="#F26A25" stroke-width="8"/>
<path d="M921.778 724.173L941.674 744.07L921.778 763.967" stroke="#F26A25" stroke-width="8"/>
<path d="M961.572 724.173L941.675 744.07L961.572 763.967" stroke="#F26A25" stroke-width="8"/>
<path d="M921.778 856.479L941.674 876.376L921.778 896.273" stroke="#F26A25" stroke-width="8"/>
<path d="M961.572 856.479L941.675 876.376L961.572 896.273" stroke="#F26A25" stroke-width="8"/>
<path d="M921.778 988.781L941.674 1008.68L921.778 1028.58" stroke="#F26A25" stroke-width="8"/>
<path d="M961.572 988.781L941.675 1008.68L961.572 1028.58" stroke="#F26A25" stroke-width="8"/>
<path d="M974.021 658.75L993.918 678.647L974.021 698.543" stroke="#F26A25" stroke-width="8"/>
<path d="M1013.82 658.75L993.919 678.647L1013.82 698.543" stroke="#F26A25" stroke-width="8"/>
<path d="M974.021 791.056L993.918 810.953L974.021 830.849" stroke="#F26A25" stroke-width="8"/>
<path d="M1013.82 791.056L993.919 810.953L1013.82 830.849" stroke="#F26A25" stroke-width="8"/>
<path d="M974.021 923.362L993.918 943.259L974.021 963.156" stroke="#F26A25" stroke-width="8"/>
<path d="M1013.82 923.362L993.919 943.259L1013.82 963.156" stroke="#F26A25" stroke-width="8"/>
<path d="M1026.69 724.227L1046.59 744.124L1026.69 764.021" stroke="#F26A25" stroke-width="8"/>
<path d="M1066.49 724.227L1046.59 744.124L1066.49 764.021" stroke="#F26A25" stroke-width="8"/>
<path d="M1026.69 856.533L1046.59 876.429L1026.69 896.326" stroke="#F26A25" stroke-width="8"/>
<path d="M1066.49 856.533L1046.59 876.429L1066.49 896.326" stroke="#F26A25" stroke-width="8"/>
<path d="M1026.69 988.837L1046.59 1008.73L1026.69 1028.63" stroke="#F26A25" stroke-width="8"/>
<path d="M1066.49 988.837L1046.59 1008.73L1066.49 1028.63" stroke="#F26A25" stroke-width="8"/>
<path d="M1078.93 658.805L1098.83 678.702L1078.93 698.599" stroke="#F26A25" stroke-width="8"/>
<path d="M1118.73 658.805L1098.83 678.702L1118.73 698.599" stroke="#F26A25" stroke-width="8"/>
<path d="M1078.93 791.108L1098.83 811.005L1078.93 830.902" stroke="#F26A25" stroke-width="8"/>
<path d="M1118.73 791.108L1098.83 811.005L1118.73 830.902" stroke="#F26A25" stroke-width="8"/>
<path d="M1078.93 923.414L1098.83 943.311L1078.93 963.208" stroke="#F26A25" stroke-width="8"/>
<path d="M1118.73 923.414L1098.83 943.311L1118.73 963.208" stroke="#F26A25" stroke-width="8"/>
<path d="M1131.6 724.283L1151.5 744.179L1131.6 764.076" stroke="#F26A25" stroke-width="8"/>
<path d="M1171.4 724.283L1151.5 744.179L1171.4 764.076" stroke="#F26A25" stroke-width="8"/>
<path d="M1131.6 856.585L1151.5 876.482L1131.6 896.379" stroke="#F26A25" stroke-width="8"/>
<path d="M1171.4 856.585L1151.5 876.482L1171.4 896.379" stroke="#F26A25" stroke-width="8"/>
<path d="M1131.6 988.892L1151.5 1008.79L1131.6 1028.69" stroke="#F26A25" stroke-width="8"/>
<path d="M1171.4 988.892L1151.5 1008.79L1171.4 1028.69" stroke="#F26A25" stroke-width="8"/>
<path d="M1183.85 658.859L1203.74 678.756L1183.85 698.653" stroke="#F26A25" stroke-width="8"/>
<path d="M1223.64 658.859L1203.74 678.756L1223.64 698.653" stroke="#F26A25" stroke-width="8"/>
<path d="M1183.85 791.163L1203.74 811.06L1183.85 830.957" stroke="#F26A25" stroke-width="8"/>
<path d="M1223.64 791.163L1203.74 811.06L1223.64 830.957" stroke="#F26A25" stroke-width="8"/>
<path d="M1183.85 923.468L1203.74 943.365L1183.85 963.262" stroke="#F26A25" stroke-width="8"/>
<path d="M1223.64 923.468L1203.74 943.365L1223.64 963.262" stroke="#F26A25" stroke-width="8"/>
<path d="M1236.52 724.336L1256.42 744.233L1236.52 764.13" stroke="#F26A25" stroke-width="8"/>
<path d="M1276.31 724.336L1256.42 744.233L1276.31 764.13" stroke="#F26A25" stroke-width="8"/>
<path d="M1236.52 856.642L1256.42 876.539L1236.52 896.436" stroke="#F26A25" stroke-width="8"/>
<path d="M1276.31 856.642L1256.42 876.539L1276.31 896.436" stroke="#F26A25" stroke-width="8"/>
<path d="M1236.52 988.945L1256.42 1008.84L1236.52 1028.74" stroke="#F26A25" stroke-width="8"/>
<path d="M1276.31 988.945L1256.42 1008.84L1276.31 1028.74" stroke="#F26A25" stroke-width="8"/>
<path d="M1288.76 658.912L1308.66 678.809L1288.76 698.706" stroke="#F26A25" stroke-width="8"/>
<path d="M1328.55 658.912L1308.66 678.809L1328.55 698.706" stroke="#F26A25" stroke-width="8"/>
<path d="M1288.76 791.219L1308.66 811.116L1288.76 831.013" stroke="#F26A25" stroke-width="8"/>
<path d="M1328.55 791.219L1308.66 811.116L1328.55 831.013" stroke="#F26A25" stroke-width="8"/>
<path d="M1288.76 923.524L1308.66 943.42L1288.76 963.317" stroke="#F26A25" stroke-width="8"/>
<path d="M1328.55 923.524L1308.66 943.42L1328.55 963.317" stroke="#F26A25" stroke-width="8"/>
<path d="M1341.43 724.389L1361.33 744.286L1341.43 764.183" stroke="#F26A25" stroke-width="8"/>
<path d="M1381.23 724.389L1361.33 744.286L1381.23 764.183" stroke="#F26A25" stroke-width="8"/>
<path d="M1341.43 856.696L1361.33 876.593L1341.43 896.49" stroke="#F26A25" stroke-width="8"/>
<path d="M1381.23 856.696L1361.33 876.593L1381.23 896.49" stroke="#F26A25" stroke-width="8"/>
<path d="M1341.43 988.999L1361.33 1008.9L1341.43 1028.79" stroke="#F26A25" stroke-width="8"/>
<path d="M1381.23 988.999L1361.33 1008.9L1381.23 1028.79" stroke="#F26A25" stroke-width="8"/>
<path d="M1393.67 658.967L1413.57 678.864L1393.67 698.761" stroke="#F26A25" stroke-width="8"/>
<path d="M1433.47 658.967L1413.57 678.864L1433.47 698.761" stroke="#F26A25" stroke-width="8"/>
<path d="M1393.67 791.273L1413.57 811.17L1393.67 831.067" stroke="#F26A25" stroke-width="8"/>
<path d="M1433.47 791.273L1413.57 811.17L1433.47 831.067" stroke="#F26A25" stroke-width="8"/>
<path d="M1393.67 923.577L1413.57 943.474L1393.67 963.371" stroke="#F26A25" stroke-width="8"/>
<path d="M1433.47 923.577L1413.57 943.474L1433.47 963.371" stroke="#F26A25" stroke-width="8"/>
<path d="M1446.35 724.444L1466.24 744.341L1446.35 764.238" stroke="#F26A25" stroke-width="8"/>
<path d="M1486.14 724.444L1466.24 744.341L1486.14 764.238" stroke="#F26A25" stroke-width="8"/>
<path d="M1446.35 856.747L1466.24 876.644L1446.35 896.541" stroke="#F26A25" stroke-width="8"/>
<path d="M1486.14 856.747L1466.24 876.644L1486.14 896.541" stroke="#F26A25" stroke-width="8"/>
<path d="M1446.35 989.054L1466.24 1008.95L1446.35 1028.85" stroke="#F26A25" stroke-width="8"/>
<path d="M1486.14 989.054L1466.24 1008.95L1486.14 1028.85" stroke="#F26A25" stroke-width="8"/>
<path d="M1498.59 659.024L1518.48 678.921L1498.59 698.818" stroke="#F26A25" stroke-width="8"/>
<path d="M1538.38 659.024L1518.49 678.921L1538.38 698.818" stroke="#F26A25" stroke-width="8"/>
<path d="M1498.59 791.327L1518.48 811.224L1498.59 831.121" stroke="#F26A25" stroke-width="8"/>
<path d="M1538.38 791.327L1518.49 811.224L1538.38 831.121" stroke="#F26A25" stroke-width="8"/>
<path d="M1498.59 923.631L1518.48 943.528L1498.59 963.425" stroke="#F26A25" stroke-width="8"/>
<path d="M1538.38 923.631L1518.49 943.528L1538.38 963.425" stroke="#F26A25" stroke-width="8"/>
<path d="M1551.26 724.497L1571.16 744.394L1551.26 764.291" stroke="#F26A25" stroke-width="8"/>
<path d="M1591.05 724.497L1571.16 744.394L1591.05 764.291" stroke="#F26A25" stroke-width="8"/>
<path d="M1551.26 856.802L1571.16 876.699L1551.26 896.596" stroke="#F26A25" stroke-width="8"/>
<path d="M1591.05 856.802L1571.16 876.699L1591.05 896.596" stroke="#F26A25" stroke-width="8"/>
<path d="M1551.26 989.108L1571.16 1009.01L1551.26 1028.9" stroke="#F26A25" stroke-width="8"/>
<path d="M1591.05 989.108L1571.16 1009.01L1591.05 1028.9" stroke="#F26A25" stroke-width="8"/>
<path d="M1603.5 659.077L1623.4 678.974L1603.5 698.871" stroke="#F26A25" stroke-width="8"/>
<path d="M1643.3 659.077L1623.4 678.974L1643.3 698.871" stroke="#F26A25" stroke-width="8"/>
<path d="M1603.5 791.38L1623.4 811.276L1603.5 831.173" stroke="#F26A25" stroke-width="8"/>
<path d="M1643.3 791.38L1623.4 811.276L1643.3 831.173" stroke="#F26A25" stroke-width="8"/>
<path d="M1603.5 923.686L1623.4 943.582L1603.5 963.479" stroke="#F26A25" stroke-width="8"/>
<path d="M1643.3 923.686L1623.4 943.582L1643.3 963.479" stroke="#F26A25" stroke-width="8"/>
<path d="M1656.17 724.55L1676.07 744.447L1656.17 764.344" stroke="#F26A25" stroke-width="8"/>
<path d="M1695.97 724.55L1676.07 744.447L1695.97 764.344" stroke="#F26A25" stroke-width="8"/>
<path d="M1656.17 856.856L1676.07 876.753L1656.17 896.65" stroke="#F26A25" stroke-width="8"/>
<path d="M1695.97 856.856L1676.07 876.753L1695.97 896.65" stroke="#F26A25" stroke-width="8"/>
<path d="M1656.17 989.164L1676.07 1009.06L1656.17 1028.96" stroke="#F26A25" stroke-width="8"/>
<path d="M1695.97 989.164L1676.07 1009.06L1695.97 1028.96" stroke="#F26A25" stroke-width="8"/>
<path d="M1708.41 659.13L1728.31 679.027L1708.41 698.924" stroke="#F26A25" stroke-width="8"/>
<path d="M1748.21 659.13L1728.31 679.027L1748.21 698.924" stroke="#F26A25" stroke-width="8"/>
<path d="M1708.41 791.437L1728.31 811.333L1708.41 831.23" stroke="#F26A25" stroke-width="8"/>
<path d="M1748.21 791.437L1728.31 811.333L1748.21 831.23" stroke="#F26A25" stroke-width="8"/>
<path d="M1708.41 923.743L1728.31 943.639L1708.41 963.536" stroke="#F26A25" stroke-width="8"/>
<path d="M1748.21 923.743L1728.31 943.639L1748.21 963.536" stroke="#F26A25" stroke-width="8"/>
<path d="M1761.08 724.606L1780.98 744.503L1761.08 764.4" stroke="#F26A25" stroke-width="8"/>
<path d="M1800.88 724.606L1780.98 744.503L1800.88 764.4" stroke="#F26A25" stroke-width="8"/>
<path d="M1761.08 856.913L1780.98 876.81L1761.08 896.707" stroke="#F26A25" stroke-width="8"/>
<path d="M1800.88 856.913L1780.98 876.81L1800.88 896.707" stroke="#F26A25" stroke-width="8"/>
<path d="M1761.09 989.217L1780.98 1009.11L1761.09 1029.01" stroke="#F26A25" stroke-width="8"/>
<path d="M1800.88 989.217L1780.98 1009.11L1800.88 1029.01" stroke="#F26A25" stroke-width="8"/>
<path d="M1813.33 659.186L1833.22 679.083L1813.33 698.98" stroke="#F26A25" stroke-width="8"/>
<path d="M1853.12 659.186L1833.22 679.083L1853.12 698.98" stroke="#F26A25" stroke-width="8"/>
<path d="M1813.33 791.489L1833.22 811.386L1813.33 831.283" stroke="#F26A25" stroke-width="8"/>
<path d="M1853.12 791.489L1833.22 811.386L1853.12 831.283" stroke="#F26A25" stroke-width="8"/>
<path d="M1813.33 923.796L1833.22 943.693L1813.33 963.59" stroke="#F26A25" stroke-width="8"/>
<path d="M1853.12 923.796L1833.22 943.693L1853.12 963.59" stroke="#F26A25" stroke-width="8"/>
<path d="M1866 724.66L1885.9 744.557L1866 764.454" stroke="#F26A25" stroke-width="8"/>
<path d="M1905.79 724.66L1885.9 744.557L1905.79 764.454" stroke="#F26A25" stroke-width="8"/>
<path d="M1866 856.966L1885.9 876.863L1866 896.76" stroke="#F26A25" stroke-width="8"/>
<path d="M1905.79 856.966L1885.9 876.863L1905.79 896.76" stroke="#F26A25" stroke-width="8"/>
<path d="M1866 989.272L1885.9 1009.17L1866 1029.07" stroke="#F26A25" stroke-width="8"/>
<path d="M1905.79 989.272L1885.9 1009.17L1905.79 1029.07" stroke="#F26A25" stroke-width="8"/>
</g>
<mask id="mask2_94_2347" style="mask-type:alpha" maskUnits="userSpaceOnUse" x="0" y="375" width="1937" height="386">
<rect x="1936.28" y="760" width="1936.28" height="384.774" transform="rotate(180 1936.28 760)" fill="url(#paint2_linear_94_2347)"/>
</mask>
<g mask="url(#mask2_94_2347)">
<path d="M1906.48 766.685L1886.59 746.788L1906.48 726.891" stroke="#F26A25" stroke-width="8"/>
<path d="M1866.69 766.685L1886.59 746.788L1866.69 726.891" stroke="#F26A25" stroke-width="8"/>
<path d="M1906.49 634.379L1886.59 614.482L1906.49 594.585" stroke="#F26A25" stroke-width="8"/>
<path d="M1866.69 634.379L1886.59 614.482L1866.69 594.585" stroke="#F26A25" stroke-width="8"/>
<path d="M1906.48 502.075L1886.59 482.178L1906.48 462.281" stroke="#F26A25" stroke-width="8"/>
<path d="M1866.69 502.075L1886.59 482.178L1866.69 462.281" stroke="#F26A25" stroke-width="8"/>
<path d="M1853.82 701.208L1833.92 681.311L1853.82 661.414" stroke="#F26A25" stroke-width="8"/>
<path d="M1814.02 701.208L1833.92 681.311L1814.02 661.414" stroke="#F26A25" stroke-width="8"/>
<path d="M1853.81 568.902L1833.92 549.005L1853.81 529.108" stroke="#F26A25" stroke-width="8"/>
<path d="M1814.02 568.902L1833.92 549.005L1814.02 529.108" stroke="#F26A25" stroke-width="8"/>
<path d="M1853.82 436.598L1833.92 416.701L1853.82 396.804" stroke="#F26A25" stroke-width="8"/>
<path d="M1814.02 436.598L1833.92 416.701L1814.02 396.804" stroke="#F26A25" stroke-width="8"/>
<path d="M1801.57 766.685L1781.67 746.788L1801.57 726.891" stroke="#F26A25" stroke-width="8"/>
<path d="M1761.78 766.685L1781.67 746.788L1761.78 726.891" stroke="#F26A25" stroke-width="8"/>
<path d="M1801.57 634.379L1781.67 614.482L1801.57 594.585" stroke="#F26A25" stroke-width="8"/>
<path d="M1761.78 634.379L1781.67 614.482L1761.78 594.585" stroke="#F26A25" stroke-width="8"/>
<path d="M1801.57 502.075L1781.67 482.178L1801.57 462.281" stroke="#F26A25" stroke-width="8"/>
<path d="M1761.78 502.075L1781.67 482.178L1761.78 462.281" stroke="#F26A25" stroke-width="8"/>
<path d="M1748.9 701.208L1729 681.311L1748.9 661.414" stroke="#F26A25" stroke-width="8"/>
<path d="M1709.11 701.208L1729 681.311L1709.11 661.414" stroke="#F26A25" stroke-width="8"/>
<path d="M1748.9 568.902L1729 549.005L1748.9 529.108" stroke="#F26A25" stroke-width="8"/>
<path d="M1709.11 568.902L1729 549.005L1709.11 529.108" stroke="#F26A25" stroke-width="8"/>
<path d="M1748.9 436.598L1729 416.701L1748.9 396.804" stroke="#F26A25" stroke-width="8"/>
<path d="M1709.11 436.598L1729 416.701L1709.11 396.804" stroke="#F26A25" stroke-width="8"/>
<path d="M1696.66 766.628L1676.76 746.731L1696.66 726.834" stroke="#F26A25" stroke-width="8"/>
<path d="M1656.86 766.628L1676.76 746.731L1656.86 726.834" stroke="#F26A25" stroke-width="8"/>
<path d="M1696.66 634.325L1676.76 614.428L1696.66 594.531" stroke="#F26A25" stroke-width="8"/>
<path d="M1656.86 634.325L1676.76 614.428L1656.86 594.531" stroke="#F26A25" stroke-width="8"/>
<path d="M1696.66 502.021L1676.76 482.124L1696.66 462.227" stroke="#F26A25" stroke-width="8"/>
<path d="M1656.86 502.021L1676.76 482.124L1656.86 462.227" stroke="#F26A25" stroke-width="8"/>
<path d="M1643.99 701.155L1624.09 681.258L1643.99 661.361" stroke="#F26A25" stroke-width="8"/>
<path d="M1604.19 701.155L1624.09 681.258L1604.19 661.361" stroke="#F26A25" stroke-width="8"/>
<path d="M1643.99 568.85L1624.09 548.953L1643.99 529.056" stroke="#F26A25" stroke-width="8"/>
<path d="M1604.19 568.85L1624.09 548.953L1604.19 529.056" stroke="#F26A25" stroke-width="8"/>
<path d="M1643.99 436.544L1624.09 416.647L1643.99 396.75" stroke="#F26A25" stroke-width="8"/>
<path d="M1604.19 436.544L1624.09 416.647L1604.19 396.75" stroke="#F26A25" stroke-width="8"/>
<path d="M1591.75 766.576L1571.85 746.679L1591.75 726.782" stroke="#F26A25" stroke-width="8"/>
<path d="M1551.95 766.576L1571.85 746.679L1551.95 726.782" stroke="#F26A25" stroke-width="8"/>
<path d="M1591.75 634.27L1571.85 614.373L1591.75 594.476" stroke="#F26A25" stroke-width="8"/>
<path d="M1551.95 634.27L1571.85 614.373L1551.95 594.476" stroke="#F26A25" stroke-width="8"/>
<path d="M1591.75 501.964L1571.85 482.067L1591.75 462.17" stroke="#F26A25" stroke-width="8"/>
<path d="M1551.95 501.964L1571.85 482.067L1551.95 462.17" stroke="#F26A25" stroke-width="8"/>
<path d="M1539.07 701.099L1519.18 681.202L1539.07 661.305" stroke="#F26A25" stroke-width="8"/>
<path d="M1499.28 701.099L1519.18 681.202L1499.28 661.305" stroke="#F26A25" stroke-width="8"/>
<path d="M1539.07 568.794L1519.18 548.897L1539.07 529" stroke="#F26A25" stroke-width="8"/>
<path d="M1499.28 568.794L1519.18 548.897L1499.28 529" stroke="#F26A25" stroke-width="8"/>
<path d="M1539.07 436.488L1519.18 416.591L1539.07 396.694" stroke="#F26A25" stroke-width="8"/>
<path d="M1499.28 436.488L1519.18 416.591L1499.28 396.694" stroke="#F26A25" stroke-width="8"/>
<path d="M1486.83 766.521L1466.94 746.625L1486.83 726.728" stroke="#F26A25" stroke-width="8"/>
<path d="M1447.04 766.521L1466.93 746.625L1447.04 726.728" stroke="#F26A25" stroke-width="8"/>
<path d="M1486.83 634.216L1466.94 614.319L1486.83 594.422" stroke="#F26A25" stroke-width="8"/>
<path d="M1447.04 634.216L1466.93 614.319L1447.04 594.422" stroke="#F26A25" stroke-width="8"/>
<path d="M1486.83 501.91L1466.94 482.013L1486.83 462.116" stroke="#F26A25" stroke-width="8"/>
<path d="M1447.04 501.91L1466.93 482.013L1447.04 462.116" stroke="#F26A25" stroke-width="8"/>
<path d="M1434.16 701.045L1414.26 681.148L1434.16 661.251" stroke="#F26A25" stroke-width="8"/>
<path d="M1394.37 701.045L1414.26 681.148L1394.37 661.251" stroke="#F26A25" stroke-width="8"/>
<path d="M1434.16 568.74L1414.26 548.843L1434.16 528.946" stroke="#F26A25" stroke-width="8"/>
<path d="M1394.37 568.74L1414.26 548.843L1394.37 528.946" stroke="#F26A25" stroke-width="8"/>
<path d="M1434.16 436.435L1414.26 416.538L1434.16 396.641" stroke="#F26A25" stroke-width="8"/>
<path d="M1394.37 436.435L1414.26 416.538L1394.37 396.641" stroke="#F26A25" stroke-width="8"/>
<path d="M1381.92 766.466L1362.02 746.569L1381.92 726.672" stroke="#F26A25" stroke-width="8"/>
<path d="M1342.12 766.466L1362.02 746.569L1342.12 726.672" stroke="#F26A25" stroke-width="8"/>
<path d="M1381.92 634.16L1362.02 614.263L1381.92 594.366" stroke="#F26A25" stroke-width="8"/>
<path d="M1342.12 634.16L1362.02 614.263L1342.12 594.366" stroke="#F26A25" stroke-width="8"/>
<path d="M1381.92 501.857L1362.02 481.96L1381.92 462.063" stroke="#F26A25" stroke-width="8"/>
<path d="M1342.12 501.857L1362.02 481.96L1342.12 462.063" stroke="#F26A25" stroke-width="8"/>
<path d="M1329.25 700.989L1309.35 681.092L1329.25 661.195" stroke="#F26A25" stroke-width="8"/>
<path d="M1289.45 700.989L1309.35 681.092L1289.45 661.195" stroke="#F26A25" stroke-width="8"/>
<path d="M1329.25 568.686L1309.35 548.789L1329.25 528.892" stroke="#F26A25" stroke-width="8"/>
<path d="M1289.45 568.686L1309.35 548.789L1289.45 528.892" stroke="#F26A25" stroke-width="8"/>
<path d="M1329.25 436.381L1309.35 416.484L1329.25 396.587" stroke="#F26A25" stroke-width="8"/>
<path d="M1289.45 436.381L1309.35 416.484L1289.45 396.587" stroke="#F26A25" stroke-width="8"/>
<path d="M1277.01 766.412L1257.11 746.515L1277.01 726.618" stroke="#F26A25" stroke-width="8"/>
<path d="M1237.21 766.412L1257.11 746.515L1237.21 726.618" stroke="#F26A25" stroke-width="8"/>
<path d="M1277.01 634.106L1257.11 614.209L1277.01 594.313" stroke="#F26A25" stroke-width="8"/>
<path d="M1237.21 634.106L1257.11 614.209L1237.21 594.313" stroke="#F26A25" stroke-width="8"/>
<path d="M1277.01 501.804L1257.11 481.907L1277.01 462.01" stroke="#F26A25" stroke-width="8"/>
<path d="M1237.21 501.804L1257.11 481.907L1237.21 462.01" stroke="#F26A25" stroke-width="8"/>
<path d="M1224.33 700.936L1204.44 681.039L1224.33 661.143" stroke="#F26A25" stroke-width="8"/>
<path d="M1184.54 700.936L1204.43 681.039L1184.54 661.143" stroke="#F26A25" stroke-width="8"/>
<path d="M1224.33 568.634L1204.44 548.737L1224.33 528.84" stroke="#F26A25" stroke-width="8"/>
<path d="M1184.54 568.634L1204.44 548.737L1184.54 528.84" stroke="#F26A25" stroke-width="8"/>
<path d="M1224.33 436.327L1204.44 416.43L1224.33 396.533" stroke="#F26A25" stroke-width="8"/>
<path d="M1184.54 436.327L1204.44 416.43L1184.54 396.533" stroke="#F26A25" stroke-width="8"/>
<path d="M1172.09 766.358L1152.19 746.461L1172.09 726.564" stroke="#F26A25" stroke-width="8"/>
<path d="M1132.3 766.358L1152.19 746.461L1132.3 726.564" stroke="#F26A25" stroke-width="8"/>
<path d="M1172.09 634.054L1152.2 614.157L1172.09 594.26" stroke="#F26A25" stroke-width="8"/>
<path d="M1132.3 634.054L1152.19 614.157L1132.3 594.26" stroke="#F26A25" stroke-width="8"/>
<path d="M1172.09 501.748L1152.19 481.851L1172.09 461.954" stroke="#F26A25" stroke-width="8"/>
<path d="M1132.3 501.748L1152.19 481.851L1132.3 461.954" stroke="#F26A25" stroke-width="8"/>
<path d="M1119.42 700.883L1099.52 680.986L1119.42 661.089" stroke="#F26A25" stroke-width="8"/>
<path d="M1079.63 700.883L1099.52 680.986L1079.63 661.089" stroke="#F26A25" stroke-width="8"/>
<path d="M1119.42 568.577L1099.52 548.68L1119.42 528.783" stroke="#F26A25" stroke-width="8"/>
<path d="M1079.63 568.577L1099.52 548.68L1079.63 528.783" stroke="#F26A25" stroke-width="8"/>
<path d="M1119.42 436.273L1099.52 416.376L1119.42 396.479" stroke="#F26A25" stroke-width="8"/>
<path d="M1079.63 436.273L1099.52 416.376L1079.63 396.479" stroke="#F26A25" stroke-width="8"/>
<path d="M1067.18 766.305L1047.28 746.409L1067.18 726.512" stroke="#F26A25" stroke-width="8"/>
<path d="M1027.38 766.305L1047.28 746.409L1027.38 726.512" stroke="#F26A25" stroke-width="8"/>
<path d="M1067.18 633.998L1047.28 614.101L1067.18 594.204" stroke="#F26A25" stroke-width="8"/>
<path d="M1027.38 633.998L1047.28 614.101L1027.38 594.204" stroke="#F26A25" stroke-width="8"/>
<path d="M1067.18 501.695L1047.28 481.798L1067.18 461.901" stroke="#F26A25" stroke-width="8"/>
<path d="M1027.39 501.695L1047.28 481.798L1027.39 461.901" stroke="#F26A25" stroke-width="8"/>
<path d="M1014.51 700.827L994.61 680.93L1014.51 661.033" stroke="#F26A25" stroke-width="8"/>
<path d="M974.712 700.827L994.609 680.93L974.712 661.033" stroke="#F26A25" stroke-width="8"/>
<path d="M1014.51 568.521L994.61 548.624L1014.51 528.727" stroke="#F26A25" stroke-width="8"/>
<path d="M974.712 568.521L994.609 548.624L974.712 528.727" stroke="#F26A25" stroke-width="8"/>
<path d="M1014.51 436.218L994.61 416.322L1014.51 396.425" stroke="#F26A25" stroke-width="8"/>
<path d="M974.712 436.218L994.609 416.322L974.712 396.425" stroke="#F26A25" stroke-width="8"/>
<path d="M962.264 766.25L942.367 746.353L962.264 726.457" stroke="#F26A25" stroke-width="8"/>
<path d="M922.47 766.25L942.367 746.353L922.47 726.457" stroke="#F26A25" stroke-width="8"/>
<path d="M962.264 633.944L942.367 614.047L962.264 594.151" stroke="#F26A25" stroke-width="8"/>
<path d="M922.47 633.944L942.367 614.047L922.47 594.151" stroke="#F26A25" stroke-width="8"/>
<path d="M962.264 501.638L942.367 481.741L962.264 461.844" stroke="#F26A25" stroke-width="8"/>
<path d="M922.47 501.638L942.367 481.741L922.47 461.844" stroke="#F26A25" stroke-width="8"/>
<path d="M909.594 700.773L889.697 680.876L909.594 660.979" stroke="#F26A25" stroke-width="8"/>
<path d="M869.8 700.773L889.696 680.876L869.8 660.979" stroke="#F26A25" stroke-width="8"/>
<path d="M909.594 568.467L889.697 548.571L909.594 528.674" stroke="#F26A25" stroke-width="8"/>
<path d="M869.8 568.467L889.696 548.57L869.8 528.674" stroke="#F26A25" stroke-width="8"/>
<path d="M909.592 436.163L889.695 416.266L909.592 396.37" stroke="#F26A25" stroke-width="8"/>
<path d="M869.798 436.163L889.695 416.266L869.798 396.37" stroke="#F26A25" stroke-width="8"/>
<path d="M857.352 766.195L837.455 746.298L857.352 726.401" stroke="#F26A25" stroke-width="8"/>
<path d="M817.557 766.195L837.454 746.298L817.557 726.401" stroke="#F26A25" stroke-width="8"/>
<path d="M857.352 633.892L837.455 613.995L857.352 594.098" stroke="#F26A25" stroke-width="8"/>
<path d="M817.557 633.892L837.454 613.995L817.557 594.098" stroke="#F26A25" stroke-width="8"/>
<path d="M857.352 501.586L837.455 481.689L857.352 461.792" stroke="#F26A25" stroke-width="8"/>
<path d="M817.557 501.586L837.454 481.689L817.557 461.792" stroke="#F26A25" stroke-width="8"/>
<path d="M804.68 700.718L784.783 680.821L804.68 660.924" stroke="#F26A25" stroke-width="8"/>
<path d="M764.885 700.718L784.782 680.821L764.885 660.924" stroke="#F26A25" stroke-width="8"/>
<path d="M804.68 568.415L784.783 548.518L804.68 528.621" stroke="#F26A25" stroke-width="8"/>
<path d="M764.885 568.415L784.782 548.518L764.885 528.621" stroke="#F26A25" stroke-width="8"/>
<path d="M804.68 436.108L784.783 416.211L804.68 396.314" stroke="#F26A25" stroke-width="8"/>
<path d="M764.885 436.108L784.782 416.211L764.885 396.314" stroke="#F26A25" stroke-width="8"/>
<path d="M752.439 766.141L732.542 746.244L752.439 726.347" stroke="#F26A25" stroke-width="8"/>
<path d="M712.644 766.141L732.541 746.244L712.644 726.347" stroke="#F26A25" stroke-width="8"/>
<path d="M752.439 633.837L732.542 613.94L752.439 594.043" stroke="#F26A25" stroke-width="8"/>
<path d="M712.644 633.837L732.541 613.94L712.644 594.043" stroke="#F26A25" stroke-width="8"/>
<path d="M752.439 501.532L732.542 481.635L752.439 461.738" stroke="#F26A25" stroke-width="8"/>
<path d="M712.644 501.532L732.541 481.635L712.644 461.738" stroke="#F26A25" stroke-width="8"/>
<path d="M699.766 700.664L679.869 680.767L699.766 660.87" stroke="#F26A25" stroke-width="8"/>
<path d="M659.972 700.664L679.869 680.767L659.972 660.87" stroke="#F26A25" stroke-width="8"/>
<path d="M699.766 568.358L679.869 548.461L699.766 528.564" stroke="#F26A25" stroke-width="8"/>
<path d="M659.972 568.358L679.869 548.461L659.972 528.564" stroke="#F26A25" stroke-width="8"/>
<path d="M699.766 436.055L679.869 416.158L699.766 396.261" stroke="#F26A25" stroke-width="8"/>
<path d="M659.972 436.055L679.869 416.158L659.972 396.261" stroke="#F26A25" stroke-width="8"/>
<path d="M647.526 766.088L627.629 746.191L647.526 726.294" stroke="#F26A25" stroke-width="8"/>
<path d="M607.731 766.088L627.628 746.191L607.731 726.294" stroke="#F26A25" stroke-width="8"/>
<path d="M647.526 633.781L627.629 613.884L647.526 593.987" stroke="#F26A25" stroke-width="8"/>
<path d="M607.731 633.781L627.628 613.884L607.731 593.987" stroke="#F26A25" stroke-width="8"/>
<path d="M647.526 501.477L627.629 481.58L647.526 461.683" stroke="#F26A25" stroke-width="8"/>
<path d="M607.731 501.477L627.628 481.58L607.731 461.683" stroke="#F26A25" stroke-width="8"/>
<path d="M594.853 700.611L574.956 680.714L594.853 660.817" stroke="#F26A25" stroke-width="8"/>
<path d="M555.058 700.611L574.955 680.714L555.058 660.817" stroke="#F26A25" stroke-width="8"/>
<path d="M594.854 568.304L574.957 548.407L594.854 528.511" stroke="#F26A25" stroke-width="8"/>
<path d="M555.059 568.304L574.956 548.407L555.059 528.511" stroke="#F26A25" stroke-width="8"/>
<path d="M594.853 436.001L574.956 416.104L594.853 396.207" stroke="#F26A25" stroke-width="8"/>
<path d="M555.058 436.001L574.955 416.104L555.058 396.207" stroke="#F26A25" stroke-width="8"/>
<path d="M542.613 766.033L522.716 746.136L542.613 726.239" stroke="#F26A25" stroke-width="8"/>
<path d="M502.818 766.033L522.715 746.136L502.818 726.239" stroke="#F26A25" stroke-width="8"/>
<path d="M542.613 633.727L522.716 613.83L542.613 593.933" stroke="#F26A25" stroke-width="8"/>
<path d="M502.818 633.727L522.715 613.83L502.818 593.933" stroke="#F26A25" stroke-width="8"/>
<path d="M542.613 501.423L522.716 481.526L542.613 461.629" stroke="#F26A25" stroke-width="8"/>
<path d="M502.818 501.423L522.715 481.526L502.818 461.629" stroke="#F26A25" stroke-width="8"/>
<path d="M489.941 700.556L470.044 680.659L489.941 660.762" stroke="#F26A25" stroke-width="8"/>
<path d="M450.146 700.556L470.043 680.659L450.146 660.762" stroke="#F26A25" stroke-width="8"/>
<path d="M489.941 568.253L470.044 548.356L489.941 528.459" stroke="#F26A25" stroke-width="8"/>
<path d="M450.146 568.253L470.043 548.356L450.146 528.459" stroke="#F26A25" stroke-width="8"/>
<path d="M489.941 435.946L470.044 416.049L489.941 396.152" stroke="#F26A25" stroke-width="8"/>
<path d="M450.146 435.946L470.043 416.049L450.146 396.152" stroke="#F26A25" stroke-width="8"/>
<path d="M437.697 765.976L417.8 746.079L437.697 726.182" stroke="#F26A25" stroke-width="8"/>
<path d="M397.903 765.976L417.799 746.079L397.903 726.182" stroke="#F26A25" stroke-width="8"/>
<path d="M437.697 633.673L417.8 613.776L437.697 593.88" stroke="#F26A25" stroke-width="8"/>
<path d="M397.903 633.673L417.799 613.776L397.903 593.88" stroke="#F26A25" stroke-width="8"/>
<path d="M437.698 501.369L417.801 481.472L437.698 461.575" stroke="#F26A25" stroke-width="8"/>
<path d="M397.903 501.369L417.799 481.472L397.903 461.575" stroke="#F26A25" stroke-width="8"/>
<path d="M385.025 700.503L365.128 680.606L385.025 660.709" stroke="#F26A25" stroke-width="8"/>
<path d="M345.231 700.503L365.128 680.606L345.231 660.709" stroke="#F26A25" stroke-width="8"/>
<path d="M385.025 568.198L365.128 548.301L385.025 528.404" stroke="#F26A25" stroke-width="8"/>
<path d="M345.23 568.198L365.127 548.301L345.23 528.404" stroke="#F26A25" stroke-width="8"/>
<path d="M385.025 435.892L365.128 415.995L385.025 396.098" stroke="#F26A25" stroke-width="8"/>
<path d="M345.231 435.892L365.128 415.995L345.231 396.098" stroke="#F26A25" stroke-width="8"/>
<path d="M332.785 765.923L312.888 746.026L332.785 726.13" stroke="#F26A25" stroke-width="8"/>
<path d="M292.991 765.923L312.888 746.026L292.991 726.13" stroke="#F26A25" stroke-width="8"/>
<path d="M332.785 633.621L312.888 613.724L332.785 593.827" stroke="#F26A25" stroke-width="8"/>
<path d="M292.991 633.621L312.888 613.724L292.991 593.827" stroke="#F26A25" stroke-width="8"/>
<path d="M332.785 501.315L312.888 481.418L332.785 461.521" stroke="#F26A25" stroke-width="8"/>
<path d="M292.991 501.315L312.888 481.418L292.991 461.521" stroke="#F26A25" stroke-width="8"/>
<path d="M280.114 700.45L260.217 680.553L280.114 660.656" stroke="#F26A25" stroke-width="8"/>
<path d="M240.319 700.45L260.216 680.553L240.319 660.656" stroke="#F26A25" stroke-width="8"/>
<path d="M280.113 568.144L260.216 548.247L280.113 528.35" stroke="#F26A25" stroke-width="8"/>
<path d="M240.318 568.144L260.215 548.247L240.318 528.35" stroke="#F26A25" stroke-width="8"/>
<path d="M280.114 435.838L260.217 415.941L280.114 396.044" stroke="#F26A25" stroke-width="8"/>
<path d="M240.319 435.838L260.216 415.941L240.319 396.044" stroke="#F26A25" stroke-width="8"/>
<path d="M227.872 765.87L207.975 745.973L227.872 726.076" stroke="#F26A25" stroke-width="8"/>
<path d="M188.077 765.87L207.974 745.973L188.077 726.076" stroke="#F26A25" stroke-width="8"/>
<path d="M227.871 633.564L207.975 613.667L227.871 593.77" stroke="#F26A25" stroke-width="8"/>
<path d="M188.077 633.564L207.974 613.667L188.077 593.77" stroke="#F26A25" stroke-width="8"/>
<path d="M227.872 501.258L207.975 481.361L227.872 461.464" stroke="#F26A25" stroke-width="8"/>
<path d="M188.077 501.258L207.974 481.361L188.077 461.464" stroke="#F26A25" stroke-width="8"/>
<path d="M175.199 700.394L155.302 680.497L175.199 660.6" stroke="#F26A25" stroke-width="8"/>
<path d="M135.405 700.394L155.301 680.497L135.405 660.6" stroke="#F26A25" stroke-width="8"/>
<path d="M175.199 568.087L155.302 548.19L175.199 528.293" stroke="#F26A25" stroke-width="8"/>
<path d="M135.405 568.087L155.301 548.19L135.405 528.293" stroke="#F26A25" stroke-width="8"/>
<path d="M175.199 435.783L155.302 415.886L175.199 395.989" stroke="#F26A25" stroke-width="8"/>
<path d="M135.405 435.783L155.301 415.886L135.405 395.989" stroke="#F26A25" stroke-width="8"/>
<path d="M122.96 765.814L103.063 745.917L122.96 726.02" stroke="#F26A25" stroke-width="8"/>
<path d="M83.1649 765.814L103.062 745.917L83.1649 726.02" stroke="#F26A25" stroke-width="8"/>
<path d="M122.96 633.51L103.063 613.613L122.96 593.716" stroke="#F26A25" stroke-width="8"/>
<path d="M83.1649 633.51L103.062 613.613L83.1649 593.716" stroke="#F26A25" stroke-width="8"/>
<path d="M122.96 501.205L103.063 481.309L122.96 461.412" stroke="#F26A25" stroke-width="8"/>
<path d="M83.1649 501.205L103.062 481.309L83.1649 461.412" stroke="#F26A25" stroke-width="8"/>
<path d="M70.2876 700.34L50.3907 680.443L70.2876 660.546" stroke="#F26A25" stroke-width="8"/>
<path d="M30.4928 700.34L50.3897 680.443L30.4928 660.546" stroke="#F26A25" stroke-width="8"/>
<path d="M70.2876 568.034L50.3907 548.137L70.2876 528.24" stroke="#F26A25" stroke-width="8"/>
<path d="M30.4928 568.034L50.3897 548.137L30.4928 528.24" stroke="#F26A25" stroke-width="8"/>
<path d="M70.2876 435.729L50.3907 415.832L70.2876 395.935" stroke="#F26A25" stroke-width="8"/>
<path d="M30.4928 435.729L50.3897 415.832L30.4928 395.935" stroke="#F26A25" stroke-width="8"/>
</g>
<mask id="mask3_94_2347" style="mask-type:alpha" maskUnits="userSpaceOnUse" x="0" y="1040" width="1937" height="386">
<rect x="1936.28" y="1425" width="1936.28" height="384.774" transform="rotate(180 1936.28 1425)" fill="url(#paint3_linear_94_2347)"/>
</mask>
<g mask="url(#mask3_94_2347)">
<path d="M1906.48 1431.68L1886.59 1411.79L1906.48 1391.89" stroke="#F26A25" stroke-width="8"/>
<path d="M1866.69 1431.68L1886.59 1411.79L1866.69 1391.89" stroke="#F26A25" stroke-width="8"/>
<path d="M1906.49 1299.38L1886.59 1279.48L1906.49 1259.58" stroke="#F26A25" stroke-width="8"/>
<path d="M1866.69 1299.38L1886.59 1279.48L1866.69 1259.58" stroke="#F26A25" stroke-width="8"/>
<path d="M1906.48 1167.07L1886.59 1147.18L1906.48 1127.28" stroke="#F26A25" stroke-width="8"/>
<path d="M1866.69 1167.07L1886.59 1147.18L1866.69 1127.28" stroke="#F26A25" stroke-width="8"/>
<path d="M1853.82 1366.21L1833.92 1346.31L1853.82 1326.41" stroke="#F26A25" stroke-width="8"/>
<path d="M1814.02 1366.21L1833.92 1346.31L1814.02 1326.41" stroke="#F26A25" stroke-width="8"/>
<path d="M1853.81 1233.9L1833.92 1214.01L1853.81 1194.11" stroke="#F26A25" stroke-width="8"/>
<path d="M1814.02 1233.9L1833.92 1214.01L1814.02 1194.11" stroke="#F26A25" stroke-width="8"/>
<path d="M1853.82 1101.6L1833.92 1081.7L1853.82 1061.8" stroke="#F26A25" stroke-width="8"/>
<path d="M1814.02 1101.6L1833.92 1081.7L1814.02 1061.8" stroke="#F26A25" stroke-width="8"/>
<path d="M1801.57 1431.68L1781.67 1411.79L1801.57 1391.89" stroke="#F26A25" stroke-width="8"/>
<path d="M1761.78 1431.68L1781.67 1411.79L1761.78 1391.89" stroke="#F26A25" stroke-width="8"/>
<path d="M1801.57 1299.38L1781.67 1279.48L1801.57 1259.58" stroke="#F26A25" stroke-width="8"/>
<path d="M1761.78 1299.38L1781.67 1279.48L1761.78 1259.58" stroke="#F26A25" stroke-width="8"/>
<path d="M1801.57 1167.07L1781.67 1147.18L1801.57 1127.28" stroke="#F26A25" stroke-width="8"/>
<path d="M1761.78 1167.07L1781.67 1147.18L1761.78 1127.28" stroke="#F26A25" stroke-width="8"/>
<path d="M1748.9 1366.21L1729 1346.31L1748.9 1326.41" stroke="#F26A25" stroke-width="8"/>
<path d="M1709.11 1366.21L1729 1346.31L1709.11 1326.41" stroke="#F26A25" stroke-width="8"/>
<path d="M1748.9 1233.9L1729 1214.01L1748.9 1194.11" stroke="#F26A25" stroke-width="8"/>
<path d="M1709.11 1233.9L1729 1214.01L1709.11 1194.11" stroke="#F26A25" stroke-width="8"/>
<path d="M1748.9 1101.6L1729 1081.7L1748.9 1061.8" stroke="#F26A25" stroke-width="8"/>
<path d="M1709.11 1101.6L1729 1081.7L1709.11 1061.8" stroke="#F26A25" stroke-width="8"/>
<path d="M1696.66 1431.63L1676.76 1411.73L1696.66 1391.83" stroke="#F26A25" stroke-width="8"/>
<path d="M1656.86 1431.63L1676.76 1411.73L1656.86 1391.83" stroke="#F26A25" stroke-width="8"/>
<path d="M1696.66 1299.33L1676.76 1279.43L1696.66 1259.53" stroke="#F26A25" stroke-width="8"/>
<path d="M1656.86 1299.33L1676.76 1279.43L1656.86 1259.53" stroke="#F26A25" stroke-width="8"/>
<path d="M1696.66 1167.02L1676.76 1147.12L1696.66 1127.23" stroke="#F26A25" stroke-width="8"/>
<path d="M1656.86 1167.02L1676.76 1147.12L1656.86 1127.23" stroke="#F26A25" stroke-width="8"/>
<path d="M1643.99 1366.16L1624.09 1346.26L1643.99 1326.36" stroke="#F26A25" stroke-width="8"/>
<path d="M1604.19 1366.16L1624.09 1346.26L1604.19 1326.36" stroke="#F26A25" stroke-width="8"/>
<path d="M1643.99 1233.85L1624.09 1213.95L1643.99 1194.06" stroke="#F26A25" stroke-width="8"/>
<path d="M1604.19 1233.85L1624.09 1213.95L1604.19 1194.06" stroke="#F26A25" stroke-width="8"/>
<path d="M1643.99 1101.54L1624.09 1081.65L1643.99 1061.75" stroke="#F26A25" stroke-width="8"/>
<path d="M1604.19 1101.54L1624.09 1081.65L1604.19 1061.75" stroke="#F26A25" stroke-width="8"/>
<path d="M1591.75 1431.58L1571.85 1411.68L1591.75 1391.78" stroke="#F26A25" stroke-width="8"/>
<path d="M1551.95 1431.58L1571.85 1411.68L1551.95 1391.78" stroke="#F26A25" stroke-width="8"/>
<path d="M1591.75 1299.27L1571.85 1279.37L1591.75 1259.48" stroke="#F26A25" stroke-width="8"/>
<path d="M1551.95 1299.27L1571.85 1279.37L1551.95 1259.48" stroke="#F26A25" stroke-width="8"/>
<path d="M1591.75 1166.96L1571.85 1147.07L1591.75 1127.17" stroke="#F26A25" stroke-width="8"/>
<path d="M1551.95 1166.96L1571.85 1147.07L1551.95 1127.17" stroke="#F26A25" stroke-width="8"/>
<path d="M1539.07 1366.1L1519.18 1346.2L1539.07 1326.3" stroke="#F26A25" stroke-width="8"/>
<path d="M1499.28 1366.1L1519.18 1346.2L1499.28 1326.3" stroke="#F26A25" stroke-width="8"/>
<path d="M1539.07 1233.79L1519.18 1213.9L1539.07 1194" stroke="#F26A25" stroke-width="8"/>
<path d="M1499.28 1233.79L1519.18 1213.9L1499.28 1194" stroke="#F26A25" stroke-width="8"/>
<path d="M1539.07 1101.49L1519.18 1081.59L1539.07 1061.69" stroke="#F26A25" stroke-width="8"/>
<path d="M1499.28 1101.49L1519.18 1081.59L1499.28 1061.69" stroke="#F26A25" stroke-width="8"/>
<path d="M1486.83 1431.52L1466.94 1411.62L1486.83 1391.73" stroke="#F26A25" stroke-width="8"/>
<path d="M1447.04 1431.52L1466.93 1411.62L1447.04 1391.73" stroke="#F26A25" stroke-width="8"/>
<path d="M1486.83 1299.22L1466.94 1279.32L1486.83 1259.42" stroke="#F26A25" stroke-width="8"/>
<path d="M1447.04 1299.22L1466.93 1279.32L1447.04 1259.42" stroke="#F26A25" stroke-width="8"/>
<path d="M1486.83 1166.91L1466.94 1147.01L1486.83 1127.12" stroke="#F26A25" stroke-width="8"/>
<path d="M1447.04 1166.91L1466.93 1147.01L1447.04 1127.12" stroke="#F26A25" stroke-width="8"/>
<path d="M1434.16 1366.04L1414.26 1346.15L1434.16 1326.25" stroke="#F26A25" stroke-width="8"/>
<path d="M1394.37 1366.04L1414.26 1346.15L1394.37 1326.25" stroke="#F26A25" stroke-width="8"/>
<path d="M1434.16 1233.74L1414.26 1213.84L1434.16 1193.95" stroke="#F26A25" stroke-width="8"/>
<path d="M1394.37 1233.74L1414.26 1213.84L1394.37 1193.95" stroke="#F26A25" stroke-width="8"/>
<path d="M1434.16 1101.43L1414.26 1081.54L1434.16 1061.64" stroke="#F26A25" stroke-width="8"/>
<path d="M1394.37 1101.43L1414.26 1081.54L1394.37 1061.64" stroke="#F26A25" stroke-width="8"/>
<path d="M1381.92 1431.47L1362.02 1411.57L1381.92 1391.67" stroke="#F26A25" stroke-width="8"/>
<path d="M1342.12 1431.47L1362.02 1411.57L1342.12 1391.67" stroke="#F26A25" stroke-width="8"/>
<path d="M1381.92 1299.16L1362.02 1279.26L1381.92 1259.37" stroke="#F26A25" stroke-width="8"/>
<path d="M1342.12 1299.16L1362.02 1279.26L1342.12 1259.37" stroke="#F26A25" stroke-width="8"/>
<path d="M1381.92 1166.86L1362.02 1146.96L1381.92 1127.06" stroke="#F26A25" stroke-width="8"/>
<path d="M1342.12 1166.86L1362.02 1146.96L1342.12 1127.06" stroke="#F26A25" stroke-width="8"/>
<path d="M1329.25 1365.99L1309.35 1346.09L1329.25 1326.19" stroke="#F26A25" stroke-width="8"/>
<path d="M1289.45 1365.99L1309.35 1346.09L1289.45 1326.19" stroke="#F26A25" stroke-width="8"/>
<path d="M1329.25 1233.69L1309.35 1213.79L1329.25 1193.89" stroke="#F26A25" stroke-width="8"/>
<path d="M1289.45 1233.69L1309.35 1213.79L1289.45 1193.89" stroke="#F26A25" stroke-width="8"/>
<path d="M1329.25 1101.38L1309.35 1081.48L1329.25 1061.59" stroke="#F26A25" stroke-width="8"/>
<path d="M1289.45 1101.38L1309.35 1081.48L1289.45 1061.59" stroke="#F26A25" stroke-width="8"/>
<path d="M1277.01 1431.41L1257.11 1411.52L1277.01 1391.62" stroke="#F26A25" stroke-width="8"/>
<path d="M1237.21 1431.41L1257.11 1411.52L1237.21 1391.62" stroke="#F26A25" stroke-width="8"/>
<path d="M1277.01 1299.11L1257.11 1279.21L1277.01 1259.31" stroke="#F26A25" stroke-width="8"/>
<path d="M1237.21 1299.11L1257.11 1279.21L1237.21 1259.31" stroke="#F26A25" stroke-width="8"/>
<path d="M1277.01 1166.8L1257.11 1146.91L1277.01 1127.01" stroke="#F26A25" stroke-width="8"/>
<path d="M1237.21 1166.8L1257.11 1146.91L1237.21 1127.01" stroke="#F26A25" stroke-width="8"/>
<path d="M1224.33 1365.94L1204.44 1346.04L1224.33 1326.14" stroke="#F26A25" stroke-width="8"/>
<path d="M1184.54 1365.94L1204.43 1346.04L1184.54 1326.14" stroke="#F26A25" stroke-width="8"/>
<path d="M1224.33 1233.63L1204.44 1213.74L1224.33 1193.84" stroke="#F26A25" stroke-width="8"/>
<path d="M1184.54 1233.63L1204.44 1213.74L1184.54 1193.84" stroke="#F26A25" stroke-width="8"/>
<path d="M1224.33 1101.33L1204.44 1081.43L1224.33 1061.53" stroke="#F26A25" stroke-width="8"/>
<path d="M1184.54 1101.33L1204.44 1081.43L1184.54 1061.53" stroke="#F26A25" stroke-width="8"/>
<path d="M1172.09 1431.36L1152.19 1411.46L1172.09 1391.56" stroke="#F26A25" stroke-width="8"/>
<path d="M1132.3 1431.36L1152.19 1411.46L1132.3 1391.56" stroke="#F26A25" stroke-width="8"/>
<path d="M1172.09 1299.05L1152.2 1279.16L1172.09 1259.26" stroke="#F26A25" stroke-width="8"/>
<path d="M1132.3 1299.05L1152.19 1279.16L1132.3 1259.26" stroke="#F26A25" stroke-width="8"/>
<path d="M1172.09 1166.75L1152.19 1146.85L1172.09 1126.95" stroke="#F26A25" stroke-width="8"/>
<path d="M1132.3 1166.75L1152.19 1146.85L1132.3 1126.95" stroke="#F26A25" stroke-width="8"/>
<path d="M1119.42 1365.88L1099.52 1345.99L1119.42 1326.09" stroke="#F26A25" stroke-width="8"/>
<path d="M1079.63 1365.88L1099.52 1345.99L1079.63 1326.09" stroke="#F26A25" stroke-width="8"/>
<path d="M1119.42 1233.58L1099.52 1213.68L1119.42 1193.78" stroke="#F26A25" stroke-width="8"/>
<path d="M1079.63 1233.58L1099.52 1213.68L1079.63 1193.78" stroke="#F26A25" stroke-width="8"/>
<path d="M1119.42 1101.27L1099.52 1081.38L1119.42 1061.48" stroke="#F26A25" stroke-width="8"/>
<path d="M1079.63 1101.27L1099.52 1081.38L1079.63 1061.48" stroke="#F26A25" stroke-width="8"/>
<path d="M1067.18 1431.31L1047.28 1411.41L1067.18 1391.51" stroke="#F26A25" stroke-width="8"/>
<path d="M1027.38 1431.31L1047.28 1411.41L1027.38 1391.51" stroke="#F26A25" stroke-width="8"/>
<path d="M1067.18 1299L1047.28 1279.1L1067.18 1259.2" stroke="#F26A25" stroke-width="8"/>
<path d="M1027.38 1299L1047.28 1279.1L1027.38 1259.2" stroke="#F26A25" stroke-width="8"/>
<path d="M1067.18 1166.69L1047.28 1146.8L1067.18 1126.9" stroke="#F26A25" stroke-width="8"/>
<path d="M1027.39 1166.69L1047.28 1146.8L1027.39 1126.9" stroke="#F26A25" stroke-width="8"/>
<path d="M1014.51 1365.83L994.61 1345.93L1014.51 1326.03" stroke="#F26A25" stroke-width="8"/>
<path d="M974.712 1365.83L994.609 1345.93L974.712 1326.03" stroke="#F26A25" stroke-width="8"/>
<path d="M1014.51 1233.52L994.61 1213.62L1014.51 1193.73" stroke="#F26A25" stroke-width="8"/>
<path d="M974.712 1233.52L994.609 1213.62L974.712 1193.73" stroke="#F26A25" stroke-width="8"/>
<path d="M1014.51 1101.22L994.61 1081.32L1014.51 1061.42" stroke="#F26A25" stroke-width="8"/>
<path d="M974.712 1101.22L994.609 1081.32L974.712 1061.42" stroke="#F26A25" stroke-width="8"/>
<path d="M962.264 1431.25L942.367 1411.35L962.264 1391.46" stroke="#F26A25" stroke-width="8"/>
<path d="M922.47 1431.25L942.367 1411.35L922.47 1391.46" stroke="#F26A25" stroke-width="8"/>
<path d="M962.264 1298.94L942.367 1279.05L962.264 1259.15" stroke="#F26A25" stroke-width="8"/>
<path d="M922.47 1298.94L942.367 1279.05L922.47 1259.15" stroke="#F26A25" stroke-width="8"/>
<path d="M962.264 1166.64L942.367 1146.74L962.264 1126.84" stroke="#F26A25" stroke-width="8"/>
<path d="M922.47 1166.64L942.367 1146.74L922.47 1126.84" stroke="#F26A25" stroke-width="8"/>
<path d="M909.594 1365.77L889.697 1345.88L909.594 1325.98" stroke="#F26A25" stroke-width="8"/>
<path d="M869.8 1365.77L889.696 1345.88L869.8 1325.98" stroke="#F26A25" stroke-width="8"/>
<path d="M909.594 1233.47L889.697 1213.57L909.594 1193.67" stroke="#F26A25" stroke-width="8"/>
<path d="M869.8 1233.47L889.696 1213.57L869.8 1193.67" stroke="#F26A25" stroke-width="8"/>
<path d="M909.592 1101.16L889.695 1081.27L909.592 1061.37" stroke="#F26A25" stroke-width="8"/>
<path d="M869.798 1101.16L889.695 1081.27L869.798 1061.37" stroke="#F26A25" stroke-width="8"/>
<path d="M857.352 1431.19L837.455 1411.3L857.352 1391.4" stroke="#F26A25" stroke-width="8"/>
<path d="M817.557 1431.19L837.454 1411.3L817.557 1391.4" stroke="#F26A25" stroke-width="8"/>
<path d="M857.352 1298.89L837.455 1278.99L857.352 1259.1" stroke="#F26A25" stroke-width="8"/>
<path d="M817.557 1298.89L837.454 1278.99L817.557 1259.1" stroke="#F26A25" stroke-width="8"/>
<path d="M857.352 1166.59L837.455 1146.69L857.352 1126.79" stroke="#F26A25" stroke-width="8"/>
<path d="M817.557 1166.59L837.454 1146.69L817.557 1126.79" stroke="#F26A25" stroke-width="8"/>
<path d="M804.68 1365.72L784.783 1345.82L804.68 1325.92" stroke="#F26A25" stroke-width="8"/>
<path d="M764.885 1365.72L784.782 1345.82L764.885 1325.92" stroke="#F26A25" stroke-width="8"/>
<path d="M804.68 1233.41L784.783 1213.52L804.68 1193.62" stroke="#F26A25" stroke-width="8"/>
<path d="M764.885 1233.41L784.782 1213.52L764.885 1193.62" stroke="#F26A25" stroke-width="8"/>
<path d="M804.68 1101.11L784.783 1081.21L804.68 1061.31" stroke="#F26A25" stroke-width="8"/>
<path d="M764.885 1101.11L784.782 1081.21L764.885 1061.31" stroke="#F26A25" stroke-width="8"/>
<path d="M752.439 1431.14L732.542 1411.24L752.439 1391.35" stroke="#F26A25" stroke-width="8"/>
<path d="M712.644 1431.14L732.541 1411.24L712.644 1391.35" stroke="#F26A25" stroke-width="8"/>
<path d="M752.439 1298.84L732.542 1278.94L752.439 1259.04" stroke="#F26A25" stroke-width="8"/>
<path d="M712.644 1298.84L732.541 1278.94L712.644 1259.04" stroke="#F26A25" stroke-width="8"/>
<path d="M752.439 1166.53L732.542 1146.64L752.439 1126.74" stroke="#F26A25" stroke-width="8"/>
<path d="M712.644 1166.53L732.541 1146.64L712.644 1126.74" stroke="#F26A25" stroke-width="8"/>
<path d="M699.766 1365.66L679.869 1345.77L699.766 1325.87" stroke="#F26A25" stroke-width="8"/>
<path d="M659.972 1365.66L679.869 1345.77L659.972 1325.87" stroke="#F26A25" stroke-width="8"/>
<path d="M699.766 1233.36L679.869 1213.46L699.766 1193.56" stroke="#F26A25" stroke-width="8"/>
<path d="M659.972 1233.36L679.869 1213.46L659.972 1193.56" stroke="#F26A25" stroke-width="8"/>
<path d="M699.766 1101.06L679.869 1081.16L699.766 1061.26" stroke="#F26A25" stroke-width="8"/>
<path d="M659.972 1101.06L679.869 1081.16L659.972 1061.26" stroke="#F26A25" stroke-width="8"/>
<path d="M647.526 1431.09L627.629 1411.19L647.526 1391.29" stroke="#F26A25" stroke-width="8"/>
<path d="M607.731 1431.09L627.628 1411.19L607.731 1391.29" stroke="#F26A25" stroke-width="8"/>
<path d="M647.526 1298.78L627.629 1278.88L647.526 1258.99" stroke="#F26A25" stroke-width="8"/>
<path d="M607.731 1298.78L627.628 1278.88L607.731 1258.99" stroke="#F26A25" stroke-width="8"/>
<path d="M647.526 1166.48L627.629 1146.58L647.526 1126.68" stroke="#F26A25" stroke-width="8"/>
<path d="M607.731 1166.48L627.628 1146.58L607.731 1126.68" stroke="#F26A25" stroke-width="8"/>
<path d="M594.853 1365.61L574.956 1345.71L594.853 1325.82" stroke="#F26A25" stroke-width="8"/>
<path d="M555.058 1365.61L574.955 1345.71L555.058 1325.82" stroke="#F26A25" stroke-width="8"/>
<path d="M594.854 1233.3L574.957 1213.41L594.854 1193.51" stroke="#F26A25" stroke-width="8"/>
<path d="M555.059 1233.3L574.956 1213.41L555.059 1193.51" stroke="#F26A25" stroke-width="8"/>
<path d="M594.853 1101L574.956 1081.1L594.853 1061.21" stroke="#F26A25" stroke-width="8"/>
<path d="M555.058 1101L574.955 1081.1L555.058 1061.21" stroke="#F26A25" stroke-width="8"/>
<path d="M542.613 1431.03L522.716 1411.14L542.613 1391.24" stroke="#F26A25" stroke-width="8"/>
<path d="M502.818 1431.03L522.715 1411.14L502.818 1391.24" stroke="#F26A25" stroke-width="8"/>
<path d="M542.613 1298.73L522.716 1278.83L542.613 1258.93" stroke="#F26A25" stroke-width="8"/>
<path d="M502.818 1298.73L522.715 1278.83L502.818 1258.93" stroke="#F26A25" stroke-width="8"/>
<path d="M542.613 1166.42L522.716 1146.53L542.613 1126.63" stroke="#F26A25" stroke-width="8"/>
<path d="M502.818 1166.42L522.715 1146.53L502.818 1126.63" stroke="#F26A25" stroke-width="8"/>
<path d="M489.941 1365.56L470.044 1345.66L489.941 1325.76" stroke="#F26A25" stroke-width="8"/>
<path d="M450.146 1365.56L470.043 1345.66L450.146 1325.76" stroke="#F26A25" stroke-width="8"/>
<path d="M489.941 1233.25L470.044 1213.36L489.941 1193.46" stroke="#F26A25" stroke-width="8"/>
<path d="M450.146 1233.25L470.043 1213.36L450.146 1193.46" stroke="#F26A25" stroke-width="8"/>
<path d="M489.941 1100.95L470.044 1081.05L489.941 1061.15" stroke="#F26A25" stroke-width="8"/>
<path d="M450.146 1100.95L470.043 1081.05L450.146 1061.15" stroke="#F26A25" stroke-width="8"/>
<path d="M437.697 1430.98L417.8 1411.08L437.697 1391.18" stroke="#F26A25" stroke-width="8"/>
<path d="M397.903 1430.98L417.799 1411.08L397.903 1391.18" stroke="#F26A25" stroke-width="8"/>
<path d="M437.697 1298.67L417.8 1278.78L437.697 1258.88" stroke="#F26A25" stroke-width="8"/>
<path d="M397.903 1298.67L417.799 1278.78L397.903 1258.88" stroke="#F26A25" stroke-width="8"/>
<path d="M437.698 1166.37L417.801 1146.47L437.698 1126.58" stroke="#F26A25" stroke-width="8"/>
<path d="M397.903 1166.37L417.799 1146.47L397.903 1126.58" stroke="#F26A25" stroke-width="8"/>
<path d="M385.025 1365.5L365.128 1345.61L385.025 1325.71" stroke="#F26A25" stroke-width="8"/>
<path d="M345.231 1365.5L365.128 1345.61L345.231 1325.71" stroke="#F26A25" stroke-width="8"/>
<path d="M385.025 1233.2L365.128 1213.3L385.025 1193.4" stroke="#F26A25" stroke-width="8"/>
<path d="M345.23 1233.2L365.127 1213.3L345.23 1193.4" stroke="#F26A25" stroke-width="8"/>
<path d="M385.025 1100.89L365.128 1080.99L385.025 1061.1" stroke="#F26A25" stroke-width="8"/>
<path d="M345.231 1100.89L365.128 1080.99L345.231 1061.1" stroke="#F26A25" stroke-width="8"/>
<path d="M332.785 1430.92L312.888 1411.03L332.785 1391.13" stroke="#F26A25" stroke-width="8"/>
<path d="M292.991 1430.92L312.888 1411.03L292.991 1391.13" stroke="#F26A25" stroke-width="8"/>
<path d="M332.785 1298.62L312.888 1278.72L332.785 1258.83" stroke="#F26A25" stroke-width="8"/>
<path d="M292.991 1298.62L312.888 1278.72L292.991 1258.83" stroke="#F26A25" stroke-width="8"/>
<path d="M332.785 1166.31L312.888 1146.42L332.785 1126.52" stroke="#F26A25" stroke-width="8"/>
<path d="M292.991 1166.31L312.888 1146.42L292.991 1126.52" stroke="#F26A25" stroke-width="8"/>
<path d="M280.114 1365.45L260.217 1345.55L280.114 1325.66" stroke="#F26A25" stroke-width="8"/>
<path d="M240.319 1365.45L260.216 1345.55L240.319 1325.66" stroke="#F26A25" stroke-width="8"/>
<path d="M280.113 1233.14L260.216 1213.25L280.113 1193.35" stroke="#F26A25" stroke-width="8"/>
<path d="M240.318 1233.14L260.215 1213.25L240.318 1193.35" stroke="#F26A25" stroke-width="8"/>
<path d="M280.114 1100.84L260.217 1080.94L280.114 1061.04" stroke="#F26A25" stroke-width="8"/>
<path d="M240.319 1100.84L260.216 1080.94L240.319 1061.04" stroke="#F26A25" stroke-width="8"/>
<path d="M227.872 1430.87L207.975 1410.97L227.872 1391.08" stroke="#F26A25" stroke-width="8"/>
<path d="M188.077 1430.87L207.974 1410.97L188.077 1391.08" stroke="#F26A25" stroke-width="8"/>
<path d="M227.871 1298.56L207.975 1278.67L227.871 1258.77" stroke="#F26A25" stroke-width="8"/>
<path d="M188.077 1298.56L207.974 1278.67L188.077 1258.77" stroke="#F26A25" stroke-width="8"/>
<path d="M227.872 1166.26L207.975 1146.36L227.872 1126.46" stroke="#F26A25" stroke-width="8"/>
<path d="M188.077 1166.26L207.974 1146.36L188.077 1126.46" stroke="#F26A25" stroke-width="8"/>
<path d="M175.199 1365.39L155.302 1345.5L175.199 1325.6" stroke="#F26A25" stroke-width="8"/>
<path d="M135.405 1365.39L155.301 1345.5L135.405 1325.6" stroke="#F26A25" stroke-width="8"/>
<path d="M175.199 1233.09L155.302 1213.19L175.199 1193.29" stroke="#F26A25" stroke-width="8"/>
<path d="M135.405 1233.09L155.301 1213.19L135.405 1193.29" stroke="#F26A25" stroke-width="8"/>
<path d="M175.199 1100.78L155.302 1080.89L175.199 1060.99" stroke="#F26A25" stroke-width="8"/>
<path d="M135.405 1100.78L155.301 1080.89L135.405 1060.99" stroke="#F26A25" stroke-width="8"/>
<path d="M122.96 1430.81L103.063 1410.92L122.96 1391.02" stroke="#F26A25" stroke-width="8"/>
<path d="M83.1649 1430.81L103.062 1410.92L83.1649 1391.02" stroke="#F26A25" stroke-width="8"/>
<path d="M122.96 1298.51L103.063 1278.61L122.96 1258.72" stroke="#F26A25" stroke-width="8"/>
<path d="M83.1649 1298.51L103.062 1278.61L83.1649 1258.72" stroke="#F26A25" stroke-width="8"/>
<path d="M122.96 1166.21L103.063 1146.31L122.96 1126.41" stroke="#F26A25" stroke-width="8"/>
<path d="M83.1649 1166.21L103.062 1146.31L83.1649 1126.41" stroke="#F26A25" stroke-width="8"/>
<path d="M70.2876 1365.34L50.3907 1345.44L70.2876 1325.55" stroke="#F26A25" stroke-width="8"/>
<path d="M30.4928 1365.34L50.3897 1345.44L30.4928 1325.55" stroke="#F26A25" stroke-width="8"/>
<path d="M70.2876 1233.03L50.3907 1213.14L70.2876 1193.24" stroke="#F26A25" stroke-width="8"/>
<path d="M30.4928 1233.03L50.3897 1213.14L30.4928 1193.24" stroke="#F26A25" stroke-width="8"/>
<path d="M70.2876 1100.73L50.3907 1080.83L70.2876 1060.93" stroke="#F26A25" stroke-width="8"/>
<path d="M30.4928 1100.73L50.3897 1080.83L30.4928 1060.93" stroke="#F26A25" stroke-width="8"/>
</g>
<defs>
<linearGradient id="paint0_linear_94_2347" x1="968.142" y1="0" x2="968.142" y2="762.965" gradientUnits="userSpaceOnUse">
<stop stop-color="#D9D9D9" stop-opacity="0"/>
<stop offset="1" stop-color="#EC2227"/>
</linearGradient>
<linearGradient id="paint1_linear_94_2347" x1="968.142" y1="665" x2="968.142" y2="1427.97" gradientUnits="userSpaceOnUse">
<stop stop-color="#D9D9D9" stop-opacity="0"/>
<stop offset="1" stop-color="#EC2227"/>
</linearGradient>
<linearGradient id="paint2_linear_94_2347" x1="2904.43" y1="760" x2="2904.43" y2="1522.97" gradientUnits="userSpaceOnUse">
<stop stop-color="#D9D9D9" stop-opacity="0"/>
<stop offset="1" stop-color="#D9D9D9"/>
</linearGradient>
<linearGradient id="paint3_linear_94_2347" x1="2904.43" y1="1425" x2="2904.43" y2="2187.97" gradientUnits="userSpaceOnUse">
<stop stop-color="#D9D9D9" stop-opacity="0"/>
<stop offset="1" stop-color="#D9D9D9"/>
</linearGradient>
</defs>
</svg>
