<svg width="1941" height="1057" viewBox="0 0 1941 1057" fill="none" xmlns="http://www.w3.org/2000/svg">
<mask id="mask0_94_1038" style="mask-type:alpha" maskUnits="userSpaceOnUse" x="4" y="0" width="1937" height="385">
<rect x="4" width="1936.28" height="384.774" fill="url(#paint0_linear_94_1038)"/>
</mask>
<g mask="url(#mask0_94_1038)">
<path d="M33.8 -6.68481L53.697 13.2121L33.8 33.109" stroke="#F26A25" stroke-width="8"/>
<path d="M73.5948 -6.68481L53.6979 13.2121L73.5948 33.109" stroke="#F26A25" stroke-width="8"/>
<path d="M33.7996 125.621L53.6965 145.518L33.7996 165.415" stroke="#F26A25" stroke-width="8"/>
<path d="M73.5956 125.621L53.6987 145.518L73.5956 165.415" stroke="#F26A25" stroke-width="8"/>
<path d="M33.8 257.925L53.697 277.822L33.8 297.719" stroke="#F26A25" stroke-width="8"/>
<path d="M73.5948 257.925L53.6979 277.822L73.5948 297.719" stroke="#F26A25" stroke-width="8"/>
<path d="M86.4703 58.7921L106.367 78.689L86.4703 98.5859" stroke="#F26A25" stroke-width="8"/>
<path d="M126.265 58.7921L106.368 78.689L126.265 98.5859" stroke="#F26A25" stroke-width="8"/>
<path d="M86.4703 191.098L106.367 210.995L86.4703 230.892" stroke="#F26A25" stroke-width="8"/>
<path d="M126.265 191.098L106.368 210.995L126.265 230.892" stroke="#F26A25" stroke-width="8"/>
<path d="M86.4703 323.402L106.367 343.299L86.4703 363.196" stroke="#F26A25" stroke-width="8"/>
<path d="M126.265 323.402L106.368 343.299L126.265 363.196" stroke="#F26A25" stroke-width="8"/>
<path d="M138.713 -6.68481L158.61 13.2121L138.713 33.109" stroke="#F26A25" stroke-width="8"/>
<path d="M178.508 -6.68481L158.611 13.2121L178.508 33.109" stroke="#F26A25" stroke-width="8"/>
<path d="M138.713 125.621L158.61 145.518L138.713 165.415" stroke="#F26A25" stroke-width="8"/>
<path d="M178.509 125.621L158.612 145.518L178.509 165.415" stroke="#F26A25" stroke-width="8"/>
<path d="M138.713 257.925L158.61 277.822L138.713 297.719" stroke="#F26A25" stroke-width="8"/>
<path d="M178.508 257.925L158.611 277.822L178.508 297.719" stroke="#F26A25" stroke-width="8"/>
<path d="M191.385 58.7921L211.282 78.689L191.385 98.5859" stroke="#F26A25" stroke-width="8"/>
<path d="M231.18 58.7921L211.283 78.689L231.18 98.5859" stroke="#F26A25" stroke-width="8"/>
<path d="M191.385 191.098L211.282 210.994L191.385 230.891" stroke="#F26A25" stroke-width="8"/>
<path d="M231.18 191.098L211.283 210.994L231.18 230.891" stroke="#F26A25" stroke-width="8"/>
<path d="M191.385 323.402L211.282 343.299L191.385 363.196" stroke="#F26A25" stroke-width="8"/>
<path d="M231.18 323.402L211.283 343.299L231.18 363.196" stroke="#F26A25" stroke-width="8"/>
<path d="M243.626 -6.62781L263.523 13.2691L243.626 33.166" stroke="#F26A25" stroke-width="8"/>
<path d="M283.421 -6.62781L263.524 13.2691L283.421 33.166" stroke="#F26A25" stroke-width="8"/>
<path d="M243.626 125.675L263.523 145.572L243.626 165.469" stroke="#F26A25" stroke-width="8"/>
<path d="M283.421 125.675L263.524 145.572L283.421 165.469" stroke="#F26A25" stroke-width="8"/>
<path d="M243.626 257.979L263.523 277.876L243.626 297.773" stroke="#F26A25" stroke-width="8"/>
<path d="M283.421 257.979L263.524 277.876L283.421 297.773" stroke="#F26A25" stroke-width="8"/>
<path d="M296.297 58.8447L316.194 78.7416L296.297 98.6385" stroke="#F26A25" stroke-width="8"/>
<path d="M336.092 58.8447L316.195 78.7416L336.092 98.6385" stroke="#F26A25" stroke-width="8"/>
<path d="M296.297 191.15L316.194 211.047L296.297 230.944" stroke="#F26A25" stroke-width="8"/>
<path d="M336.092 191.15L316.195 211.047L336.092 230.944" stroke="#F26A25" stroke-width="8"/>
<path d="M296.297 323.456L316.194 343.353L296.297 363.25" stroke="#F26A25" stroke-width="8"/>
<path d="M336.092 323.456L316.195 343.353L336.092 363.25" stroke="#F26A25" stroke-width="8"/>
<path d="M348.539 -6.57556L368.436 13.3213L348.539 33.2183" stroke="#F26A25" stroke-width="8"/>
<path d="M388.335 -6.57556L368.438 13.3213L388.335 33.2183" stroke="#F26A25" stroke-width="8"/>
<path d="M348.539 125.73L368.436 145.627L348.539 165.524" stroke="#F26A25" stroke-width="8"/>
<path d="M388.334 125.73L368.437 145.627L388.334 165.524" stroke="#F26A25" stroke-width="8"/>
<path d="M348.539 258.036L368.436 277.933L348.539 297.83" stroke="#F26A25" stroke-width="8"/>
<path d="M388.333 258.036L368.437 277.933L388.333 297.83" stroke="#F26A25" stroke-width="8"/>
<path d="M401.211 58.9012L421.108 78.7982L401.211 98.6951" stroke="#F26A25" stroke-width="8"/>
<path d="M441.006 58.9012L421.109 78.7982L441.006 98.6951" stroke="#F26A25" stroke-width="8"/>
<path d="M401.211 191.206L421.108 211.103L401.211 231" stroke="#F26A25" stroke-width="8"/>
<path d="M441.006 191.206L421.109 211.103L441.006 231" stroke="#F26A25" stroke-width="8"/>
<path d="M401.211 323.512L421.108 343.409L401.211 363.306" stroke="#F26A25" stroke-width="8"/>
<path d="M441.006 323.512L421.109 343.409L441.006 363.306" stroke="#F26A25" stroke-width="8"/>
<path d="M453.453 -6.52148L473.35 13.3754L453.453 33.2723" stroke="#F26A25" stroke-width="8"/>
<path d="M493.248 -6.52148L473.351 13.3754L493.248 33.2723" stroke="#F26A25" stroke-width="8"/>
<path d="M453.451 125.784L473.348 145.681L453.451 165.578" stroke="#F26A25" stroke-width="8"/>
<path d="M493.247 125.784L473.351 145.681L493.247 165.578" stroke="#F26A25" stroke-width="8"/>
<path d="M453.453 258.09L473.35 277.987L453.453 297.884" stroke="#F26A25" stroke-width="8"/>
<path d="M493.248 258.09L473.351 277.987L493.248 297.884" stroke="#F26A25" stroke-width="8"/>
<path d="M506.124 58.9554L526.021 78.8524L506.124 98.7493" stroke="#F26A25" stroke-width="8"/>
<path d="M545.918 58.9554L526.022 78.8524L545.918 98.7493" stroke="#F26A25" stroke-width="8"/>
<path d="M506.124 191.26L526.021 211.157L506.124 231.054" stroke="#F26A25" stroke-width="8"/>
<path d="M545.919 191.26L526.022 211.157L545.919 231.054" stroke="#F26A25" stroke-width="8"/>
<path d="M506.124 323.566L526.021 343.462L506.124 363.359" stroke="#F26A25" stroke-width="8"/>
<path d="M545.918 323.566L526.022 343.462L545.918 363.359" stroke="#F26A25" stroke-width="8"/>
<path d="M558.368 -6.46594L578.264 13.431L558.368 33.3279" stroke="#F26A25" stroke-width="8"/>
<path d="M598.162 -6.46594L578.265 13.431L598.162 33.3279" stroke="#F26A25" stroke-width="8"/>
<path d="M558.368 125.84L578.264 145.737L558.368 165.634" stroke="#F26A25" stroke-width="8"/>
<path d="M598.162 125.84L578.265 145.737L598.162 165.634" stroke="#F26A25" stroke-width="8"/>
<path d="M558.366 258.143L578.263 278.04L558.366 297.937" stroke="#F26A25" stroke-width="8"/>
<path d="M598.162 258.143L578.265 278.04L598.162 297.937" stroke="#F26A25" stroke-width="8"/>
<path d="M611.037 59.011L630.934 78.9079L611.037 98.8048" stroke="#F26A25" stroke-width="8"/>
<path d="M650.832 59.011L630.935 78.9079L650.832 98.8048" stroke="#F26A25" stroke-width="8"/>
<path d="M611.037 191.314L630.934 211.211L611.037 231.107" stroke="#F26A25" stroke-width="8"/>
<path d="M650.832 191.314L630.935 211.211L650.832 231.107" stroke="#F26A25" stroke-width="8"/>
<path d="M611.037 323.62L630.934 343.517L611.037 363.414" stroke="#F26A25" stroke-width="8"/>
<path d="M650.832 323.62L630.935 343.517L650.832 363.414" stroke="#F26A25" stroke-width="8"/>
<path d="M663.279 -6.41223L683.176 13.4847L663.279 33.3816" stroke="#F26A25" stroke-width="8"/>
<path d="M703.074 -6.41223L683.177 13.4847L703.074 33.3816" stroke="#F26A25" stroke-width="8"/>
<path d="M663.279 125.894L683.176 145.791L663.279 165.688" stroke="#F26A25" stroke-width="8"/>
<path d="M703.074 125.894L683.177 145.791L703.074 165.688" stroke="#F26A25" stroke-width="8"/>
<path d="M663.279 258.196L683.176 278.093L663.279 297.99" stroke="#F26A25" stroke-width="8"/>
<path d="M703.074 258.196L683.177 278.093L703.074 297.99" stroke="#F26A25" stroke-width="8"/>
<path d="M715.951 59.0637L735.848 78.9606L715.951 98.8575" stroke="#F26A25" stroke-width="8"/>
<path d="M755.746 59.0637L735.849 78.9606L755.746 98.8575" stroke="#F26A25" stroke-width="8"/>
<path d="M715.951 191.366L735.848 211.263L715.951 231.16" stroke="#F26A25" stroke-width="8"/>
<path d="M755.746 191.366L735.849 211.263L755.746 231.16" stroke="#F26A25" stroke-width="8"/>
<path d="M715.951 323.673L735.848 343.57L715.951 363.467" stroke="#F26A25" stroke-width="8"/>
<path d="M755.746 323.673L735.849 343.57L755.746 363.467" stroke="#F26A25" stroke-width="8"/>
<path d="M768.194 -6.35815L788.091 13.5388L768.194 33.4357" stroke="#F26A25" stroke-width="8"/>
<path d="M807.988 -6.35815L788.091 13.5388L807.988 33.4357" stroke="#F26A25" stroke-width="8"/>
<path d="M768.192 125.946L788.089 145.843L768.192 165.74" stroke="#F26A25" stroke-width="8"/>
<path d="M807.988 125.946L788.091 145.843L807.988 165.74" stroke="#F26A25" stroke-width="8"/>
<path d="M768.193 258.253L788.09 278.15L768.193 298.047" stroke="#F26A25" stroke-width="8"/>
<path d="M807.988 258.253L788.091 278.15L807.988 298.047" stroke="#F26A25" stroke-width="8"/>
<path d="M820.864 59.1173L840.761 79.0142L820.864 98.9111" stroke="#F26A25" stroke-width="8"/>
<path d="M860.659 59.1173L840.762 79.0142L860.659 98.9111" stroke="#F26A25" stroke-width="8"/>
<path d="M820.864 191.423L840.761 211.32L820.864 231.217" stroke="#F26A25" stroke-width="8"/>
<path d="M860.659 191.423L840.762 211.32L860.659 231.217" stroke="#F26A25" stroke-width="8"/>
<path d="M820.864 323.729L840.761 343.626L820.864 363.523" stroke="#F26A25" stroke-width="8"/>
<path d="M860.659 323.729L840.762 343.626L860.659 363.523" stroke="#F26A25" stroke-width="8"/>
<path d="M873.105 -6.30542L893.002 13.5915L873.105 33.4884" stroke="#F26A25" stroke-width="8"/>
<path d="M912.901 -6.30542L893.004 13.5915L912.901 33.4884" stroke="#F26A25" stroke-width="8"/>
<path d="M873.105 126.002L893.002 145.899L873.105 165.796" stroke="#F26A25" stroke-width="8"/>
<path d="M912.9 126.002L893.003 145.899L912.9 165.796" stroke="#F26A25" stroke-width="8"/>
<path d="M873.105 258.306L893.002 278.203L873.105 298.1" stroke="#F26A25" stroke-width="8"/>
<path d="M912.9 258.306L893.003 278.203L912.9 298.1" stroke="#F26A25" stroke-width="8"/>
<path d="M925.778 59.1729L945.674 79.0698L925.778 98.9667" stroke="#F26A25" stroke-width="8"/>
<path d="M965.572 59.1729L945.675 79.0698L965.572 98.9667" stroke="#F26A25" stroke-width="8"/>
<path d="M925.778 191.479L945.674 211.376L925.778 231.273" stroke="#F26A25" stroke-width="8"/>
<path d="M965.572 191.479L945.675 211.376L965.572 231.273" stroke="#F26A25" stroke-width="8"/>
<path d="M925.778 323.781L945.674 343.678L925.778 363.575" stroke="#F26A25" stroke-width="8"/>
<path d="M965.572 323.781L945.675 343.678L965.572 363.575" stroke="#F26A25" stroke-width="8"/>
<path d="M978.021 -6.25037L997.918 13.6465L978.021 33.5434" stroke="#F26A25" stroke-width="8"/>
<path d="M1017.82 -6.25037L997.919 13.6465L1017.82 33.5434" stroke="#F26A25" stroke-width="8"/>
<path d="M978.021 126.056L997.918 145.953L978.021 165.849" stroke="#F26A25" stroke-width="8"/>
<path d="M1017.82 126.056L997.919 145.953L1017.82 165.849" stroke="#F26A25" stroke-width="8"/>
<path d="M978.021 258.362L997.918 278.259L978.021 298.156" stroke="#F26A25" stroke-width="8"/>
<path d="M1017.82 258.362L997.919 278.259L1017.82 298.156" stroke="#F26A25" stroke-width="8"/>
<path d="M1030.69 59.2271L1050.59 79.124L1030.69 99.0209" stroke="#F26A25" stroke-width="8"/>
<path d="M1070.49 59.2271L1050.59 79.124L1070.49 99.0209" stroke="#F26A25" stroke-width="8"/>
<path d="M1030.69 191.533L1050.59 211.429L1030.69 231.326" stroke="#F26A25" stroke-width="8"/>
<path d="M1070.49 191.533L1050.59 211.429L1070.49 231.326" stroke="#F26A25" stroke-width="8"/>
<path d="M1030.69 323.837L1050.59 343.734L1030.69 363.63" stroke="#F26A25" stroke-width="8"/>
<path d="M1070.49 323.837L1050.59 343.734L1070.49 363.63" stroke="#F26A25" stroke-width="8"/>
<path d="M1082.93 -6.19482L1102.83 13.7021L1082.93 33.599" stroke="#F26A25" stroke-width="8"/>
<path d="M1122.73 -6.19482L1102.83 13.7021L1122.73 33.599" stroke="#F26A25" stroke-width="8"/>
<path d="M1082.93 126.108L1102.83 146.005L1082.93 165.902" stroke="#F26A25" stroke-width="8"/>
<path d="M1122.73 126.108L1102.83 146.005L1122.73 165.902" stroke="#F26A25" stroke-width="8"/>
<path d="M1082.93 258.414L1102.83 278.311L1082.93 298.208" stroke="#F26A25" stroke-width="8"/>
<path d="M1122.73 258.414L1102.83 278.311L1122.73 298.208" stroke="#F26A25" stroke-width="8"/>
<path d="M1135.6 59.2826L1155.5 79.1795L1135.6 99.0764" stroke="#F26A25" stroke-width="8"/>
<path d="M1175.4 59.2826L1155.5 79.1795L1175.4 99.0764" stroke="#F26A25" stroke-width="8"/>
<path d="M1135.6 191.585L1155.5 211.482L1135.6 231.379" stroke="#F26A25" stroke-width="8"/>
<path d="M1175.4 191.585L1155.5 211.482L1175.4 231.379" stroke="#F26A25" stroke-width="8"/>
<path d="M1135.6 323.892L1155.5 343.789L1135.6 363.686" stroke="#F26A25" stroke-width="8"/>
<path d="M1175.4 323.892L1155.5 343.789L1175.4 363.686" stroke="#F26A25" stroke-width="8"/>
<path d="M1187.85 -6.14062L1207.74 13.7563L1187.85 33.6532" stroke="#F26A25" stroke-width="8"/>
<path d="M1227.64 -6.14062L1207.74 13.7563L1227.64 33.6532" stroke="#F26A25" stroke-width="8"/>
<path d="M1187.85 126.163L1207.74 146.06L1187.85 165.957" stroke="#F26A25" stroke-width="8"/>
<path d="M1227.64 126.163L1207.74 146.06L1227.64 165.957" stroke="#F26A25" stroke-width="8"/>
<path d="M1187.85 258.468L1207.74 278.365L1187.85 298.262" stroke="#F26A25" stroke-width="8"/>
<path d="M1227.64 258.468L1207.74 278.365L1227.64 298.262" stroke="#F26A25" stroke-width="8"/>
<path d="M1240.52 59.3363L1260.42 79.2332L1240.52 99.1301" stroke="#F26A25" stroke-width="8"/>
<path d="M1280.31 59.3363L1260.42 79.2332L1280.31 99.1301" stroke="#F26A25" stroke-width="8"/>
<path d="M1240.52 191.642L1260.42 211.539L1240.52 231.436" stroke="#F26A25" stroke-width="8"/>
<path d="M1280.31 191.642L1260.42 211.539L1280.31 231.436" stroke="#F26A25" stroke-width="8"/>
<path d="M1240.52 323.945L1260.42 343.842L1240.52 363.739" stroke="#F26A25" stroke-width="8"/>
<path d="M1280.31 323.945L1260.42 343.842L1280.31 363.739" stroke="#F26A25" stroke-width="8"/>
<path d="M1292.76 -6.08801L1312.66 13.8089L1292.76 33.7058" stroke="#F26A25" stroke-width="8"/>
<path d="M1332.55 -6.08801L1312.66 13.8089L1332.55 33.7058" stroke="#F26A25" stroke-width="8"/>
<path d="M1292.76 126.219L1312.66 146.116L1292.76 166.013" stroke="#F26A25" stroke-width="8"/>
<path d="M1332.55 126.219L1312.66 146.116L1332.55 166.013" stroke="#F26A25" stroke-width="8"/>
<path d="M1292.76 258.524L1312.66 278.42L1292.76 298.317" stroke="#F26A25" stroke-width="8"/>
<path d="M1332.55 258.524L1312.66 278.42L1332.55 298.317" stroke="#F26A25" stroke-width="8"/>
<path d="M1345.43 59.3889L1365.33 79.2858L1345.43 99.1827" stroke="#F26A25" stroke-width="8"/>
<path d="M1385.23 59.3889L1365.33 79.2858L1385.23 99.1827" stroke="#F26A25" stroke-width="8"/>
<path d="M1345.43 191.696L1365.33 211.593L1345.43 231.49" stroke="#F26A25" stroke-width="8"/>
<path d="M1385.23 191.696L1365.33 211.593L1385.23 231.49" stroke="#F26A25" stroke-width="8"/>
<path d="M1345.43 323.999L1365.33 343.896L1345.43 363.793" stroke="#F26A25" stroke-width="8"/>
<path d="M1385.23 323.999L1365.33 343.896L1385.23 363.793" stroke="#F26A25" stroke-width="8"/>
<path d="M1397.67 -6.03284L1417.57 13.8641L1397.67 33.761" stroke="#F26A25" stroke-width="8"/>
<path d="M1437.47 -6.03284L1417.57 13.8641L1437.47 33.761" stroke="#F26A25" stroke-width="8"/>
<path d="M1397.67 126.273L1417.57 146.17L1397.67 166.067" stroke="#F26A25" stroke-width="8"/>
<path d="M1437.47 126.273L1417.57 146.17L1437.47 166.067" stroke="#F26A25" stroke-width="8"/>
<path d="M1397.67 258.577L1417.57 278.474L1397.67 298.371" stroke="#F26A25" stroke-width="8"/>
<path d="M1437.47 258.577L1417.57 278.474L1437.47 298.371" stroke="#F26A25" stroke-width="8"/>
<path d="M1450.35 59.444L1470.24 79.3409L1450.35 99.2378" stroke="#F26A25" stroke-width="8"/>
<path d="M1490.14 59.444L1470.24 79.3409L1490.14 99.2378" stroke="#F26A25" stroke-width="8"/>
<path d="M1450.35 191.747L1470.24 211.644L1450.35 231.541" stroke="#F26A25" stroke-width="8"/>
<path d="M1490.14 191.747L1470.24 211.644L1490.14 231.541" stroke="#F26A25" stroke-width="8"/>
<path d="M1450.35 324.054L1470.24 343.951L1450.35 363.848" stroke="#F26A25" stroke-width="8"/>
<path d="M1490.14 324.054L1470.24 343.951L1490.14 363.848" stroke="#F26A25" stroke-width="8"/>
<path d="M1502.59 -5.97583L1522.48 13.9211L1502.59 33.818" stroke="#F26A25" stroke-width="8"/>
<path d="M1542.38 -5.97583L1522.49 13.9211L1542.38 33.818" stroke="#F26A25" stroke-width="8"/>
<path d="M1502.59 126.327L1522.48 146.224L1502.59 166.121" stroke="#F26A25" stroke-width="8"/>
<path d="M1542.38 126.327L1522.49 146.224L1542.38 166.121" stroke="#F26A25" stroke-width="8"/>
<path d="M1502.59 258.631L1522.48 278.528L1502.59 298.425" stroke="#F26A25" stroke-width="8"/>
<path d="M1542.38 258.631L1522.49 278.528L1542.38 298.425" stroke="#F26A25" stroke-width="8"/>
<path d="M1555.26 59.4967L1575.16 79.3936L1555.26 99.2905" stroke="#F26A25" stroke-width="8"/>
<path d="M1595.05 59.4967L1575.16 79.3936L1595.05 99.2905" stroke="#F26A25" stroke-width="8"/>
<path d="M1555.26 191.802L1575.16 211.699L1555.26 231.596" stroke="#F26A25" stroke-width="8"/>
<path d="M1595.05 191.802L1575.16 211.699L1595.05 231.596" stroke="#F26A25" stroke-width="8"/>
<path d="M1555.26 324.108L1575.16 344.005L1555.26 363.902" stroke="#F26A25" stroke-width="8"/>
<path d="M1595.05 324.108L1575.16 344.005L1595.05 363.902" stroke="#F26A25" stroke-width="8"/>
<path d="M1607.5 -5.92322L1627.4 13.9737L1607.5 33.8706" stroke="#F26A25" stroke-width="8"/>
<path d="M1647.3 -5.92322L1627.4 13.9737L1647.3 33.8706" stroke="#F26A25" stroke-width="8"/>
<path d="M1607.5 126.38L1627.4 146.276L1607.5 166.173" stroke="#F26A25" stroke-width="8"/>
<path d="M1647.3 126.38L1627.4 146.276L1647.3 166.173" stroke="#F26A25" stroke-width="8"/>
<path d="M1607.5 258.686L1627.4 278.582L1607.5 298.479" stroke="#F26A25" stroke-width="8"/>
<path d="M1647.3 258.686L1627.4 278.582L1647.3 298.479" stroke="#F26A25" stroke-width="8"/>
<path d="M1660.17 59.5503L1680.07 79.4472L1660.17 99.3441" stroke="#F26A25" stroke-width="8"/>
<path d="M1699.97 59.5503L1680.07 79.4472L1699.97 99.3441" stroke="#F26A25" stroke-width="8"/>
<path d="M1660.17 191.856L1680.07 211.753L1660.17 231.65" stroke="#F26A25" stroke-width="8"/>
<path d="M1699.97 191.856L1680.07 211.753L1699.97 231.65" stroke="#F26A25" stroke-width="8"/>
<path d="M1660.17 324.164L1680.07 344.061L1660.17 363.958" stroke="#F26A25" stroke-width="8"/>
<path d="M1699.97 324.164L1680.07 344.061L1699.97 363.958" stroke="#F26A25" stroke-width="8"/>
<path d="M1712.41 -5.86951L1732.31 14.0274L1712.41 33.9243" stroke="#F26A25" stroke-width="8"/>
<path d="M1752.21 -5.86951L1732.31 14.0274L1752.21 33.9243" stroke="#F26A25" stroke-width="8"/>
<path d="M1712.41 126.437L1732.31 146.333L1712.41 166.23" stroke="#F26A25" stroke-width="8"/>
<path d="M1752.21 126.437L1732.31 146.333L1752.21 166.23" stroke="#F26A25" stroke-width="8"/>
<path d="M1712.41 258.743L1732.31 278.639L1712.41 298.536" stroke="#F26A25" stroke-width="8"/>
<path d="M1752.21 258.743L1732.31 278.639L1752.21 298.536" stroke="#F26A25" stroke-width="8"/>
<path d="M1765.08 59.6064L1784.98 79.5034L1765.08 99.4003" stroke="#F26A25" stroke-width="8"/>
<path d="M1804.88 59.6064L1784.98 79.5034L1804.88 99.4003" stroke="#F26A25" stroke-width="8"/>
<path d="M1765.08 191.913L1784.98 211.81L1765.08 231.707" stroke="#F26A25" stroke-width="8"/>
<path d="M1804.88 191.913L1784.98 211.81L1804.88 231.707" stroke="#F26A25" stroke-width="8"/>
<path d="M1765.09 324.217L1784.98 344.114L1765.09 364.011" stroke="#F26A25" stroke-width="8"/>
<path d="M1804.88 324.217L1784.98 344.114L1804.88 364.011" stroke="#F26A25" stroke-width="8"/>
<path d="M1817.33 -5.81396L1837.22 14.0829L1817.33 33.9798" stroke="#F26A25" stroke-width="8"/>
<path d="M1857.12 -5.81396L1837.22 14.0829L1857.12 33.9798" stroke="#F26A25" stroke-width="8"/>
<path d="M1817.33 126.489L1837.22 146.386L1817.33 166.283" stroke="#F26A25" stroke-width="8"/>
<path d="M1857.12 126.489L1837.22 146.386L1857.12 166.283" stroke="#F26A25" stroke-width="8"/>
<path d="M1817.33 258.796L1837.22 278.693L1817.33 298.59" stroke="#F26A25" stroke-width="8"/>
<path d="M1857.12 258.796L1837.22 278.693L1857.12 298.59" stroke="#F26A25" stroke-width="8"/>
<path d="M1870 59.66L1889.9 79.5569L1870 99.4538" stroke="#F26A25" stroke-width="8"/>
<path d="M1909.79 59.66L1889.9 79.5569L1909.79 99.4538" stroke="#F26A25" stroke-width="8"/>
<path d="M1870 191.966L1889.9 211.863L1870 231.76" stroke="#F26A25" stroke-width="8"/>
<path d="M1909.79 191.966L1889.9 211.863L1909.79 231.76" stroke="#F26A25" stroke-width="8"/>
<path d="M1870 324.272L1889.9 344.169L1870 364.065" stroke="#F26A25" stroke-width="8"/>
<path d="M1909.79 324.272L1889.9 344.169L1909.79 364.065" stroke="#F26A25" stroke-width="8"/>
</g>
<mask id="mask1_94_1038" style="mask-type:alpha" maskUnits="userSpaceOnUse" x="0" y="672" width="1937" height="385">
<rect y="672" width="1936.28" height="384.774" fill="url(#paint1_linear_94_1038)"/>
</mask>
<g mask="url(#mask1_94_1038)">
<path d="M29.8 665.315L49.697 685.212L29.8 705.109" stroke="#F26A25" stroke-width="8"/>
<path d="M69.5948 665.315L49.6979 685.212L69.5948 705.109" stroke="#F26A25" stroke-width="8"/>
<path d="M29.7996 797.621L49.6965 817.518L29.7996 837.415" stroke="#F26A25" stroke-width="8"/>
<path d="M69.5956 797.621L49.6987 817.518L69.5956 837.415" stroke="#F26A25" stroke-width="8"/>
<path d="M29.8 929.925L49.697 949.822L29.8 969.719" stroke="#F26A25" stroke-width="8"/>
<path d="M69.5948 929.925L49.6979 949.822L69.5948 969.719" stroke="#F26A25" stroke-width="8"/>
<path d="M82.4703 730.792L102.367 750.689L82.4703 770.586" stroke="#F26A25" stroke-width="8"/>
<path d="M122.265 730.792L102.368 750.689L122.265 770.586" stroke="#F26A25" stroke-width="8"/>
<path d="M82.4703 863.098L102.367 882.995L82.4703 902.892" stroke="#F26A25" stroke-width="8"/>
<path d="M122.265 863.098L102.368 882.995L122.265 902.892" stroke="#F26A25" stroke-width="8"/>
<path d="M82.4703 995.402L102.367 1015.3L82.4703 1035.2" stroke="#F26A25" stroke-width="8"/>
<path d="M122.265 995.402L102.368 1015.3L122.265 1035.2" stroke="#F26A25" stroke-width="8"/>
<path d="M134.713 665.315L154.61 685.212L134.713 705.109" stroke="#F26A25" stroke-width="8"/>
<path d="M174.508 665.315L154.611 685.212L174.508 705.109" stroke="#F26A25" stroke-width="8"/>
<path d="M134.713 797.621L154.61 817.518L134.713 837.415" stroke="#F26A25" stroke-width="8"/>
<path d="M174.509 797.621L154.612 817.518L174.509 837.415" stroke="#F26A25" stroke-width="8"/>
<path d="M134.713 929.925L154.61 949.822L134.713 969.719" stroke="#F26A25" stroke-width="8"/>
<path d="M174.508 929.925L154.611 949.822L174.508 969.719" stroke="#F26A25" stroke-width="8"/>
<path d="M187.385 730.792L207.282 750.689L187.385 770.586" stroke="#F26A25" stroke-width="8"/>
<path d="M227.18 730.792L207.283 750.689L227.18 770.586" stroke="#F26A25" stroke-width="8"/>
<path d="M187.385 863.097L207.282 882.994L187.385 902.891" stroke="#F26A25" stroke-width="8"/>
<path d="M227.18 863.097L207.283 882.994L227.18 902.891" stroke="#F26A25" stroke-width="8"/>
<path d="M187.385 995.402L207.282 1015.3L187.385 1035.2" stroke="#F26A25" stroke-width="8"/>
<path d="M227.18 995.402L207.283 1015.3L227.18 1035.2" stroke="#F26A25" stroke-width="8"/>
<path d="M239.626 665.372L259.523 685.269L239.626 705.166" stroke="#F26A25" stroke-width="8"/>
<path d="M279.421 665.372L259.524 685.269L279.421 705.166" stroke="#F26A25" stroke-width="8"/>
<path d="M239.626 797.675L259.523 817.572L239.626 837.469" stroke="#F26A25" stroke-width="8"/>
<path d="M279.421 797.675L259.524 817.572L279.421 837.469" stroke="#F26A25" stroke-width="8"/>
<path d="M239.626 929.979L259.523 949.876L239.626 969.773" stroke="#F26A25" stroke-width="8"/>
<path d="M279.421 929.979L259.524 949.876L279.421 969.773" stroke="#F26A25" stroke-width="8"/>
<path d="M292.297 730.845L312.194 750.742L292.297 770.639" stroke="#F26A25" stroke-width="8"/>
<path d="M332.092 730.845L312.195 750.742L332.092 770.639" stroke="#F26A25" stroke-width="8"/>
<path d="M292.297 863.15L312.194 883.047L292.297 902.944" stroke="#F26A25" stroke-width="8"/>
<path d="M332.092 863.15L312.195 883.047L332.092 902.944" stroke="#F26A25" stroke-width="8"/>
<path d="M292.297 995.456L312.194 1015.35L292.297 1035.25" stroke="#F26A25" stroke-width="8"/>
<path d="M332.092 995.456L312.195 1015.35L332.092 1035.25" stroke="#F26A25" stroke-width="8"/>
<path d="M344.539 665.424L364.436 685.321L344.539 705.218" stroke="#F26A25" stroke-width="8"/>
<path d="M384.335 665.424L364.438 685.321L384.335 705.218" stroke="#F26A25" stroke-width="8"/>
<path d="M344.539 797.73L364.436 817.627L344.539 837.524" stroke="#F26A25" stroke-width="8"/>
<path d="M384.334 797.73L364.437 817.627L384.334 837.524" stroke="#F26A25" stroke-width="8"/>
<path d="M344.539 930.036L364.436 949.933L344.539 969.83" stroke="#F26A25" stroke-width="8"/>
<path d="M384.333 930.036L364.437 949.933L384.333 969.83" stroke="#F26A25" stroke-width="8"/>
<path d="M397.211 730.901L417.108 750.798L397.211 770.695" stroke="#F26A25" stroke-width="8"/>
<path d="M437.006 730.901L417.109 750.798L437.006 770.695" stroke="#F26A25" stroke-width="8"/>
<path d="M397.211 863.206L417.108 883.103L397.211 903" stroke="#F26A25" stroke-width="8"/>
<path d="M437.006 863.206L417.109 883.103L437.006 903" stroke="#F26A25" stroke-width="8"/>
<path d="M397.211 995.512L417.108 1015.41L397.211 1035.31" stroke="#F26A25" stroke-width="8"/>
<path d="M437.006 995.512L417.109 1015.41L437.006 1035.31" stroke="#F26A25" stroke-width="8"/>
<path d="M449.453 665.479L469.35 685.375L449.453 705.272" stroke="#F26A25" stroke-width="8"/>
<path d="M489.248 665.479L469.351 685.375L489.248 705.272" stroke="#F26A25" stroke-width="8"/>
<path d="M449.451 797.784L469.348 817.681L449.451 837.578" stroke="#F26A25" stroke-width="8"/>
<path d="M489.247 797.784L469.351 817.681L489.247 837.578" stroke="#F26A25" stroke-width="8"/>
<path d="M449.453 930.09L469.35 949.987L449.453 969.884" stroke="#F26A25" stroke-width="8"/>
<path d="M489.248 930.09L469.351 949.987L489.248 969.884" stroke="#F26A25" stroke-width="8"/>
<path d="M502.124 730.955L522.021 750.852L502.124 770.749" stroke="#F26A25" stroke-width="8"/>
<path d="M541.918 730.955L522.022 750.852L541.918 770.749" stroke="#F26A25" stroke-width="8"/>
<path d="M502.124 863.26L522.021 883.157L502.124 903.054" stroke="#F26A25" stroke-width="8"/>
<path d="M541.919 863.26L522.022 883.157L541.919 903.054" stroke="#F26A25" stroke-width="8"/>
<path d="M502.124 995.566L522.021 1015.46L502.124 1035.36" stroke="#F26A25" stroke-width="8"/>
<path d="M541.918 995.566L522.022 1015.46L541.918 1035.36" stroke="#F26A25" stroke-width="8"/>
<path d="M554.368 665.534L574.264 685.431L554.368 705.328" stroke="#F26A25" stroke-width="8"/>
<path d="M594.162 665.534L574.265 685.431L594.162 705.328" stroke="#F26A25" stroke-width="8"/>
<path d="M554.368 797.84L574.264 817.737L554.368 837.634" stroke="#F26A25" stroke-width="8"/>
<path d="M594.162 797.84L574.265 817.737L594.162 837.634" stroke="#F26A25" stroke-width="8"/>
<path d="M554.366 930.143L574.263 950.04L554.366 969.937" stroke="#F26A25" stroke-width="8"/>
<path d="M594.162 930.143L574.265 950.04L594.162 969.937" stroke="#F26A25" stroke-width="8"/>
<path d="M607.037 731.011L626.934 750.908L607.037 770.805" stroke="#F26A25" stroke-width="8"/>
<path d="M646.832 731.011L626.935 750.908L646.832 770.805" stroke="#F26A25" stroke-width="8"/>
<path d="M607.037 863.314L626.934 883.211L607.037 903.107" stroke="#F26A25" stroke-width="8"/>
<path d="M646.832 863.314L626.935 883.211L646.832 903.107" stroke="#F26A25" stroke-width="8"/>
<path d="M607.037 995.62L626.934 1015.52L607.037 1035.41" stroke="#F26A25" stroke-width="8"/>
<path d="M646.832 995.62L626.935 1015.52L646.832 1035.41" stroke="#F26A25" stroke-width="8"/>
<path d="M659.279 665.588L679.176 685.485L659.279 705.382" stroke="#F26A25" stroke-width="8"/>
<path d="M699.074 665.588L679.177 685.485L699.074 705.382" stroke="#F26A25" stroke-width="8"/>
<path d="M659.279 797.894L679.176 817.791L659.279 837.688" stroke="#F26A25" stroke-width="8"/>
<path d="M699.074 797.894L679.177 817.791L699.074 837.688" stroke="#F26A25" stroke-width="8"/>
<path d="M659.279 930.196L679.176 950.093L659.279 969.99" stroke="#F26A25" stroke-width="8"/>
<path d="M699.074 930.196L679.177 950.093L699.074 969.99" stroke="#F26A25" stroke-width="8"/>
<path d="M711.951 731.064L731.848 750.961L711.951 770.857" stroke="#F26A25" stroke-width="8"/>
<path d="M751.746 731.064L731.849 750.961L751.746 770.857" stroke="#F26A25" stroke-width="8"/>
<path d="M711.951 863.366L731.848 883.263L711.951 903.16" stroke="#F26A25" stroke-width="8"/>
<path d="M751.746 863.366L731.849 883.263L751.746 903.16" stroke="#F26A25" stroke-width="8"/>
<path d="M711.951 995.673L731.848 1015.57L711.951 1035.47" stroke="#F26A25" stroke-width="8"/>
<path d="M751.746 995.673L731.849 1015.57L751.746 1035.47" stroke="#F26A25" stroke-width="8"/>
<path d="M764.194 665.642L784.091 685.539L764.194 705.436" stroke="#F26A25" stroke-width="8"/>
<path d="M803.988 665.642L784.091 685.539L803.988 705.436" stroke="#F26A25" stroke-width="8"/>
<path d="M764.192 797.946L784.089 817.843L764.192 837.74" stroke="#F26A25" stroke-width="8"/>
<path d="M803.988 797.946L784.091 817.843L803.988 837.74" stroke="#F26A25" stroke-width="8"/>
<path d="M764.193 930.253L784.09 950.15L764.193 970.047" stroke="#F26A25" stroke-width="8"/>
<path d="M803.988 930.253L784.091 950.15L803.988 970.047" stroke="#F26A25" stroke-width="8"/>
<path d="M816.864 731.117L836.761 751.014L816.864 770.911" stroke="#F26A25" stroke-width="8"/>
<path d="M856.659 731.117L836.762 751.014L856.659 770.911" stroke="#F26A25" stroke-width="8"/>
<path d="M816.864 863.423L836.761 883.32L816.864 903.217" stroke="#F26A25" stroke-width="8"/>
<path d="M856.659 863.423L836.762 883.32L856.659 903.217" stroke="#F26A25" stroke-width="8"/>
<path d="M816.864 995.729L836.761 1015.63L816.864 1035.52" stroke="#F26A25" stroke-width="8"/>
<path d="M856.659 995.729L836.762 1015.63L856.659 1035.52" stroke="#F26A25" stroke-width="8"/>
<path d="M869.105 665.695L889.002 685.591L869.105 705.488" stroke="#F26A25" stroke-width="8"/>
<path d="M908.901 665.695L889.004 685.591L908.901 705.488" stroke="#F26A25" stroke-width="8"/>
<path d="M869.105 798.002L889.002 817.899L869.105 837.796" stroke="#F26A25" stroke-width="8"/>
<path d="M908.9 798.002L889.003 817.899L908.9 837.796" stroke="#F26A25" stroke-width="8"/>
<path d="M869.105 930.306L889.002 950.203L869.105 970.1" stroke="#F26A25" stroke-width="8"/>
<path d="M908.9 930.306L889.003 950.203L908.9 970.1" stroke="#F26A25" stroke-width="8"/>
<path d="M921.778 731.173L941.674 751.07L921.778 770.967" stroke="#F26A25" stroke-width="8"/>
<path d="M961.572 731.173L941.675 751.07L961.572 770.967" stroke="#F26A25" stroke-width="8"/>
<path d="M921.778 863.479L941.674 883.376L921.778 903.273" stroke="#F26A25" stroke-width="8"/>
<path d="M961.572 863.479L941.675 883.376L961.572 903.273" stroke="#F26A25" stroke-width="8"/>
<path d="M921.778 995.782L941.674 1015.68L921.778 1035.58" stroke="#F26A25" stroke-width="8"/>
<path d="M961.572 995.782L941.675 1015.68L961.572 1035.58" stroke="#F26A25" stroke-width="8"/>
<path d="M974.021 665.75L993.918 685.647L974.021 705.544" stroke="#F26A25" stroke-width="8"/>
<path d="M1013.82 665.75L993.919 685.647L1013.82 705.544" stroke="#F26A25" stroke-width="8"/>
<path d="M974.021 798.056L993.918 817.953L974.021 837.85" stroke="#F26A25" stroke-width="8"/>
<path d="M1013.82 798.056L993.919 817.953L1013.82 837.85" stroke="#F26A25" stroke-width="8"/>
<path d="M974.021 930.362L993.918 950.259L974.021 970.155" stroke="#F26A25" stroke-width="8"/>
<path d="M1013.82 930.362L993.919 950.259L1013.82 970.155" stroke="#F26A25" stroke-width="8"/>
<path d="M1026.69 731.227L1046.59 751.124L1026.69 771.021" stroke="#F26A25" stroke-width="8"/>
<path d="M1066.49 731.227L1046.59 751.124L1066.49 771.021" stroke="#F26A25" stroke-width="8"/>
<path d="M1026.69 863.533L1046.59 883.429L1026.69 903.326" stroke="#F26A25" stroke-width="8"/>
<path d="M1066.49 863.533L1046.59 883.429L1066.49 903.326" stroke="#F26A25" stroke-width="8"/>
<path d="M1026.69 995.837L1046.59 1015.73L1026.69 1035.63" stroke="#F26A25" stroke-width="8"/>
<path d="M1066.49 995.837L1046.59 1015.73L1066.49 1035.63" stroke="#F26A25" stroke-width="8"/>
<path d="M1078.93 665.805L1098.83 685.702L1078.93 705.599" stroke="#F26A25" stroke-width="8"/>
<path d="M1118.73 665.805L1098.83 685.702L1118.73 705.599" stroke="#F26A25" stroke-width="8"/>
<path d="M1078.93 798.108L1098.83 818.005L1078.93 837.902" stroke="#F26A25" stroke-width="8"/>
<path d="M1118.73 798.108L1098.83 818.005L1118.73 837.902" stroke="#F26A25" stroke-width="8"/>
<path d="M1078.93 930.414L1098.83 950.311L1078.93 970.208" stroke="#F26A25" stroke-width="8"/>
<path d="M1118.73 930.414L1098.83 950.311L1118.73 970.208" stroke="#F26A25" stroke-width="8"/>
<path d="M1131.6 731.283L1151.5 751.179L1131.6 771.076" stroke="#F26A25" stroke-width="8"/>
<path d="M1171.4 731.283L1151.5 751.179L1171.4 771.076" stroke="#F26A25" stroke-width="8"/>
<path d="M1131.6 863.585L1151.5 883.482L1131.6 903.379" stroke="#F26A25" stroke-width="8"/>
<path d="M1171.4 863.585L1151.5 883.482L1171.4 903.379" stroke="#F26A25" stroke-width="8"/>
<path d="M1131.6 995.892L1151.5 1015.79L1131.6 1035.69" stroke="#F26A25" stroke-width="8"/>
<path d="M1171.4 995.892L1151.5 1015.79L1171.4 1035.69" stroke="#F26A25" stroke-width="8"/>
<path d="M1183.85 665.859L1203.74 685.756L1183.85 705.653" stroke="#F26A25" stroke-width="8"/>
<path d="M1223.64 665.859L1203.74 685.756L1223.64 705.653" stroke="#F26A25" stroke-width="8"/>
<path d="M1183.85 798.163L1203.74 818.06L1183.85 837.957" stroke="#F26A25" stroke-width="8"/>
<path d="M1223.64 798.163L1203.74 818.06L1223.64 837.957" stroke="#F26A25" stroke-width="8"/>
<path d="M1183.85 930.468L1203.74 950.365L1183.85 970.262" stroke="#F26A25" stroke-width="8"/>
<path d="M1223.64 930.468L1203.74 950.365L1223.64 970.262" stroke="#F26A25" stroke-width="8"/>
<path d="M1236.52 731.336L1256.42 751.233L1236.52 771.13" stroke="#F26A25" stroke-width="8"/>
<path d="M1276.31 731.336L1256.42 751.233L1276.31 771.13" stroke="#F26A25" stroke-width="8"/>
<path d="M1236.52 863.642L1256.42 883.539L1236.52 903.436" stroke="#F26A25" stroke-width="8"/>
<path d="M1276.31 863.642L1256.42 883.539L1276.31 903.436" stroke="#F26A25" stroke-width="8"/>
<path d="M1236.52 995.945L1256.42 1015.84L1236.52 1035.74" stroke="#F26A25" stroke-width="8"/>
<path d="M1276.31 995.945L1256.42 1015.84L1276.31 1035.74" stroke="#F26A25" stroke-width="8"/>
<path d="M1288.76 665.912L1308.66 685.809L1288.76 705.706" stroke="#F26A25" stroke-width="8"/>
<path d="M1328.55 665.912L1308.66 685.809L1328.55 705.706" stroke="#F26A25" stroke-width="8"/>
<path d="M1288.76 798.219L1308.66 818.116L1288.76 838.013" stroke="#F26A25" stroke-width="8"/>
<path d="M1328.55 798.219L1308.66 818.116L1328.55 838.013" stroke="#F26A25" stroke-width="8"/>
<path d="M1288.76 930.524L1308.66 950.42L1288.76 970.317" stroke="#F26A25" stroke-width="8"/>
<path d="M1328.55 930.524L1308.66 950.42L1328.55 970.317" stroke="#F26A25" stroke-width="8"/>
<path d="M1341.43 731.389L1361.33 751.286L1341.43 771.183" stroke="#F26A25" stroke-width="8"/>
<path d="M1381.23 731.389L1361.33 751.286L1381.23 771.183" stroke="#F26A25" stroke-width="8"/>
<path d="M1341.43 863.696L1361.33 883.593L1341.43 903.49" stroke="#F26A25" stroke-width="8"/>
<path d="M1381.23 863.696L1361.33 883.593L1381.23 903.49" stroke="#F26A25" stroke-width="8"/>
<path d="M1341.43 995.999L1361.33 1015.9L1341.43 1035.79" stroke="#F26A25" stroke-width="8"/>
<path d="M1381.23 995.999L1361.33 1015.9L1381.23 1035.79" stroke="#F26A25" stroke-width="8"/>
<path d="M1393.67 665.967L1413.57 685.864L1393.67 705.761" stroke="#F26A25" stroke-width="8"/>
<path d="M1433.47 665.967L1413.57 685.864L1433.47 705.761" stroke="#F26A25" stroke-width="8"/>
<path d="M1393.67 798.273L1413.57 818.17L1393.67 838.067" stroke="#F26A25" stroke-width="8"/>
<path d="M1433.47 798.273L1413.57 818.17L1433.47 838.067" stroke="#F26A25" stroke-width="8"/>
<path d="M1393.67 930.577L1413.57 950.474L1393.67 970.371" stroke="#F26A25" stroke-width="8"/>
<path d="M1433.47 930.577L1413.57 950.474L1433.47 970.371" stroke="#F26A25" stroke-width="8"/>
<path d="M1446.35 731.444L1466.24 751.341L1446.35 771.238" stroke="#F26A25" stroke-width="8"/>
<path d="M1486.14 731.444L1466.24 751.341L1486.14 771.238" stroke="#F26A25" stroke-width="8"/>
<path d="M1446.35 863.747L1466.24 883.644L1446.35 903.541" stroke="#F26A25" stroke-width="8"/>
<path d="M1486.14 863.747L1466.24 883.644L1486.14 903.541" stroke="#F26A25" stroke-width="8"/>
<path d="M1446.35 996.054L1466.24 1015.95L1446.35 1035.85" stroke="#F26A25" stroke-width="8"/>
<path d="M1486.14 996.054L1466.24 1015.95L1486.14 1035.85" stroke="#F26A25" stroke-width="8"/>
<path d="M1498.59 666.024L1518.48 685.921L1498.59 705.818" stroke="#F26A25" stroke-width="8"/>
<path d="M1538.38 666.024L1518.49 685.921L1538.38 705.818" stroke="#F26A25" stroke-width="8"/>
<path d="M1498.59 798.327L1518.48 818.224L1498.59 838.121" stroke="#F26A25" stroke-width="8"/>
<path d="M1538.38 798.327L1518.49 818.224L1538.38 838.121" stroke="#F26A25" stroke-width="8"/>
<path d="M1498.59 930.631L1518.48 950.528L1498.59 970.425" stroke="#F26A25" stroke-width="8"/>
<path d="M1538.38 930.631L1518.49 950.528L1538.38 970.425" stroke="#F26A25" stroke-width="8"/>
<path d="M1551.26 731.497L1571.16 751.394L1551.26 771.291" stroke="#F26A25" stroke-width="8"/>
<path d="M1591.05 731.497L1571.16 751.394L1591.05 771.291" stroke="#F26A25" stroke-width="8"/>
<path d="M1551.26 863.802L1571.16 883.699L1551.26 903.596" stroke="#F26A25" stroke-width="8"/>
<path d="M1591.05 863.802L1571.16 883.699L1591.05 903.596" stroke="#F26A25" stroke-width="8"/>
<path d="M1551.26 996.108L1571.16 1016.01L1551.26 1035.9" stroke="#F26A25" stroke-width="8"/>
<path d="M1591.05 996.108L1571.16 1016.01L1591.05 1035.9" stroke="#F26A25" stroke-width="8"/>
<path d="M1603.5 666.077L1623.4 685.974L1603.5 705.871" stroke="#F26A25" stroke-width="8"/>
<path d="M1643.3 666.077L1623.4 685.974L1643.3 705.871" stroke="#F26A25" stroke-width="8"/>
<path d="M1603.5 798.379L1623.4 818.276L1603.5 838.173" stroke="#F26A25" stroke-width="8"/>
<path d="M1643.3 798.379L1623.4 818.276L1643.3 838.173" stroke="#F26A25" stroke-width="8"/>
<path d="M1603.5 930.686L1623.4 950.582L1603.5 970.479" stroke="#F26A25" stroke-width="8"/>
<path d="M1643.3 930.686L1623.4 950.582L1643.3 970.479" stroke="#F26A25" stroke-width="8"/>
<path d="M1656.17 731.55L1676.07 751.447L1656.17 771.344" stroke="#F26A25" stroke-width="8"/>
<path d="M1695.97 731.55L1676.07 751.447L1695.97 771.344" stroke="#F26A25" stroke-width="8"/>
<path d="M1656.17 863.856L1676.07 883.753L1656.17 903.65" stroke="#F26A25" stroke-width="8"/>
<path d="M1695.97 863.856L1676.07 883.753L1695.97 903.65" stroke="#F26A25" stroke-width="8"/>
<path d="M1656.17 996.164L1676.07 1016.06L1656.17 1035.96" stroke="#F26A25" stroke-width="8"/>
<path d="M1695.97 996.164L1676.07 1016.06L1695.97 1035.96" stroke="#F26A25" stroke-width="8"/>
<path d="M1708.41 666.13L1728.31 686.027L1708.41 705.924" stroke="#F26A25" stroke-width="8"/>
<path d="M1748.21 666.13L1728.31 686.027L1748.21 705.924" stroke="#F26A25" stroke-width="8"/>
<path d="M1708.41 798.437L1728.31 818.333L1708.41 838.23" stroke="#F26A25" stroke-width="8"/>
<path d="M1748.21 798.437L1728.31 818.333L1748.21 838.23" stroke="#F26A25" stroke-width="8"/>
<path d="M1708.41 930.743L1728.31 950.639L1708.41 970.536" stroke="#F26A25" stroke-width="8"/>
<path d="M1748.21 930.743L1728.31 950.639L1748.21 970.536" stroke="#F26A25" stroke-width="8"/>
<path d="M1761.08 731.606L1780.98 751.503L1761.08 771.4" stroke="#F26A25" stroke-width="8"/>
<path d="M1800.88 731.606L1780.98 751.503L1800.88 771.4" stroke="#F26A25" stroke-width="8"/>
<path d="M1761.08 863.913L1780.98 883.81L1761.08 903.707" stroke="#F26A25" stroke-width="8"/>
<path d="M1800.88 863.913L1780.98 883.81L1800.88 903.707" stroke="#F26A25" stroke-width="8"/>
<path d="M1761.09 996.217L1780.98 1016.11L1761.09 1036.01" stroke="#F26A25" stroke-width="8"/>
<path d="M1800.88 996.217L1780.98 1016.11L1800.88 1036.01" stroke="#F26A25" stroke-width="8"/>
<path d="M1813.33 666.186L1833.22 686.083L1813.33 705.98" stroke="#F26A25" stroke-width="8"/>
<path d="M1853.12 666.186L1833.22 686.083L1853.12 705.98" stroke="#F26A25" stroke-width="8"/>
<path d="M1813.33 798.489L1833.22 818.386L1813.33 838.283" stroke="#F26A25" stroke-width="8"/>
<path d="M1853.12 798.489L1833.22 818.386L1853.12 838.283" stroke="#F26A25" stroke-width="8"/>
<path d="M1813.33 930.796L1833.22 950.693L1813.33 970.59" stroke="#F26A25" stroke-width="8"/>
<path d="M1853.12 930.796L1833.22 950.693L1853.12 970.59" stroke="#F26A25" stroke-width="8"/>
<path d="M1866 731.66L1885.9 751.557L1866 771.454" stroke="#F26A25" stroke-width="8"/>
<path d="M1905.79 731.66L1885.9 751.557L1905.79 771.454" stroke="#F26A25" stroke-width="8"/>
<path d="M1866 863.966L1885.9 883.863L1866 903.76" stroke="#F26A25" stroke-width="8"/>
<path d="M1905.79 863.966L1885.9 883.863L1905.79 903.76" stroke="#F26A25" stroke-width="8"/>
<path d="M1866 996.272L1885.9 1016.17L1866 1036.07" stroke="#F26A25" stroke-width="8"/>
<path d="M1905.79 996.272L1885.9 1016.17L1905.79 1036.07" stroke="#F26A25" stroke-width="8"/>
</g>
<mask id="mask2_94_1038" style="mask-type:alpha" maskUnits="userSpaceOnUse" x="4" y="375" width="1937" height="386">
<rect x="1940.28" y="760" width="1936.28" height="384.774" transform="rotate(180 1940.28 760)" fill="url(#paint2_linear_94_1038)"/>
</mask>
<g mask="url(#mask2_94_1038)">
<path d="M1910.48 766.685L1890.59 746.788L1910.48 726.891" stroke="#F26A25" stroke-width="8"/>
<path d="M1870.69 766.685L1890.59 746.788L1870.69 726.891" stroke="#F26A25" stroke-width="8"/>
<path d="M1910.49 634.379L1890.59 614.482L1910.49 594.585" stroke="#F26A25" stroke-width="8"/>
<path d="M1870.69 634.379L1890.59 614.482L1870.69 594.585" stroke="#F26A25" stroke-width="8"/>
<path d="M1910.48 502.075L1890.59 482.178L1910.48 462.281" stroke="#F26A25" stroke-width="8"/>
<path d="M1870.69 502.075L1890.59 482.178L1870.69 462.281" stroke="#F26A25" stroke-width="8"/>
<path d="M1857.82 701.208L1837.92 681.311L1857.82 661.414" stroke="#F26A25" stroke-width="8"/>
<path d="M1818.02 701.208L1837.92 681.311L1818.02 661.414" stroke="#F26A25" stroke-width="8"/>
<path d="M1857.81 568.902L1837.92 549.005L1857.81 529.108" stroke="#F26A25" stroke-width="8"/>
<path d="M1818.02 568.902L1837.92 549.005L1818.02 529.108" stroke="#F26A25" stroke-width="8"/>
<path d="M1857.82 436.598L1837.92 416.701L1857.82 396.804" stroke="#F26A25" stroke-width="8"/>
<path d="M1818.02 436.598L1837.92 416.701L1818.02 396.804" stroke="#F26A25" stroke-width="8"/>
<path d="M1805.57 766.685L1785.67 746.788L1805.57 726.891" stroke="#F26A25" stroke-width="8"/>
<path d="M1765.78 766.685L1785.67 746.788L1765.78 726.891" stroke="#F26A25" stroke-width="8"/>
<path d="M1805.57 634.379L1785.67 614.482L1805.57 594.585" stroke="#F26A25" stroke-width="8"/>
<path d="M1765.78 634.379L1785.67 614.482L1765.78 594.585" stroke="#F26A25" stroke-width="8"/>
<path d="M1805.57 502.075L1785.67 482.178L1805.57 462.281" stroke="#F26A25" stroke-width="8"/>
<path d="M1765.78 502.075L1785.67 482.178L1765.78 462.281" stroke="#F26A25" stroke-width="8"/>
<path d="M1752.9 701.208L1733 681.311L1752.9 661.414" stroke="#F26A25" stroke-width="8"/>
<path d="M1713.11 701.208L1733 681.311L1713.11 661.414" stroke="#F26A25" stroke-width="8"/>
<path d="M1752.9 568.902L1733 549.005L1752.9 529.108" stroke="#F26A25" stroke-width="8"/>
<path d="M1713.11 568.902L1733 549.005L1713.11 529.108" stroke="#F26A25" stroke-width="8"/>
<path d="M1752.9 436.598L1733 416.701L1752.9 396.804" stroke="#F26A25" stroke-width="8"/>
<path d="M1713.11 436.598L1733 416.701L1713.11 396.804" stroke="#F26A25" stroke-width="8"/>
<path d="M1700.66 766.628L1680.76 746.731L1700.66 726.834" stroke="#F26A25" stroke-width="8"/>
<path d="M1660.86 766.628L1680.76 746.731L1660.86 726.834" stroke="#F26A25" stroke-width="8"/>
<path d="M1700.66 634.325L1680.76 614.428L1700.66 594.531" stroke="#F26A25" stroke-width="8"/>
<path d="M1660.86 634.325L1680.76 614.428L1660.86 594.531" stroke="#F26A25" stroke-width="8"/>
<path d="M1700.66 502.021L1680.76 482.124L1700.66 462.227" stroke="#F26A25" stroke-width="8"/>
<path d="M1660.86 502.021L1680.76 482.124L1660.86 462.227" stroke="#F26A25" stroke-width="8"/>
<path d="M1647.99 701.155L1628.09 681.258L1647.99 661.361" stroke="#F26A25" stroke-width="8"/>
<path d="M1608.19 701.155L1628.09 681.258L1608.19 661.361" stroke="#F26A25" stroke-width="8"/>
<path d="M1647.99 568.85L1628.09 548.953L1647.99 529.056" stroke="#F26A25" stroke-width="8"/>
<path d="M1608.19 568.85L1628.09 548.953L1608.19 529.056" stroke="#F26A25" stroke-width="8"/>
<path d="M1647.99 436.544L1628.09 416.647L1647.99 396.75" stroke="#F26A25" stroke-width="8"/>
<path d="M1608.19 436.544L1628.09 416.647L1608.19 396.75" stroke="#F26A25" stroke-width="8"/>
<path d="M1595.75 766.576L1575.85 746.679L1595.75 726.782" stroke="#F26A25" stroke-width="8"/>
<path d="M1555.95 766.576L1575.85 746.679L1555.95 726.782" stroke="#F26A25" stroke-width="8"/>
<path d="M1595.75 634.27L1575.85 614.373L1595.75 594.476" stroke="#F26A25" stroke-width="8"/>
<path d="M1555.95 634.27L1575.85 614.373L1555.95 594.476" stroke="#F26A25" stroke-width="8"/>
<path d="M1595.75 501.964L1575.85 482.067L1595.75 462.17" stroke="#F26A25" stroke-width="8"/>
<path d="M1555.95 501.964L1575.85 482.067L1555.95 462.17" stroke="#F26A25" stroke-width="8"/>
<path d="M1543.07 701.099L1523.18 681.202L1543.07 661.305" stroke="#F26A25" stroke-width="8"/>
<path d="M1503.28 701.099L1523.18 681.202L1503.28 661.305" stroke="#F26A25" stroke-width="8"/>
<path d="M1543.07 568.794L1523.18 548.897L1543.07 529" stroke="#F26A25" stroke-width="8"/>
<path d="M1503.28 568.794L1523.18 548.897L1503.28 529" stroke="#F26A25" stroke-width="8"/>
<path d="M1543.07 436.488L1523.18 416.591L1543.07 396.694" stroke="#F26A25" stroke-width="8"/>
<path d="M1503.28 436.488L1523.18 416.591L1503.28 396.694" stroke="#F26A25" stroke-width="8"/>
<path d="M1490.83 766.521L1470.94 746.625L1490.83 726.728" stroke="#F26A25" stroke-width="8"/>
<path d="M1451.04 766.521L1470.93 746.625L1451.04 726.728" stroke="#F26A25" stroke-width="8"/>
<path d="M1490.83 634.216L1470.94 614.319L1490.83 594.422" stroke="#F26A25" stroke-width="8"/>
<path d="M1451.04 634.216L1470.93 614.319L1451.04 594.422" stroke="#F26A25" stroke-width="8"/>
<path d="M1490.83 501.91L1470.94 482.013L1490.83 462.116" stroke="#F26A25" stroke-width="8"/>
<path d="M1451.04 501.91L1470.93 482.013L1451.04 462.116" stroke="#F26A25" stroke-width="8"/>
<path d="M1438.16 701.045L1418.26 681.148L1438.16 661.251" stroke="#F26A25" stroke-width="8"/>
<path d="M1398.37 701.045L1418.26 681.148L1398.37 661.251" stroke="#F26A25" stroke-width="8"/>
<path d="M1438.16 568.74L1418.26 548.843L1438.16 528.946" stroke="#F26A25" stroke-width="8"/>
<path d="M1398.37 568.74L1418.26 548.843L1398.37 528.946" stroke="#F26A25" stroke-width="8"/>
<path d="M1438.16 436.435L1418.26 416.538L1438.16 396.641" stroke="#F26A25" stroke-width="8"/>
<path d="M1398.37 436.435L1418.26 416.538L1398.37 396.641" stroke="#F26A25" stroke-width="8"/>
<path d="M1385.92 766.466L1366.02 746.569L1385.92 726.672" stroke="#F26A25" stroke-width="8"/>
<path d="M1346.12 766.466L1366.02 746.569L1346.12 726.672" stroke="#F26A25" stroke-width="8"/>
<path d="M1385.92 634.16L1366.02 614.263L1385.92 594.366" stroke="#F26A25" stroke-width="8"/>
<path d="M1346.12 634.16L1366.02 614.263L1346.12 594.366" stroke="#F26A25" stroke-width="8"/>
<path d="M1385.92 501.857L1366.02 481.96L1385.92 462.063" stroke="#F26A25" stroke-width="8"/>
<path d="M1346.12 501.857L1366.02 481.96L1346.12 462.063" stroke="#F26A25" stroke-width="8"/>
<path d="M1333.25 700.989L1313.35 681.092L1333.25 661.195" stroke="#F26A25" stroke-width="8"/>
<path d="M1293.45 700.989L1313.35 681.092L1293.45 661.195" stroke="#F26A25" stroke-width="8"/>
<path d="M1333.25 568.686L1313.35 548.789L1333.25 528.892" stroke="#F26A25" stroke-width="8"/>
<path d="M1293.45 568.686L1313.35 548.789L1293.45 528.892" stroke="#F26A25" stroke-width="8"/>
<path d="M1333.25 436.381L1313.35 416.484L1333.25 396.587" stroke="#F26A25" stroke-width="8"/>
<path d="M1293.45 436.381L1313.35 416.484L1293.45 396.587" stroke="#F26A25" stroke-width="8"/>
<path d="M1281.01 766.412L1261.11 746.515L1281.01 726.618" stroke="#F26A25" stroke-width="8"/>
<path d="M1241.21 766.412L1261.11 746.515L1241.21 726.618" stroke="#F26A25" stroke-width="8"/>
<path d="M1281.01 634.106L1261.11 614.209L1281.01 594.312" stroke="#F26A25" stroke-width="8"/>
<path d="M1241.21 634.106L1261.11 614.209L1241.21 594.312" stroke="#F26A25" stroke-width="8"/>
<path d="M1281.01 501.804L1261.11 481.907L1281.01 462.01" stroke="#F26A25" stroke-width="8"/>
<path d="M1241.21 501.804L1261.11 481.907L1241.21 462.01" stroke="#F26A25" stroke-width="8"/>
<path d="M1228.33 700.936L1208.44 681.039L1228.33 661.143" stroke="#F26A25" stroke-width="8"/>
<path d="M1188.54 700.936L1208.43 681.039L1188.54 661.143" stroke="#F26A25" stroke-width="8"/>
<path d="M1228.33 568.634L1208.44 548.737L1228.33 528.84" stroke="#F26A25" stroke-width="8"/>
<path d="M1188.54 568.634L1208.44 548.737L1188.54 528.84" stroke="#F26A25" stroke-width="8"/>
<path d="M1228.33 436.327L1208.44 416.43L1228.33 396.533" stroke="#F26A25" stroke-width="8"/>
<path d="M1188.54 436.327L1208.44 416.43L1188.54 396.533" stroke="#F26A25" stroke-width="8"/>
<path d="M1176.09 766.358L1156.19 746.461L1176.09 726.564" stroke="#F26A25" stroke-width="8"/>
<path d="M1136.3 766.358L1156.19 746.461L1136.3 726.564" stroke="#F26A25" stroke-width="8"/>
<path d="M1176.09 634.054L1156.2 614.157L1176.09 594.26" stroke="#F26A25" stroke-width="8"/>
<path d="M1136.3 634.054L1156.19 614.157L1136.3 594.26" stroke="#F26A25" stroke-width="8"/>
<path d="M1176.09 501.748L1156.19 481.851L1176.09 461.954" stroke="#F26A25" stroke-width="8"/>
<path d="M1136.3 501.748L1156.19 481.851L1136.3 461.954" stroke="#F26A25" stroke-width="8"/>
<path d="M1123.42 700.883L1103.52 680.986L1123.42 661.089" stroke="#F26A25" stroke-width="8"/>
<path d="M1083.63 700.883L1103.52 680.986L1083.63 661.089" stroke="#F26A25" stroke-width="8"/>
<path d="M1123.42 568.577L1103.52 548.68L1123.42 528.783" stroke="#F26A25" stroke-width="8"/>
<path d="M1083.63 568.577L1103.52 548.68L1083.63 528.783" stroke="#F26A25" stroke-width="8"/>
<path d="M1123.42 436.273L1103.52 416.376L1123.42 396.479" stroke="#F26A25" stroke-width="8"/>
<path d="M1083.63 436.273L1103.52 416.376L1083.63 396.479" stroke="#F26A25" stroke-width="8"/>
<path d="M1071.18 766.305L1051.28 746.409L1071.18 726.512" stroke="#F26A25" stroke-width="8"/>
<path d="M1031.38 766.305L1051.28 746.409L1031.38 726.512" stroke="#F26A25" stroke-width="8"/>
<path d="M1071.18 633.998L1051.28 614.101L1071.18 594.204" stroke="#F26A25" stroke-width="8"/>
<path d="M1031.38 633.998L1051.28 614.101L1031.38 594.204" stroke="#F26A25" stroke-width="8"/>
<path d="M1071.18 501.694L1051.28 481.797L1071.18 461.901" stroke="#F26A25" stroke-width="8"/>
<path d="M1031.39 501.694L1051.28 481.797L1031.39 461.901" stroke="#F26A25" stroke-width="8"/>
<path d="M1018.51 700.827L998.61 680.93L1018.51 661.033" stroke="#F26A25" stroke-width="8"/>
<path d="M978.712 700.827L998.609 680.93L978.712 661.033" stroke="#F26A25" stroke-width="8"/>
<path d="M1018.51 568.521L998.61 548.624L1018.51 528.727" stroke="#F26A25" stroke-width="8"/>
<path d="M978.712 568.521L998.609 548.624L978.712 528.727" stroke="#F26A25" stroke-width="8"/>
<path d="M1018.51 436.218L998.61 416.322L1018.51 396.425" stroke="#F26A25" stroke-width="8"/>
<path d="M978.712 436.218L998.609 416.322L978.712 396.425" stroke="#F26A25" stroke-width="8"/>
<path d="M966.264 766.25L946.367 746.353L966.264 726.457" stroke="#F26A25" stroke-width="8"/>
<path d="M926.47 766.25L946.367 746.353L926.47 726.457" stroke="#F26A25" stroke-width="8"/>
<path d="M966.264 633.944L946.367 614.047L966.264 594.151" stroke="#F26A25" stroke-width="8"/>
<path d="M926.47 633.944L946.367 614.047L926.47 594.151" stroke="#F26A25" stroke-width="8"/>
<path d="M966.264 501.638L946.367 481.741L966.264 461.844" stroke="#F26A25" stroke-width="8"/>
<path d="M926.47 501.638L946.367 481.741L926.47 461.844" stroke="#F26A25" stroke-width="8"/>
<path d="M913.594 700.773L893.697 680.876L913.594 660.979" stroke="#F26A25" stroke-width="8"/>
<path d="M873.8 700.773L893.696 680.876L873.8 660.979" stroke="#F26A25" stroke-width="8"/>
<path d="M913.594 568.467L893.697 548.571L913.594 528.674" stroke="#F26A25" stroke-width="8"/>
<path d="M873.8 568.467L893.696 548.571L873.8 528.674" stroke="#F26A25" stroke-width="8"/>
<path d="M913.592 436.163L893.695 416.266L913.592 396.37" stroke="#F26A25" stroke-width="8"/>
<path d="M873.798 436.163L893.695 416.266L873.798 396.37" stroke="#F26A25" stroke-width="8"/>
<path d="M861.352 766.195L841.455 746.298L861.352 726.401" stroke="#F26A25" stroke-width="8"/>
<path d="M821.557 766.195L841.454 746.298L821.557 726.401" stroke="#F26A25" stroke-width="8"/>
<path d="M861.352 633.892L841.455 613.995L861.352 594.098" stroke="#F26A25" stroke-width="8"/>
<path d="M821.557 633.892L841.454 613.995L821.557 594.098" stroke="#F26A25" stroke-width="8"/>
<path d="M861.352 501.586L841.455 481.689L861.352 461.792" stroke="#F26A25" stroke-width="8"/>
<path d="M821.557 501.586L841.454 481.689L821.557 461.792" stroke="#F26A25" stroke-width="8"/>
<path d="M808.68 700.718L788.783 680.821L808.68 660.924" stroke="#F26A25" stroke-width="8"/>
<path d="M768.885 700.718L788.782 680.821L768.885 660.924" stroke="#F26A25" stroke-width="8"/>
<path d="M808.68 568.415L788.783 548.518L808.68 528.621" stroke="#F26A25" stroke-width="8"/>
<path d="M768.885 568.415L788.782 548.518L768.885 528.621" stroke="#F26A25" stroke-width="8"/>
<path d="M808.68 436.108L788.783 416.211L808.68 396.314" stroke="#F26A25" stroke-width="8"/>
<path d="M768.885 436.108L788.782 416.211L768.885 396.314" stroke="#F26A25" stroke-width="8"/>
<path d="M756.439 766.141L736.542 746.244L756.439 726.347" stroke="#F26A25" stroke-width="8"/>
<path d="M716.644 766.141L736.541 746.244L716.644 726.347" stroke="#F26A25" stroke-width="8"/>
<path d="M756.439 633.837L736.542 613.94L756.439 594.043" stroke="#F26A25" stroke-width="8"/>
<path d="M716.644 633.837L736.541 613.94L716.644 594.043" stroke="#F26A25" stroke-width="8"/>
<path d="M756.439 501.532L736.542 481.635L756.439 461.738" stroke="#F26A25" stroke-width="8"/>
<path d="M716.644 501.532L736.541 481.635L716.644 461.738" stroke="#F26A25" stroke-width="8"/>
<path d="M703.766 700.664L683.87 680.767L703.766 660.87" stroke="#F26A25" stroke-width="8"/>
<path d="M663.972 700.664L683.869 680.767L663.972 660.87" stroke="#F26A25" stroke-width="8"/>
<path d="M703.766 568.358L683.87 548.461L703.766 528.564" stroke="#F26A25" stroke-width="8"/>
<path d="M663.972 568.358L683.869 548.461L663.972 528.564" stroke="#F26A25" stroke-width="8"/>
<path d="M703.766 436.055L683.87 416.158L703.766 396.261" stroke="#F26A25" stroke-width="8"/>
<path d="M663.972 436.055L683.869 416.158L663.972 396.261" stroke="#F26A25" stroke-width="8"/>
<path d="M651.526 766.088L631.629 746.191L651.526 726.294" stroke="#F26A25" stroke-width="8"/>
<path d="M611.732 766.088L631.628 746.191L611.732 726.294" stroke="#F26A25" stroke-width="8"/>
<path d="M651.526 633.781L631.629 613.884L651.526 593.987" stroke="#F26A25" stroke-width="8"/>
<path d="M611.731 633.781L631.628 613.884L611.731 593.987" stroke="#F26A25" stroke-width="8"/>
<path d="M651.526 501.477L631.629 481.58L651.526 461.683" stroke="#F26A25" stroke-width="8"/>
<path d="M611.732 501.477L631.628 481.58L611.732 461.683" stroke="#F26A25" stroke-width="8"/>
<path d="M598.853 700.611L578.956 680.714L598.853 660.817" stroke="#F26A25" stroke-width="8"/>
<path d="M559.058 700.611L578.955 680.714L559.058 660.817" stroke="#F26A25" stroke-width="8"/>
<path d="M598.854 568.304L578.957 548.407L598.854 528.51" stroke="#F26A25" stroke-width="8"/>
<path d="M559.059 568.304L578.956 548.407L559.059 528.51" stroke="#F26A25" stroke-width="8"/>
<path d="M598.853 436.001L578.956 416.104L598.853 396.207" stroke="#F26A25" stroke-width="8"/>
<path d="M559.058 436.001L578.955 416.104L559.058 396.207" stroke="#F26A25" stroke-width="8"/>
<path d="M546.613 766.033L526.716 746.136L546.613 726.239" stroke="#F26A25" stroke-width="8"/>
<path d="M506.818 766.033L526.715 746.136L506.818 726.239" stroke="#F26A25" stroke-width="8"/>
<path d="M546.613 633.727L526.716 613.83L546.613 593.933" stroke="#F26A25" stroke-width="8"/>
<path d="M506.818 633.727L526.715 613.83L506.818 593.933" stroke="#F26A25" stroke-width="8"/>
<path d="M546.613 501.423L526.716 481.526L546.613 461.629" stroke="#F26A25" stroke-width="8"/>
<path d="M506.818 501.423L526.715 481.526L506.818 461.629" stroke="#F26A25" stroke-width="8"/>
<path d="M493.941 700.556L474.044 680.659L493.941 660.762" stroke="#F26A25" stroke-width="8"/>
<path d="M454.146 700.556L474.043 680.659L454.146 660.762" stroke="#F26A25" stroke-width="8"/>
<path d="M493.941 568.253L474.044 548.356L493.941 528.459" stroke="#F26A25" stroke-width="8"/>
<path d="M454.146 568.253L474.043 548.356L454.146 528.459" stroke="#F26A25" stroke-width="8"/>
<path d="M493.941 435.946L474.044 416.049L493.941 396.152" stroke="#F26A25" stroke-width="8"/>
<path d="M454.146 435.946L474.043 416.049L454.146 396.152" stroke="#F26A25" stroke-width="8"/>
<path d="M441.698 765.976L421.801 746.079L441.698 726.182" stroke="#F26A25" stroke-width="8"/>
<path d="M401.903 765.976L421.8 746.079L401.903 726.182" stroke="#F26A25" stroke-width="8"/>
<path d="M441.698 633.673L421.801 613.776L441.698 593.88" stroke="#F26A25" stroke-width="8"/>
<path d="M401.903 633.673L421.8 613.776L401.903 593.88" stroke="#F26A25" stroke-width="8"/>
<path d="M441.697 501.369L421.8 481.472L441.697 461.575" stroke="#F26A25" stroke-width="8"/>
<path d="M401.903 501.369L421.799 481.472L401.903 461.575" stroke="#F26A25" stroke-width="8"/>
<path d="M389.026 700.503L369.129 680.606L389.026 660.709" stroke="#F26A25" stroke-width="8"/>
<path d="M349.231 700.503L369.128 680.606L349.231 660.709" stroke="#F26A25" stroke-width="8"/>
<path d="M389.025 568.198L369.128 548.301L389.025 528.404" stroke="#F26A25" stroke-width="8"/>
<path d="M349.231 568.198L369.127 548.301L349.231 528.404" stroke="#F26A25" stroke-width="8"/>
<path d="M389.026 435.892L369.129 415.995L389.026 396.098" stroke="#F26A25" stroke-width="8"/>
<path d="M349.231 435.892L369.128 415.995L349.231 396.098" stroke="#F26A25" stroke-width="8"/>
<path d="M336.786 765.923L316.889 746.026L336.786 726.13" stroke="#F26A25" stroke-width="8"/>
<path d="M296.991 765.923L316.888 746.026L296.991 726.13" stroke="#F26A25" stroke-width="8"/>
<path d="M336.786 633.621L316.889 613.724L336.786 593.827" stroke="#F26A25" stroke-width="8"/>
<path d="M296.991 633.621L316.888 613.724L296.991 593.827" stroke="#F26A25" stroke-width="8"/>
<path d="M336.786 501.315L316.889 481.418L336.786 461.521" stroke="#F26A25" stroke-width="8"/>
<path d="M296.991 501.315L316.888 481.418L296.991 461.521" stroke="#F26A25" stroke-width="8"/>
<path d="M284.114 700.45L264.217 680.553L284.114 660.656" stroke="#F26A25" stroke-width="8"/>
<path d="M244.319 700.45L264.216 680.553L244.319 660.656" stroke="#F26A25" stroke-width="8"/>
<path d="M284.113 568.144L264.216 548.247L284.113 528.35" stroke="#F26A25" stroke-width="8"/>
<path d="M244.318 568.144L264.215 548.247L244.318 528.35" stroke="#F26A25" stroke-width="8"/>
<path d="M284.114 435.838L264.217 415.941L284.114 396.044" stroke="#F26A25" stroke-width="8"/>
<path d="M244.319 435.838L264.216 415.941L244.319 396.044" stroke="#F26A25" stroke-width="8"/>
<path d="M231.872 765.87L211.975 745.973L231.872 726.076" stroke="#F26A25" stroke-width="8"/>
<path d="M192.077 765.87L211.974 745.973L192.077 726.076" stroke="#F26A25" stroke-width="8"/>
<path d="M231.871 633.564L211.975 613.667L231.871 593.77" stroke="#F26A25" stroke-width="8"/>
<path d="M192.077 633.564L211.974 613.667L192.077 593.77" stroke="#F26A25" stroke-width="8"/>
<path d="M231.872 501.258L211.975 481.361L231.872 461.464" stroke="#F26A25" stroke-width="8"/>
<path d="M192.077 501.258L211.974 481.361L192.077 461.464" stroke="#F26A25" stroke-width="8"/>
<path d="M179.199 700.394L159.302 680.497L179.199 660.6" stroke="#F26A25" stroke-width="8"/>
<path d="M139.405 700.394L159.301 680.497L139.405 660.6" stroke="#F26A25" stroke-width="8"/>
<path d="M179.199 568.087L159.302 548.19L179.199 528.293" stroke="#F26A25" stroke-width="8"/>
<path d="M139.405 568.087L159.301 548.19L139.405 528.293" stroke="#F26A25" stroke-width="8"/>
<path d="M179.199 435.783L159.302 415.886L179.199 395.989" stroke="#F26A25" stroke-width="8"/>
<path d="M139.405 435.783L159.301 415.886L139.405 395.989" stroke="#F26A25" stroke-width="8"/>
<path d="M126.96 765.814L107.063 745.917L126.96 726.02" stroke="#F26A25" stroke-width="8"/>
<path d="M87.1649 765.814L107.062 745.917L87.1649 726.02" stroke="#F26A25" stroke-width="8"/>
<path d="M126.96 633.51L107.063 613.613L126.96 593.716" stroke="#F26A25" stroke-width="8"/>
<path d="M87.1649 633.51L107.062 613.613L87.1649 593.716" stroke="#F26A25" stroke-width="8"/>
<path d="M126.96 501.205L107.063 481.309L126.96 461.412" stroke="#F26A25" stroke-width="8"/>
<path d="M87.1649 501.205L107.062 481.309L87.1649 461.412" stroke="#F26A25" stroke-width="8"/>
<path d="M74.2876 700.34L54.3907 680.443L74.2876 660.546" stroke="#F26A25" stroke-width="8"/>
<path d="M34.4928 700.34L54.3897 680.443L34.4928 660.546" stroke="#F26A25" stroke-width="8"/>
<path d="M74.2876 568.034L54.3907 548.137L74.2876 528.24" stroke="#F26A25" stroke-width="8"/>
<path d="M34.4928 568.034L54.3897 548.137L34.4928 528.24" stroke="#F26A25" stroke-width="8"/>
<path d="M74.2876 435.729L54.3907 415.832L74.2876 395.935" stroke="#F26A25" stroke-width="8"/>
<path d="M34.4928 435.729L54.3897 415.832L34.4928 395.935" stroke="#F26A25" stroke-width="8"/>
</g>
<defs>
<linearGradient id="paint0_linear_94_1038" x1="972.142" y1="0" x2="972.142" y2="762.965" gradientUnits="userSpaceOnUse">
<stop stop-color="#D9D9D9" stop-opacity="0"/>
<stop offset="1" stop-color="#EC2227"/>
</linearGradient>
<linearGradient id="paint1_linear_94_1038" x1="968.142" y1="672" x2="968.142" y2="1434.97" gradientUnits="userSpaceOnUse">
<stop stop-color="#D9D9D9" stop-opacity="0"/>
<stop offset="1" stop-color="#EC2227"/>
</linearGradient>
<linearGradient id="paint2_linear_94_1038" x1="2908.43" y1="760" x2="2908.43" y2="1522.97" gradientUnits="userSpaceOnUse">
<stop stop-color="#D9D9D9" stop-opacity="0"/>
<stop offset="1" stop-color="#D9D9D9"/>
</linearGradient>
</defs>
</svg>
