<svg width="43" height="50" viewBox="0 0 43 50" fill="none" xmlns="http://www.w3.org/2000/svg">
<path d="M27.4061 14.7925C26.7157 14.0443 26.1829 13.1696 25.8384 12.2188C25.4939 11.2679 25.3445 10.2597 25.3988 9.25197C25.453 8.24428 25.7098 7.25705 26.1545 6.34706C26.5992 5.43707 27.2229 4.62227 27.9898 3.94953C28.7567 3.27679 29.6517 2.75938 30.6232 2.42706C31.5947 2.09474 32.6237 1.95406 33.6508 2.01312C34.678 2.07218 35.6831 2.32982 36.6084 2.7712C37.5336 3.21258 38.3608 3.82901 39.0423 4.58503C40.4083 6.10045 41.1073 8.08446 40.9866 10.1037C40.8659 12.1229 39.9353 14.0132 38.3981 15.3617C36.8608 16.7102 34.8419 17.4072 32.7824 17.3006C30.7228 17.1939 28.79 16.2923 27.4061 14.7925ZM27.4061 14.7925L2 35.2075M27.4061 35.2075C26.7157 35.9557 26.1829 36.8304 25.8384 37.7812C25.4939 38.7321 25.3445 39.7403 25.3988 40.748C25.453 41.7557 25.7098 42.7429 26.1545 43.6529C26.5992 44.5629 27.2229 45.3777 27.9898 46.0505C28.7567 46.7232 29.6517 47.2406 30.6232 47.5729C31.5947 47.9053 32.6237 48.0459 33.6508 47.9869C34.678 47.9278 35.6831 47.6702 36.6084 47.2288C37.5336 46.7874 38.3608 46.171 39.0423 45.415C40.4083 43.8996 41.1073 41.9155 40.9866 39.8963C40.8659 37.8771 39.9353 35.9868 38.3981 34.6383C36.8608 33.2898 34.8419 32.5928 32.7824 32.6994C30.7228 32.8061 28.79 33.7077 27.4061 35.2075ZM27.4061 35.2075L2 14.7925" stroke="#552495" stroke-width="4" stroke-linecap="round" stroke-linejoin="round"/>
</svg>
