<svg width="276" height="276" viewBox="0 0 276 276" fill="none" xmlns="http://www.w3.org/2000/svg">
<mask id="mask0_56_1383" style="mask-type:alpha" maskUnits="userSpaceOnUse" x="0" y="0" width="276" height="276">
<circle cx="5.52" cy="5.52" r="5.52" transform="matrix(1 0 0 -1 0 11.04)" fill="#EC2227" fill-opacity="0.6"/>
<circle cx="5.52" cy="5.52" r="5.52" transform="matrix(1 0 0 -1 0 27.6001)" fill="#EC2227" fill-opacity="0.6"/>
<circle cx="5.52" cy="5.52" r="5.52" transform="matrix(1 0 0 -1 0 44.1599)" fill="#EC2227" fill-opacity="0.6"/>
<circle cx="5.52" cy="5.52" r="5.52" transform="matrix(1 0 0 -1 0 60.72)" fill="#EC2227" fill-opacity="0.6"/>
<circle cx="5.52" cy="5.52" r="5.52" transform="matrix(1 0 0 -1 0 110.4)" fill="#EC2227" fill-opacity="0.6"/>
<circle cx="5.52" cy="5.52" r="5.52" transform="matrix(1 0 0 -1 0 126.96)" fill="#EC2227" fill-opacity="0.6"/>
<circle cx="5.52" cy="5.52" r="5.52" transform="matrix(1 0 0 -1 0 143.52)" fill="#EC2227" fill-opacity="0.6"/>
<circle cx="5.52" cy="5.52" r="5.52" transform="matrix(1 0 0 -1 0 160.08)" fill="#EC2227" fill-opacity="0.6"/>
<circle cx="5.52" cy="5.52" r="5.52" transform="matrix(1 0 0 -1 0 176.64)" fill="#EC2227" fill-opacity="0.6"/>
<circle cx="5.52" cy="5.52" r="5.52" transform="matrix(1 0 0 -1 0 226.32)" fill="#EC2227" fill-opacity="0.6"/>
<circle cx="5.52" cy="5.52" r="5.52" transform="matrix(1 0 0 -1 0 242.88)" fill="#EC2227" fill-opacity="0.6"/>
<circle cx="5.52" cy="5.52" r="5.52" transform="matrix(1 0 0 -1 0 259.44)" fill="#EC2227" fill-opacity="0.6"/>
<circle cx="5.52" cy="5.52" r="5.52" transform="matrix(1 0 0 -1 0 276)" fill="#EC2227" fill-opacity="0.6"/>
<circle cx="5.52" cy="5.52" r="5.52" transform="matrix(1 0 0 -1 16.5601 11.04)" fill="#EC2227" fill-opacity="0.6"/>
<circle cx="5.52" cy="5.52" r="5.52" transform="matrix(1 0 0 -1 16.5601 27.6001)" fill="#EC2227" fill-opacity="0.6"/>
<circle cx="5.52" cy="5.52" r="5.52" transform="matrix(1 0 0 -1 16.5601 44.1599)" fill="#EC2227" fill-opacity="0.6"/>
<circle cx="5.52" cy="5.52" r="5.52" transform="matrix(1 0 0 -1 16.5601 77.28)" fill="#EC2227" fill-opacity="0.6"/>
<circle cx="5.52" cy="5.52" r="5.52" transform="matrix(1 0 0 -1 16.5601 93.8401)" fill="#EC2227" fill-opacity="0.6"/>
<circle cx="5.52" cy="5.52" r="5.52" transform="matrix(1 0 0 -1 16.5601 110.4)" fill="#EC2227" fill-opacity="0.6"/>
<circle cx="5.52" cy="5.52" r="5.52" transform="matrix(1 0 0 -1 16.5601 126.96)" fill="#EC2227" fill-opacity="0.6"/>
<circle cx="5.52" cy="5.52" r="5.52" transform="matrix(1 0 0 -1 16.5601 143.52)" fill="#EC2227" fill-opacity="0.6"/>
<circle cx="5.52" cy="5.52" r="5.52" transform="matrix(1 0 0 -1 16.5601 160.08)" fill="#EC2227" fill-opacity="0.6"/>
<circle cx="5.52" cy="5.52" r="5.52" transform="matrix(1 0 0 -1 16.5601 176.64)" fill="#EC2227" fill-opacity="0.6"/>
<circle cx="5.52" cy="5.52" r="5.52" transform="matrix(1 0 0 -1 16.5601 193.2)" fill="#EC2227" fill-opacity="0.6"/>
<circle cx="5.52" cy="5.52" r="5.52" transform="matrix(1 0 0 -1 16.5601 209.76)" fill="#EC2227" fill-opacity="0.6"/>
<circle cx="5.52" cy="5.52" r="5.52" transform="matrix(1 0 0 -1 16.5601 242.88)" fill="#EC2227" fill-opacity="0.6"/>
<circle cx="5.52" cy="5.52" r="5.52" transform="matrix(1 0 0 -1 16.5601 259.44)" fill="#EC2227" fill-opacity="0.6"/>
<circle cx="5.52" cy="5.52" r="5.52" transform="matrix(1 0 0 -1 16.5601 276)" fill="#EC2227" fill-opacity="0.6"/>
<circle cx="5.52" cy="5.52" r="5.52" transform="matrix(1 0 0 -1 33.1199 11.04)" fill="#EC2227" fill-opacity="0.6"/>
<circle cx="5.52" cy="5.52" r="5.52" transform="matrix(1 0 0 -1 33.1199 27.6001)" fill="#EC2227" fill-opacity="0.6"/>
<circle cx="5.52" cy="5.52" r="5.52" transform="matrix(1 0 0 -1 33.1199 60.72)" fill="#EC2227" fill-opacity="0.6"/>
<circle cx="5.52" cy="5.52" r="5.52" transform="matrix(1 0 0 -1 33.1199 77.28)" fill="#EC2227" fill-opacity="0.6"/>
<circle cx="5.52" cy="5.52" r="5.52" transform="matrix(1 0 0 -1 33.1199 93.8401)" fill="#EC2227" fill-opacity="0.6"/>
<circle cx="5.52" cy="5.52" r="5.52" transform="matrix(1 0 0 -1 33.1199 110.4)" fill="#EC2227" fill-opacity="0.6"/>
<circle cx="5.52" cy="5.52" r="5.52" transform="matrix(1 0 0 -1 33.1199 126.96)" fill="#EC2227" fill-opacity="0.6"/>
<circle cx="5.52" cy="5.52" r="5.52" transform="matrix(1 0 0 -1 33.1199 143.52)" fill="#EC2227" fill-opacity="0.6"/>
<circle cx="5.52" cy="5.52" r="5.52" transform="matrix(1 0 0 -1 33.1199 160.08)" fill="#EC2227" fill-opacity="0.6"/>
<circle cx="5.52" cy="5.52" r="5.52" transform="matrix(1 0 0 -1 33.1199 176.64)" fill="#EC2227" fill-opacity="0.6"/>
<circle cx="5.52" cy="5.52" r="5.52" transform="matrix(1 0 0 -1 33.1199 193.2)" fill="#EC2227" fill-opacity="0.6"/>
<circle cx="5.52" cy="5.52" r="5.52" transform="matrix(1 0 0 -1 33.1199 209.76)" fill="#EC2227" fill-opacity="0.6"/>
<circle cx="5.52" cy="5.52" r="5.52" transform="matrix(1 0 0 -1 33.1199 226.32)" fill="#EC2227" fill-opacity="0.6"/>
<circle cx="5.52" cy="5.52" r="5.52" transform="matrix(1 0 0 -1 33.1199 259.44)" fill="#EC2227" fill-opacity="0.6"/>
<circle cx="5.52" cy="5.52" r="5.52" transform="matrix(1 0 0 -1 33.1199 276)" fill="#EC2227" fill-opacity="0.6"/>
<circle cx="5.52" cy="5.52" r="5.52" transform="matrix(1 0 0 -1 49.6799 11.04)" fill="#EC2227" fill-opacity="0.6"/>
<circle cx="5.52" cy="5.52" r="5.52" transform="matrix(1 0 0 -1 49.6799 44.1599)" fill="#EC2227" fill-opacity="0.6"/>
<circle cx="5.52" cy="5.52" r="5.52" transform="matrix(1 0 0 -1 49.6799 60.72)" fill="#EC2227" fill-opacity="0.6"/>
<circle cx="5.52" cy="5.52" r="5.52" transform="matrix(1 0 0 -1 49.6799 77.28)" fill="#EC2227" fill-opacity="0.6"/>
<circle cx="5.52" cy="5.52" r="5.52" transform="matrix(1 0 0 -1 49.6799 93.8401)" fill="#EC2227" fill-opacity="0.6"/>
<circle cx="5.52" cy="5.52" r="5.52" transform="matrix(1 0 0 -1 49.6799 110.4)" fill="#EC2227" fill-opacity="0.6"/>
<circle cx="5.52" cy="5.52" r="5.52" transform="matrix(1 0 0 -1 49.6799 126.96)" fill="#EC2227" fill-opacity="0.6"/>
<circle cx="5.52" cy="5.52" r="5.52" transform="matrix(1 0 0 -1 49.6799 143.52)" fill="#EC2227" fill-opacity="0.6"/>
<circle cx="5.52" cy="5.52" r="5.52" transform="matrix(1 0 0 -1 49.6799 160.08)" fill="#EC2227" fill-opacity="0.6"/>
<circle cx="5.52" cy="5.52" r="5.52" transform="matrix(1 0 0 -1 49.6799 176.64)" fill="#EC2227" fill-opacity="0.6"/>
<circle cx="5.52" cy="5.52" r="5.52" transform="matrix(1 0 0 -1 49.6799 193.2)" fill="#EC2227" fill-opacity="0.6"/>
<circle cx="5.52" cy="5.52" r="5.52" transform="matrix(1 0 0 -1 49.6799 209.76)" fill="#EC2227" fill-opacity="0.6"/>
<circle cx="5.52" cy="5.52" r="5.52" transform="matrix(1 0 0 -1 49.6799 226.32)" fill="#EC2227" fill-opacity="0.6"/>
<circle cx="5.52" cy="5.52" r="5.52" transform="matrix(1 0 0 -1 49.6799 242.88)" fill="#EC2227" fill-opacity="0.6"/>
<circle cx="5.52" cy="5.52" r="5.52" transform="matrix(1 0 0 -1 49.6799 276)" fill="#EC2227" fill-opacity="0.6"/>
<circle cx="5.52" cy="5.52" r="5.52" transform="matrix(1 0 0 -1 66.24 27.6001)" fill="#EC2227" fill-opacity="0.6"/>
<circle cx="5.52" cy="5.52" r="5.52" transform="matrix(1 0 0 -1 66.24 44.1599)" fill="#EC2227" fill-opacity="0.6"/>
<circle cx="5.52" cy="5.52" r="5.52" transform="matrix(1 0 0 -1 66.24 60.72)" fill="#EC2227" fill-opacity="0.6"/>
<circle cx="5.52" cy="5.52" r="5.52" transform="matrix(1 0 0 -1 66.24 77.28)" fill="#EC2227" fill-opacity="0.6"/>
<circle cx="5.52" cy="5.52" r="5.52" transform="matrix(1 0 0 -1 66.24 93.8401)" fill="#EC2227" fill-opacity="0.6"/>
<circle cx="5.52" cy="5.52" r="5.52" transform="matrix(1 0 0 -1 66.24 110.4)" fill="#EC2227" fill-opacity="0.6"/>
<circle cx="5.52" cy="5.52" r="5.52" transform="matrix(1 0 0 -1 66.24 126.96)" fill="#EC2227" fill-opacity="0.6"/>
<circle cx="5.52" cy="5.52" r="5.52" transform="matrix(1 0 0 -1 66.24 143.52)" fill="#EC2227" fill-opacity="0.6"/>
<circle cx="5.52" cy="5.52" r="5.52" transform="matrix(1 0 0 -1 66.24 160.08)" fill="#EC2227" fill-opacity="0.6"/>
<circle cx="5.52" cy="5.52" r="5.52" transform="matrix(1 0 0 -1 66.24 176.64)" fill="#EC2227" fill-opacity="0.6"/>
<circle cx="5.52" cy="5.52" r="5.52" transform="matrix(1 0 0 -1 66.24 193.2)" fill="#EC2227" fill-opacity="0.6"/>
<circle cx="5.52" cy="5.52" r="5.52" transform="matrix(1 0 0 -1 66.24 209.76)" fill="#EC2227" fill-opacity="0.6"/>
<circle cx="5.52" cy="5.52" r="5.52" transform="matrix(1 0 0 -1 66.24 226.32)" fill="#EC2227" fill-opacity="0.6"/>
<circle cx="5.52" cy="5.52" r="5.52" transform="matrix(1 0 0 -1 66.24 242.88)" fill="#EC2227" fill-opacity="0.6"/>
<circle cx="5.52" cy="5.52" r="5.52" transform="matrix(1 0 0 -1 66.24 259.44)" fill="#EC2227" fill-opacity="0.6"/>
<circle cx="5.52" cy="5.52" r="5.52" transform="matrix(1 0 0 -1 82.7998 27.6001)" fill="#EC2227" fill-opacity="0.6"/>
<circle cx="5.52" cy="5.52" r="5.52" transform="matrix(1 0 0 -1 82.7998 44.1599)" fill="#EC2227" fill-opacity="0.6"/>
<circle cx="5.52" cy="5.52" r="5.52" transform="matrix(1 0 0 -1 82.7998 60.72)" fill="#EC2227" fill-opacity="0.6"/>
<circle cx="5.52" cy="5.52" r="5.52" transform="matrix(1 0 0 -1 82.7998 77.28)" fill="#EC2227" fill-opacity="0.6"/>
<circle cx="5.52" cy="5.52" r="5.52" transform="matrix(1 0 0 -1 82.7998 93.8401)" fill="#EC2227" fill-opacity="0.6"/>
<circle cx="5.52" cy="5.52" r="5.52" transform="matrix(1 0 0 -1 82.7998 110.4)" fill="#EC2227" fill-opacity="0.6"/>
<circle cx="5.52" cy="5.52" r="5.52" transform="matrix(1 0 0 -1 82.7998 126.96)" fill="#EC2227" fill-opacity="0.6"/>
<circle cx="5.52" cy="5.52" r="5.52" transform="matrix(1 0 0 -1 82.7998 143.52)" fill="#EC2227" fill-opacity="0.6"/>
<circle cx="5.52" cy="5.52" r="5.52" transform="matrix(1 0 0 -1 82.7998 160.08)" fill="#EC2227" fill-opacity="0.6"/>
<circle cx="5.52" cy="5.52" r="5.52" transform="matrix(1 0 0 -1 82.7998 176.64)" fill="#EC2227" fill-opacity="0.6"/>
<circle cx="5.52" cy="5.52" r="5.52" transform="matrix(1 0 0 -1 82.7998 193.2)" fill="#EC2227" fill-opacity="0.6"/>
<circle cx="5.52" cy="5.52" r="5.52" transform="matrix(1 0 0 -1 82.7998 209.76)" fill="#EC2227" fill-opacity="0.6"/>
<circle cx="5.52" cy="5.52" r="5.52" transform="matrix(1 0 0 -1 82.7998 226.32)" fill="#EC2227" fill-opacity="0.6"/>
<circle cx="5.52" cy="5.52" r="5.52" transform="matrix(1 0 0 -1 82.7998 242.88)" fill="#EC2227" fill-opacity="0.6"/>
<circle cx="5.52" cy="5.52" r="5.52" transform="matrix(1 0 0 -1 82.7998 259.44)" fill="#EC2227" fill-opacity="0.6"/>
<circle cx="5.52" cy="5.52" r="5.52" transform="matrix(1 0 0 -1 99.3599 11.04)" fill="#EC2227" fill-opacity="0.6"/>
<circle cx="5.52" cy="5.52" r="5.52" transform="matrix(1 0 0 -1 99.3599 27.6001)" fill="#EC2227" fill-opacity="0.6"/>
<circle cx="5.52" cy="5.52" r="5.52" transform="matrix(1 0 0 -1 99.3599 44.1599)" fill="#EC2227" fill-opacity="0.6"/>
<circle cx="5.52" cy="5.52" r="5.52" transform="matrix(1 0 0 -1 99.3599 60.72)" fill="#EC2227" fill-opacity="0.6"/>
<circle cx="5.52" cy="5.52" r="5.52" transform="matrix(1 0 0 -1 99.3599 77.28)" fill="#EC2227" fill-opacity="0.6"/>
<circle cx="5.52" cy="5.52" r="5.52" transform="matrix(1 0 0 -1 99.3599 93.8401)" fill="#EC2227" fill-opacity="0.6"/>
<circle cx="5.52" cy="5.52" r="5.52" transform="matrix(1 0 0 -1 99.3599 110.4)" fill="#EC2227" fill-opacity="0.6"/>
<circle cx="5.52" cy="5.52" r="5.52" transform="matrix(1 0 0 -1 99.3599 126.96)" fill="#EC2227" fill-opacity="0.6"/>
<circle cx="5.52" cy="5.52" r="5.52" transform="matrix(1 0 0 -1 99.3599 143.52)" fill="#EC2227" fill-opacity="0.6"/>
<circle cx="5.52" cy="5.52" r="5.52" transform="matrix(1 0 0 -1 99.3599 160.08)" fill="#EC2227" fill-opacity="0.6"/>
<circle cx="5.52" cy="5.52" r="5.52" transform="matrix(1 0 0 -1 99.3599 176.64)" fill="#EC2227" fill-opacity="0.6"/>
<circle cx="5.52" cy="5.52" r="5.52" transform="matrix(1 0 0 -1 99.3599 193.2)" fill="#EC2227" fill-opacity="0.6"/>
<circle cx="5.52" cy="5.52" r="5.52" transform="matrix(1 0 0 -1 99.3599 209.76)" fill="#EC2227" fill-opacity="0.6"/>
<circle cx="5.52" cy="5.52" r="5.52" transform="matrix(1 0 0 -1 99.3599 226.32)" fill="#EC2227" fill-opacity="0.6"/>
<circle cx="5.52" cy="5.52" r="5.52" transform="matrix(1 0 0 -1 99.3599 242.88)" fill="#EC2227" fill-opacity="0.6"/>
<circle cx="5.52" cy="5.52" r="5.52" transform="matrix(1 0 0 -1 99.3599 259.44)" fill="#EC2227" fill-opacity="0.6"/>
<circle cx="5.52" cy="5.52" r="5.52" transform="matrix(1 0 0 -1 99.3599 276)" fill="#EC2227" fill-opacity="0.6"/>
<circle cx="5.52" cy="5.52" r="5.52" transform="matrix(1 0 0 -1 115.92 11.04)" fill="#EC2227" fill-opacity="0.6"/>
<circle cx="5.52" cy="5.52" r="5.52" transform="matrix(1 0 0 -1 115.92 27.6001)" fill="#EC2227" fill-opacity="0.6"/>
<circle cx="5.52" cy="5.52" r="5.52" transform="matrix(1 0 0 -1 115.92 44.1599)" fill="#EC2227" fill-opacity="0.6"/>
<circle cx="5.52" cy="5.52" r="5.52" transform="matrix(1 0 0 -1 115.92 60.72)" fill="#EC2227" fill-opacity="0.6"/>
<circle cx="5.52" cy="5.52" r="5.52" transform="matrix(1 0 0 -1 115.92 77.28)" fill="#EC2227" fill-opacity="0.6"/>
<circle cx="5.52" cy="5.52" r="5.52" transform="matrix(1 0 0 -1 115.92 93.8401)" fill="#EC2227" fill-opacity="0.6"/>
<circle cx="5.52" cy="5.52" r="5.52" transform="matrix(1 0 0 -1 115.92 110.4)" fill="#EC2227" fill-opacity="0.6"/>
<circle cx="5.52" cy="5.52" r="5.52" transform="matrix(1 0 0 -1 115.92 126.96)" fill="#EC2227" fill-opacity="0.6"/>
<circle cx="5.52" cy="5.52" r="5.52" transform="matrix(1 0 0 -1 115.92 143.52)" fill="#EC2227" fill-opacity="0.6"/>
<circle cx="5.52" cy="5.52" r="5.52" transform="matrix(1 0 0 -1 115.92 160.08)" fill="#EC2227" fill-opacity="0.6"/>
<circle cx="5.52" cy="5.52" r="5.52" transform="matrix(1 0 0 -1 115.92 176.64)" fill="#EC2227" fill-opacity="0.6"/>
<circle cx="5.52" cy="5.52" r="5.52" transform="matrix(1 0 0 -1 115.92 193.2)" fill="#EC2227" fill-opacity="0.6"/>
<circle cx="5.52" cy="5.52" r="5.52" transform="matrix(1 0 0 -1 115.92 209.76)" fill="#EC2227" fill-opacity="0.6"/>
<circle cx="5.52" cy="5.52" r="5.52" transform="matrix(1 0 0 -1 115.92 226.32)" fill="#EC2227" fill-opacity="0.6"/>
<circle cx="5.52" cy="5.52" r="5.52" transform="matrix(1 0 0 -1 115.92 242.88)" fill="#EC2227" fill-opacity="0.6"/>
<circle cx="5.52" cy="5.52" r="5.52" transform="matrix(1 0 0 -1 115.92 259.44)" fill="#EC2227" fill-opacity="0.6"/>
<circle cx="5.52" cy="5.52" r="5.52" transform="matrix(1 0 0 -1 115.92 276)" fill="#EC2227" fill-opacity="0.6"/>
<circle cx="5.52" cy="5.52" r="5.52" transform="matrix(1 0 0 -1 132.48 11.04)" fill="#EC2227" fill-opacity="0.6"/>
<circle cx="5.52" cy="5.52" r="5.52" transform="matrix(1 0 0 -1 132.48 27.6001)" fill="#EC2227" fill-opacity="0.6"/>
<circle cx="5.52" cy="5.52" r="5.52" transform="matrix(1 0 0 -1 132.48 44.1599)" fill="#EC2227" fill-opacity="0.6"/>
<circle cx="5.52" cy="5.52" r="5.52" transform="matrix(1 0 0 -1 132.48 60.72)" fill="#EC2227" fill-opacity="0.6"/>
<circle cx="5.52" cy="5.52" r="5.52" transform="matrix(1 0 0 -1 132.48 77.28)" fill="#EC2227" fill-opacity="0.6"/>
<circle cx="5.52" cy="5.52" r="5.52" transform="matrix(1 0 0 -1 132.48 93.8401)" fill="#EC2227" fill-opacity="0.6"/>
<circle cx="5.52" cy="5.52" r="5.52" transform="matrix(1 0 0 -1 132.48 110.4)" fill="#EC2227" fill-opacity="0.6"/>
<circle cx="5.52" cy="5.52" r="5.52" transform="matrix(1 0 0 -1 132.48 126.96)" fill="#EC2227" fill-opacity="0.6"/>
<circle cx="5.52" cy="5.52" r="5.52" transform="matrix(1 0 0 -1 132.48 143.52)" fill="#EC2227" fill-opacity="0.6"/>
<circle cx="5.52" cy="5.52" r="5.52" transform="matrix(1 0 0 -1 132.48 160.08)" fill="#EC2227" fill-opacity="0.6"/>
<circle cx="5.52" cy="5.52" r="5.52" transform="matrix(1 0 0 -1 132.48 176.64)" fill="#EC2227" fill-opacity="0.6"/>
<circle cx="5.52" cy="5.52" r="5.52" transform="matrix(1 0 0 -1 132.48 193.2)" fill="#EC2227" fill-opacity="0.6"/>
<circle cx="5.52" cy="5.52" r="5.52" transform="matrix(1 0 0 -1 132.48 209.76)" fill="#EC2227" fill-opacity="0.6"/>
<circle cx="5.52" cy="5.52" r="5.52" transform="matrix(1 0 0 -1 132.48 226.32)" fill="#EC2227" fill-opacity="0.6"/>
<circle cx="5.52" cy="5.52" r="5.52" transform="matrix(1 0 0 -1 132.48 242.88)" fill="#EC2227" fill-opacity="0.6"/>
<circle cx="5.52" cy="5.52" r="5.52" transform="matrix(1 0 0 -1 132.48 259.44)" fill="#EC2227" fill-opacity="0.6"/>
<circle cx="5.52" cy="5.52" r="5.52" transform="matrix(1 0 0 -1 132.48 276)" fill="#EC2227" fill-opacity="0.6"/>
<circle cx="5.52" cy="5.52" r="5.52" transform="matrix(1 0 0 -1 149.04 11.04)" fill="#EC2227" fill-opacity="0.6"/>
<circle cx="5.52" cy="5.52" r="5.52" transform="matrix(1 0 0 -1 149.04 27.6001)" fill="#EC2227" fill-opacity="0.6"/>
<circle cx="5.52" cy="5.52" r="5.52" transform="matrix(1 0 0 -1 149.04 44.1599)" fill="#EC2227" fill-opacity="0.6"/>
<circle cx="5.52" cy="5.52" r="5.52" transform="matrix(1 0 0 -1 149.04 60.72)" fill="#EC2227" fill-opacity="0.6"/>
<circle cx="5.52" cy="5.52" r="5.52" transform="matrix(1 0 0 -1 149.04 77.28)" fill="#EC2227" fill-opacity="0.6"/>
<circle cx="5.52" cy="5.52" r="5.52" transform="matrix(1 0 0 -1 149.04 93.8401)" fill="#EC2227" fill-opacity="0.6"/>
<circle cx="5.52" cy="5.52" r="5.52" transform="matrix(1 0 0 -1 149.04 110.4)" fill="#EC2227" fill-opacity="0.6"/>
<circle cx="5.52" cy="5.52" r="5.52" transform="matrix(1 0 0 -1 149.04 126.96)" fill="#EC2227" fill-opacity="0.6"/>
<circle cx="5.52" cy="5.52" r="5.52" transform="matrix(1 0 0 -1 149.04 143.52)" fill="#EC2227" fill-opacity="0.6"/>
<circle cx="5.52" cy="5.52" r="5.52" transform="matrix(1 0 0 -1 149.04 160.08)" fill="#EC2227" fill-opacity="0.6"/>
<circle cx="5.52" cy="5.52" r="5.52" transform="matrix(1 0 0 -1 149.04 176.64)" fill="#EC2227" fill-opacity="0.6"/>
<circle cx="5.52" cy="5.52" r="5.52" transform="matrix(1 0 0 -1 149.04 193.2)" fill="#EC2227" fill-opacity="0.6"/>
<circle cx="5.52" cy="5.52" r="5.52" transform="matrix(1 0 0 -1 149.04 209.76)" fill="#EC2227" fill-opacity="0.6"/>
<circle cx="5.52" cy="5.52" r="5.52" transform="matrix(1 0 0 -1 149.04 226.32)" fill="#EC2227" fill-opacity="0.6"/>
<circle cx="5.52" cy="5.52" r="5.52" transform="matrix(1 0 0 -1 149.04 242.88)" fill="#EC2227" fill-opacity="0.6"/>
<circle cx="5.52" cy="5.52" r="5.52" transform="matrix(1 0 0 -1 149.04 259.44)" fill="#EC2227" fill-opacity="0.6"/>
<circle cx="5.52" cy="5.52" r="5.52" transform="matrix(1 0 0 -1 149.04 276)" fill="#EC2227" fill-opacity="0.6"/>
<circle cx="5.52" cy="5.52" r="5.52" transform="matrix(1 0 0 -1 165.6 11.04)" fill="#EC2227" fill-opacity="0.6"/>
<circle cx="5.52" cy="5.52" r="5.52" transform="matrix(1 0 0 -1 165.6 27.6001)" fill="#EC2227" fill-opacity="0.6"/>
<circle cx="5.52" cy="5.52" r="5.52" transform="matrix(1 0 0 -1 165.6 44.1599)" fill="#EC2227" fill-opacity="0.6"/>
<circle cx="5.52" cy="5.52" r="5.52" transform="matrix(1 0 0 -1 165.6 60.72)" fill="#EC2227" fill-opacity="0.6"/>
<circle cx="5.52" cy="5.52" r="5.52" transform="matrix(1 0 0 -1 165.6 77.28)" fill="#EC2227" fill-opacity="0.6"/>
<circle cx="5.52" cy="5.52" r="5.52" transform="matrix(1 0 0 -1 165.6 93.8401)" fill="#EC2227" fill-opacity="0.6"/>
<circle cx="5.52" cy="5.52" r="5.52" transform="matrix(1 0 0 -1 165.6 110.4)" fill="#EC2227" fill-opacity="0.6"/>
<circle cx="5.52" cy="5.52" r="5.52" transform="matrix(1 0 0 -1 165.6 126.96)" fill="#EC2227" fill-opacity="0.6"/>
<circle cx="5.52" cy="5.52" r="5.52" transform="matrix(1 0 0 -1 165.6 143.52)" fill="#EC2227" fill-opacity="0.6"/>
<circle cx="5.52" cy="5.52" r="5.52" transform="matrix(1 0 0 -1 165.6 160.08)" fill="#EC2227" fill-opacity="0.6"/>
<circle cx="5.52" cy="5.52" r="5.52" transform="matrix(1 0 0 -1 165.6 176.64)" fill="#EC2227" fill-opacity="0.6"/>
<circle cx="5.52" cy="5.52" r="5.52" transform="matrix(1 0 0 -1 165.6 193.2)" fill="#EC2227" fill-opacity="0.6"/>
<circle cx="5.52" cy="5.52" r="5.52" transform="matrix(1 0 0 -1 165.6 209.76)" fill="#EC2227" fill-opacity="0.6"/>
<circle cx="5.52" cy="5.52" r="5.52" transform="matrix(1 0 0 -1 165.6 226.32)" fill="#EC2227" fill-opacity="0.6"/>
<circle cx="5.52" cy="5.52" r="5.52" transform="matrix(1 0 0 -1 165.6 242.88)" fill="#EC2227" fill-opacity="0.6"/>
<circle cx="5.52" cy="5.52" r="5.52" transform="matrix(1 0 0 -1 165.6 259.44)" fill="#EC2227" fill-opacity="0.6"/>
<circle cx="5.52" cy="5.52" r="5.52" transform="matrix(1 0 0 -1 165.6 276)" fill="#EC2227" fill-opacity="0.6"/>
<circle cx="5.52" cy="5.52" r="5.52" transform="matrix(1 0 0 -1 182.16 27.6001)" fill="#EC2227" fill-opacity="0.6"/>
<circle cx="5.52" cy="5.52" r="5.52" transform="matrix(1 0 0 -1 182.16 44.1599)" fill="#EC2227" fill-opacity="0.6"/>
<circle cx="5.52" cy="5.52" r="5.52" transform="matrix(1 0 0 -1 182.16 60.72)" fill="#EC2227" fill-opacity="0.6"/>
<circle cx="5.52" cy="5.52" r="5.52" transform="matrix(1 0 0 -1 182.16 77.28)" fill="#EC2227" fill-opacity="0.6"/>
<circle cx="5.52" cy="5.52" r="5.52" transform="matrix(1 0 0 -1 182.16 93.8401)" fill="#EC2227" fill-opacity="0.6"/>
<circle cx="5.52" cy="5.52" r="5.52" transform="matrix(1 0 0 -1 182.16 110.4)" fill="#EC2227" fill-opacity="0.6"/>
<circle cx="5.52" cy="5.52" r="5.52" transform="matrix(1 0 0 -1 182.16 126.96)" fill="#EC2227" fill-opacity="0.6"/>
<circle cx="5.52" cy="5.52" r="5.52" transform="matrix(1 0 0 -1 182.16 143.52)" fill="#EC2227" fill-opacity="0.6"/>
<circle cx="5.52" cy="5.52" r="5.52" transform="matrix(1 0 0 -1 182.16 160.08)" fill="#EC2227" fill-opacity="0.6"/>
<circle cx="5.52" cy="5.52" r="5.52" transform="matrix(1 0 0 -1 182.16 176.64)" fill="#EC2227" fill-opacity="0.6"/>
<circle cx="5.52" cy="5.52" r="5.52" transform="matrix(1 0 0 -1 182.16 193.2)" fill="#EC2227" fill-opacity="0.6"/>
<circle cx="5.52" cy="5.52" r="5.52" transform="matrix(1 0 0 -1 182.16 209.76)" fill="#EC2227" fill-opacity="0.6"/>
<circle cx="5.52" cy="5.52" r="5.52" transform="matrix(1 0 0 -1 182.16 226.32)" fill="#EC2227" fill-opacity="0.6"/>
<circle cx="5.52" cy="5.52" r="5.52" transform="matrix(1 0 0 -1 182.16 242.88)" fill="#EC2227" fill-opacity="0.6"/>
<circle cx="5.52" cy="5.52" r="5.52" transform="matrix(1 0 0 -1 182.16 259.44)" fill="#EC2227" fill-opacity="0.6"/>
<circle cx="5.52" cy="5.52" r="5.52" transform="matrix(1 0 0 -1 198.72 27.6001)" fill="#EC2227" fill-opacity="0.6"/>
<circle cx="5.52" cy="5.52" r="5.52" transform="matrix(1 0 0 -1 198.72 44.1599)" fill="#EC2227" fill-opacity="0.6"/>
<circle cx="5.52" cy="5.52" r="5.52" transform="matrix(1 0 0 -1 198.72 60.72)" fill="#EC2227" fill-opacity="0.6"/>
<circle cx="5.52" cy="5.52" r="5.52" transform="matrix(1 0 0 -1 198.72 77.28)" fill="#EC2227" fill-opacity="0.6"/>
<circle cx="5.52" cy="5.52" r="5.52" transform="matrix(1 0 0 -1 198.72 93.8401)" fill="#EC2227" fill-opacity="0.6"/>
<circle cx="5.52" cy="5.52" r="5.52" transform="matrix(1 0 0 -1 198.72 110.4)" fill="#EC2227" fill-opacity="0.6"/>
<circle cx="5.52" cy="5.52" r="5.52" transform="matrix(1 0 0 -1 198.72 126.96)" fill="#EC2227" fill-opacity="0.6"/>
<circle cx="5.52" cy="5.52" r="5.52" transform="matrix(1 0 0 -1 198.72 143.52)" fill="#EC2227" fill-opacity="0.6"/>
<circle cx="5.52" cy="5.52" r="5.52" transform="matrix(1 0 0 -1 198.72 160.08)" fill="#EC2227" fill-opacity="0.6"/>
<circle cx="5.52" cy="5.52" r="5.52" transform="matrix(1 0 0 -1 198.72 176.64)" fill="#EC2227" fill-opacity="0.6"/>
<circle cx="5.52" cy="5.52" r="5.52" transform="matrix(1 0 0 -1 198.72 193.2)" fill="#EC2227" fill-opacity="0.6"/>
<circle cx="5.52" cy="5.52" r="5.52" transform="matrix(1 0 0 -1 198.72 209.76)" fill="#EC2227" fill-opacity="0.6"/>
<circle cx="5.52" cy="5.52" r="5.52" transform="matrix(1 0 0 -1 198.72 226.32)" fill="#EC2227" fill-opacity="0.6"/>
<circle cx="5.52" cy="5.52" r="5.52" transform="matrix(1 0 0 -1 198.72 242.88)" fill="#EC2227" fill-opacity="0.6"/>
<circle cx="5.52" cy="5.52" r="5.52" transform="matrix(1 0 0 -1 198.72 259.44)" fill="#EC2227" fill-opacity="0.6"/>
<circle cx="5.52" cy="5.52" r="5.52" transform="matrix(1 0 0 -1 215.28 11.04)" fill="#EC2227" fill-opacity="0.6"/>
<circle cx="5.52" cy="5.52" r="5.52" transform="matrix(1 0 0 -1 215.28 44.1599)" fill="#EC2227" fill-opacity="0.6"/>
<circle cx="5.52" cy="5.52" r="5.52" transform="matrix(1 0 0 -1 215.28 60.72)" fill="#EC2227" fill-opacity="0.6"/>
<circle cx="5.52" cy="5.52" r="5.52" transform="matrix(1 0 0 -1 215.28 77.28)" fill="#EC2227" fill-opacity="0.6"/>
<circle cx="5.52" cy="5.52" r="5.52" transform="matrix(1 0 0 -1 215.28 93.8401)" fill="#EC2227" fill-opacity="0.6"/>
<circle cx="5.52" cy="5.52" r="5.52" transform="matrix(1 0 0 -1 215.28 110.4)" fill="#EC2227" fill-opacity="0.6"/>
<circle cx="5.52" cy="5.52" r="5.52" transform="matrix(1 0 0 -1 215.28 126.96)" fill="#EC2227" fill-opacity="0.6"/>
<circle cx="5.52" cy="5.52" r="5.52" transform="matrix(1 0 0 -1 215.28 143.52)" fill="#EC2227" fill-opacity="0.6"/>
<circle cx="5.52" cy="5.52" r="5.52" transform="matrix(1 0 0 -1 215.28 160.08)" fill="#EC2227" fill-opacity="0.6"/>
<circle cx="5.52" cy="5.52" r="5.52" transform="matrix(1 0 0 -1 215.28 176.64)" fill="#EC2227" fill-opacity="0.6"/>
<circle cx="5.52" cy="5.52" r="5.52" transform="matrix(1 0 0 -1 215.28 193.2)" fill="#EC2227" fill-opacity="0.6"/>
<circle cx="5.52" cy="5.52" r="5.52" transform="matrix(1 0 0 -1 215.28 209.76)" fill="#EC2227" fill-opacity="0.6"/>
<circle cx="5.52" cy="5.52" r="5.52" transform="matrix(1 0 0 -1 215.28 226.32)" fill="#EC2227" fill-opacity="0.6"/>
<circle cx="5.52" cy="5.52" r="5.52" transform="matrix(1 0 0 -1 215.28 242.88)" fill="#EC2227" fill-opacity="0.6"/>
<circle cx="5.52" cy="5.52" r="5.52" transform="matrix(1 0 0 -1 215.28 276)" fill="#EC2227" fill-opacity="0.6"/>
<circle cx="5.52" cy="5.52" r="5.52" transform="matrix(1 0 0 -1 231.84 11.04)" fill="#EC2227" fill-opacity="0.6"/>
<circle cx="5.52" cy="5.52" r="5.52" transform="matrix(1 0 0 -1 231.84 27.6001)" fill="#EC2227" fill-opacity="0.6"/>
<circle cx="5.52" cy="5.52" r="5.52" transform="matrix(1 0 0 -1 231.84 60.72)" fill="#EC2227" fill-opacity="0.6"/>
<circle cx="5.52" cy="5.52" r="5.52" transform="matrix(1 0 0 -1 231.84 77.28)" fill="#EC2227" fill-opacity="0.6"/>
<circle cx="5.52" cy="5.52" r="5.52" transform="matrix(1 0 0 -1 231.84 93.8401)" fill="#EC2227" fill-opacity="0.6"/>
<circle cx="5.52" cy="5.52" r="5.52" transform="matrix(1 0 0 -1 231.84 110.4)" fill="#EC2227" fill-opacity="0.6"/>
<circle cx="5.52" cy="5.52" r="5.52" transform="matrix(1 0 0 -1 231.84 126.96)" fill="#EC2227" fill-opacity="0.6"/>
<circle cx="5.52" cy="5.52" r="5.52" transform="matrix(1 0 0 -1 231.84 143.52)" fill="#EC2227" fill-opacity="0.6"/>
<circle cx="5.52" cy="5.52" r="5.52" transform="matrix(1 0 0 -1 231.84 160.08)" fill="#EC2227" fill-opacity="0.6"/>
<circle cx="5.52" cy="5.52" r="5.52" transform="matrix(1 0 0 -1 231.84 176.64)" fill="#EC2227" fill-opacity="0.6"/>
<circle cx="5.52" cy="5.52" r="5.52" transform="matrix(1 0 0 -1 231.84 193.2)" fill="#EC2227" fill-opacity="0.6"/>
<circle cx="5.52" cy="5.52" r="5.52" transform="matrix(1 0 0 -1 231.84 209.76)" fill="#EC2227" fill-opacity="0.6"/>
<circle cx="5.52" cy="5.52" r="5.52" transform="matrix(1 0 0 -1 231.84 226.32)" fill="#EC2227" fill-opacity="0.6"/>
<circle cx="5.52" cy="5.52" r="5.52" transform="matrix(1 0 0 -1 231.84 259.44)" fill="#EC2227" fill-opacity="0.6"/>
<circle cx="5.52" cy="5.52" r="5.52" transform="matrix(1 0 0 -1 231.84 276)" fill="#EC2227" fill-opacity="0.6"/>
<circle cx="5.52" cy="5.52" r="5.52" transform="matrix(1 0 0 -1 248.4 11.04)" fill="#EC2227" fill-opacity="0.6"/>
<circle cx="5.52" cy="5.52" r="5.52" transform="matrix(1 0 0 -1 248.4 27.6001)" fill="#EC2227" fill-opacity="0.6"/>
<circle cx="5.52" cy="5.52" r="5.52" transform="matrix(1 0 0 -1 248.4 44.1599)" fill="#EC2227" fill-opacity="0.6"/>
<circle cx="5.52" cy="5.52" r="5.52" transform="matrix(1 0 0 -1 248.4 77.28)" fill="#EC2227" fill-opacity="0.6"/>
<circle cx="5.52" cy="5.52" r="5.52" transform="matrix(1 0 0 -1 248.4 93.8401)" fill="#EC2227" fill-opacity="0.6"/>
<circle cx="5.52" cy="5.52" r="5.52" transform="matrix(1 0 0 -1 248.4 110.4)" fill="#EC2227" fill-opacity="0.6"/>
<circle cx="5.52" cy="5.52" r="5.52" transform="matrix(1 0 0 -1 248.4 126.96)" fill="#EC2227" fill-opacity="0.6"/>
<circle cx="5.52" cy="5.52" r="5.52" transform="matrix(1 0 0 -1 248.4 143.52)" fill="#EC2227" fill-opacity="0.6"/>
<circle cx="5.52" cy="5.52" r="5.52" transform="matrix(1 0 0 -1 248.4 160.08)" fill="#EC2227" fill-opacity="0.6"/>
<circle cx="5.52" cy="5.52" r="5.52" transform="matrix(1 0 0 -1 248.4 176.64)" fill="#EC2227" fill-opacity="0.6"/>
<circle cx="5.52" cy="5.52" r="5.52" transform="matrix(1 0 0 -1 248.4 193.2)" fill="#EC2227" fill-opacity="0.6"/>
<circle cx="5.52" cy="5.52" r="5.52" transform="matrix(1 0 0 -1 248.4 209.76)" fill="#EC2227" fill-opacity="0.6"/>
<circle cx="5.52" cy="5.52" r="5.52" transform="matrix(1 0 0 -1 248.4 242.88)" fill="#EC2227" fill-opacity="0.6"/>
<circle cx="5.52" cy="5.52" r="5.52" transform="matrix(1 0 0 -1 248.4 259.44)" fill="#EC2227" fill-opacity="0.6"/>
<circle cx="5.52" cy="5.52" r="5.52" transform="matrix(1 0 0 -1 248.4 276)" fill="#EC2227" fill-opacity="0.6"/>
<circle cx="5.52" cy="5.52" r="5.52" transform="matrix(1 0 0 -1 264.96 11.04)" fill="#EC2227" fill-opacity="0.6"/>
<circle cx="5.52" cy="5.52" r="5.52" transform="matrix(1 0 0 -1 264.96 27.6001)" fill="#EC2227" fill-opacity="0.6"/>
<circle cx="5.52" cy="5.52" r="5.52" transform="matrix(1 0 0 -1 264.96 44.1599)" fill="#EC2227" fill-opacity="0.6"/>
<circle cx="5.52" cy="5.52" r="5.52" transform="matrix(1 0 0 -1 264.96 60.72)" fill="#EC2227" fill-opacity="0.6"/>
<circle cx="5.52" cy="5.52" r="5.52" transform="matrix(1 0 0 -1 264.96 110.4)" fill="#EC2227" fill-opacity="0.6"/>
<circle cx="5.52" cy="5.52" r="5.52" transform="matrix(1 0 0 -1 264.96 126.96)" fill="#EC2227" fill-opacity="0.6"/>
<circle cx="5.52" cy="5.52" r="5.52" transform="matrix(1 0 0 -1 264.96 143.52)" fill="#EC2227" fill-opacity="0.6"/>
<circle cx="5.52" cy="5.52" r="5.52" transform="matrix(1 0 0 -1 264.96 160.08)" fill="#EC2227" fill-opacity="0.6"/>
<circle cx="5.52" cy="5.52" r="5.52" transform="matrix(1 0 0 -1 264.96 176.64)" fill="#EC2227" fill-opacity="0.6"/>
<circle cx="5.52" cy="5.52" r="5.52" transform="matrix(1 0 0 -1 264.96 226.32)" fill="#EC2227" fill-opacity="0.6"/>
<circle cx="5.52" cy="5.52" r="5.52" transform="matrix(1 0 0 -1 264.96 242.88)" fill="#EC2227" fill-opacity="0.6"/>
<circle cx="5.52" cy="5.52" r="5.52" transform="matrix(1 0 0 -1 264.96 259.44)" fill="#EC2227" fill-opacity="0.6"/>
<circle cx="5.52" cy="5.52" r="5.52" transform="matrix(1 0 0 -1 264.96 276)" fill="#EC2227" fill-opacity="0.6"/>
</mask>
<g mask="url(#mask0_56_1383)">
<circle cx="138" cy="138" r="143.52" fill="#F47A7D"/>
</g>
</svg>
