<svg width="1859" height="519" viewBox="0 0 1859 519" fill="none" xmlns="http://www.w3.org/2000/svg">
<mask id="mask0_56_1913" style="mask-type:alpha" maskUnits="userSpaceOnUse" x="0" y="0" width="1859" height="519">
<path d="M36.5206 18.1299C36.5206 27.9805 28.5352 35.9659 18.6846 35.9659C8.83408 35.9659 0.848633 27.9805 0.848633 18.1299C0.848633 8.27939 8.83408 0.293945 18.6846 0.293945C28.5352 0.293945 36.5206 8.27939 36.5206 18.1299ZM4.41583 18.1299C4.41583 26.0104 10.8042 32.3987 18.6846 32.3987C26.5651 32.3987 32.9534 26.0104 32.9534 18.1299C32.9534 10.2495 26.5651 3.86115 18.6846 3.86115C10.8042 3.86115 4.41583 10.2495 4.41583 18.1299Z" fill="white"/>
<path d="M36.5206 209.046C36.5206 218.897 28.5352 226.882 18.6846 226.882C8.83408 226.882 0.848633 218.897 0.848633 209.046C0.848633 199.196 8.83408 191.21 18.6846 191.21C28.5352 191.21 36.5206 199.196 36.5206 209.046ZM4.41583 209.046C4.41583 216.927 10.8042 223.315 18.6846 223.315C26.5651 223.315 32.9534 216.927 32.9534 209.046C32.9534 201.166 26.5651 194.778 18.6846 194.778C10.8042 194.778 4.41583 201.166 4.41583 209.046Z" fill="white"/>
<path d="M36.5206 114.293C36.5206 124.143 28.5352 132.129 18.6846 132.129C8.83408 132.129 0.848633 124.143 0.848633 114.293C0.848633 104.442 8.83408 96.4565 18.6846 96.4565C28.5352 96.4565 36.5206 104.442 36.5206 114.293ZM4.41583 114.293C4.41583 122.173 10.8042 128.561 18.6846 128.561C26.5651 128.561 32.9534 122.173 32.9534 114.293C32.9534 106.412 26.5651 100.024 18.6846 100.024C10.8042 100.024 4.41583 106.412 4.41583 114.293Z" fill="white"/>
<path d="M36.5206 305.208C36.5206 315.059 28.5352 323.044 18.6846 323.044C8.83408 323.044 0.848633 315.059 0.848633 305.208C0.848633 295.358 8.83408 287.372 18.6846 287.372C28.5352 287.372 36.5206 295.358 36.5206 305.208ZM4.41583 305.208C4.41583 313.089 10.8042 319.477 18.6846 319.477C26.5651 319.477 32.9534 313.089 32.9534 305.208C32.9534 297.328 26.5651 290.94 18.6846 290.94C10.8042 290.94 4.41583 297.328 4.41583 305.208Z" fill="white"/>
<path d="M1823.33 453.176C1823.33 443.326 1831.31 435.34 1841.16 435.34C1851.01 435.34 1859 443.326 1859 453.176C1859 463.027 1851.01 471.012 1841.16 471.012C1831.31 471.012 1823.33 463.027 1823.33 453.176ZM1855.43 453.176C1855.43 445.296 1849.04 438.908 1841.16 438.908C1833.28 438.908 1826.9 445.296 1826.9 453.176C1826.9 461.057 1833.28 467.445 1841.16 467.445C1849.04 467.445 1855.43 461.057 1855.43 453.176Z" fill="white"/>
<path d="M1823.33 67.179C1823.33 57.3285 1831.31 49.343 1841.16 49.343C1851.01 49.343 1859 57.3285 1859 67.179C1859 77.0296 1851.01 85.015 1841.16 85.015C1831.31 85.015 1823.33 77.0296 1823.33 67.179ZM1855.43 67.179C1855.43 59.2986 1849.04 52.9102 1841.16 52.9102C1833.28 52.9102 1826.9 59.2986 1826.9 67.179C1826.9 75.0595 1833.28 81.4478 1841.16 81.4478C1849.04 81.4478 1855.43 75.0595 1855.43 67.179Z" fill="white"/>
<path d="M1823.33 258.095C1823.33 248.245 1831.31 240.259 1841.16 240.259C1851.01 240.259 1859 248.245 1859 258.095C1859 267.946 1851.01 275.931 1841.16 275.931C1831.31 275.931 1823.33 267.946 1823.33 258.095ZM1855.43 258.095C1855.43 250.215 1849.04 243.827 1841.16 243.827C1833.28 243.827 1826.9 250.215 1826.9 258.095C1826.9 265.976 1833.28 272.364 1841.16 272.364C1849.04 272.364 1855.43 265.976 1855.43 258.095Z" fill="white"/>
<path d="M36.5206 500.29C36.5206 510.14 28.5352 518.126 18.6846 518.126C8.83409 518.126 0.848638 510.14 0.848636 500.29C0.848634 490.439 8.83408 482.454 18.6846 482.454C28.5352 482.454 36.5206 490.439 36.5206 500.29ZM4.41584 500.29C4.41584 508.17 10.8042 514.559 18.6846 514.559C26.5651 514.559 32.9534 508.17 32.9534 500.29C32.9534 492.409 26.5651 486.021 18.6846 486.021C10.8042 486.021 4.41583 492.409 4.41584 500.29Z" fill="white"/>
<path d="M1823.33 163.342C1823.33 153.491 1831.31 145.506 1841.16 145.506C1851.01 145.506 1859 153.491 1859 163.342C1859 173.192 1851.01 181.178 1841.16 181.178C1831.31 181.178 1823.33 173.192 1823.33 163.342ZM1855.43 163.342C1855.43 155.461 1849.04 149.073 1841.16 149.073C1833.28 149.073 1826.9 155.461 1826.9 163.342C1826.9 171.222 1833.28 177.61 1841.16 177.61C1849.04 177.61 1855.43 171.222 1855.43 163.342Z" fill="white"/>
<path d="M1823.33 354.258C1823.33 344.407 1831.31 336.422 1841.16 336.422C1851.01 336.422 1859 344.407 1859 354.258C1859 364.108 1851.01 372.094 1841.16 372.094C1831.31 372.094 1823.33 364.108 1823.33 354.258ZM1855.43 354.258C1855.43 346.377 1849.04 339.989 1841.16 339.989C1833.28 339.989 1826.9 346.377 1826.9 354.258C1826.9 362.138 1833.28 368.526 1841.16 368.526C1849.04 368.526 1855.43 362.138 1855.43 354.258Z" fill="white"/>
<path d="M36.5206 404.127C36.5206 413.978 28.5352 421.963 18.6846 421.963C8.83409 421.963 0.848638 413.978 0.848636 404.127C0.848634 394.277 8.83408 386.291 18.6846 386.291C28.5352 386.291 36.5206 394.277 36.5206 404.127ZM4.41584 404.127C4.41584 412.008 10.8042 418.396 18.6846 418.396C26.5651 418.396 32.9534 412.008 32.9534 404.127C32.9534 396.247 26.5651 389.858 18.6846 389.858C10.8042 389.858 4.41583 396.247 4.41584 404.127Z" fill="white"/>
<path d="M171.396 18.1299C171.396 27.9805 163.41 35.9659 153.56 35.9659C143.709 35.9659 135.724 27.9805 135.724 18.1299C135.724 8.27939 143.709 0.293945 153.56 0.293945C163.41 0.293945 171.396 8.27939 171.396 18.1299ZM139.291 18.1299C139.291 26.0104 145.679 32.3987 153.56 32.3987C161.44 32.3987 167.828 26.0104 167.828 18.1299C167.828 10.2495 161.44 3.86115 153.56 3.86115C145.679 3.86115 139.291 10.2495 139.291 18.1299Z" fill="white"/>
<path d="M171.396 209.046C171.396 218.897 163.41 226.882 153.56 226.882C143.709 226.882 135.724 218.897 135.724 209.046C135.724 199.196 143.709 191.21 153.56 191.21C163.41 191.21 171.396 199.196 171.396 209.046ZM139.291 209.046C139.291 216.927 145.679 223.315 153.56 223.315C161.44 223.315 167.828 216.927 167.828 209.046C167.828 201.166 161.44 194.778 153.56 194.778C145.679 194.778 139.291 201.166 139.291 209.046Z" fill="white"/>
<path d="M171.396 114.293C171.396 124.143 163.41 132.129 153.56 132.129C143.709 132.129 135.724 124.143 135.724 114.293C135.724 104.442 143.709 96.4565 153.56 96.4565C163.41 96.4565 171.396 104.442 171.396 114.293ZM139.291 114.293C139.291 122.173 145.679 128.561 153.56 128.561C161.44 128.561 167.828 122.173 167.828 114.293C167.828 106.412 161.44 100.024 153.56 100.024C145.679 100.024 139.291 106.412 139.291 114.293Z" fill="white"/>
<path d="M171.396 305.208C171.396 315.059 163.41 323.044 153.56 323.044C143.709 323.044 135.724 315.059 135.724 305.208C135.724 295.358 143.709 287.372 153.56 287.372C163.41 287.372 171.396 295.358 171.396 305.208ZM139.291 305.208C139.291 313.089 145.679 319.477 153.56 319.477C161.44 319.477 167.828 313.089 167.828 305.208C167.828 297.328 161.44 290.94 153.56 290.94C145.679 290.94 139.291 297.328 139.291 305.208Z" fill="white"/>
<path d="M1688.45 453.176C1688.45 443.326 1696.44 435.34 1706.29 435.34C1716.14 435.34 1724.12 443.326 1724.12 453.176C1724.12 463.027 1716.14 471.012 1706.29 471.012C1696.44 471.012 1688.45 463.027 1688.45 453.176ZM1720.56 453.176C1720.56 445.296 1714.17 438.908 1706.29 438.908C1698.41 438.908 1692.02 445.296 1692.02 453.176C1692.02 461.057 1698.41 467.445 1706.29 467.445C1714.17 467.445 1720.56 461.057 1720.56 453.176Z" fill="white"/>
<path d="M1688.45 67.179C1688.45 57.3285 1696.44 49.343 1706.29 49.343C1716.14 49.343 1724.12 57.3285 1724.12 67.179C1724.12 77.0296 1716.14 85.015 1706.29 85.015C1696.44 85.015 1688.45 77.0296 1688.45 67.179ZM1720.56 67.179C1720.56 59.2986 1714.17 52.9102 1706.29 52.9102C1698.41 52.9102 1692.02 59.2986 1692.02 67.179C1692.02 75.0595 1698.41 81.4478 1706.29 81.4478C1714.17 81.4478 1720.56 75.0595 1720.56 67.179Z" fill="white"/>
<path d="M1688.45 258.095C1688.45 248.245 1696.44 240.259 1706.29 240.259C1716.14 240.259 1724.12 248.245 1724.12 258.095C1724.12 267.946 1716.14 275.931 1706.29 275.931C1696.44 275.931 1688.45 267.946 1688.45 258.095ZM1720.56 258.095C1720.56 250.215 1714.17 243.827 1706.29 243.827C1698.41 243.827 1692.02 250.215 1692.02 258.095C1692.02 265.976 1698.41 272.364 1706.29 272.364C1714.17 272.364 1720.56 265.976 1720.56 258.095Z" fill="white"/>
<path d="M171.396 500.29C171.396 510.14 163.41 518.126 153.56 518.126C143.709 518.126 135.724 510.14 135.724 500.29C135.724 490.439 143.709 482.454 153.56 482.454C163.41 482.454 171.396 490.439 171.396 500.29ZM139.291 500.29C139.291 508.17 145.679 514.559 153.56 514.559C161.44 514.559 167.828 508.17 167.828 500.29C167.828 492.409 161.44 486.021 153.56 486.021C145.679 486.021 139.291 492.409 139.291 500.29Z" fill="white"/>
<path d="M1688.45 163.342C1688.45 153.491 1696.44 145.506 1706.29 145.506C1716.14 145.506 1724.12 153.491 1724.12 163.342C1724.12 173.192 1716.14 181.178 1706.29 181.178C1696.44 181.178 1688.45 173.192 1688.45 163.342ZM1720.56 163.342C1720.56 155.461 1714.17 149.073 1706.29 149.073C1698.41 149.073 1692.02 155.461 1692.02 163.342C1692.02 171.222 1698.41 177.61 1706.29 177.61C1714.17 177.61 1720.56 171.222 1720.56 163.342Z" fill="white"/>
<path d="M1688.45 354.258C1688.45 344.407 1696.44 336.422 1706.29 336.422C1716.14 336.422 1724.12 344.407 1724.12 354.258C1724.12 364.108 1716.14 372.094 1706.29 372.094C1696.44 372.094 1688.45 364.108 1688.45 354.258ZM1720.56 354.258C1720.56 346.377 1714.17 339.989 1706.29 339.989C1698.41 339.989 1692.02 346.377 1692.02 354.258C1692.02 362.138 1698.41 368.526 1706.29 368.526C1714.17 368.526 1720.56 362.138 1720.56 354.258Z" fill="white"/>
<path d="M171.396 404.127C171.396 413.978 163.41 421.963 153.56 421.963C143.709 421.963 135.724 413.978 135.724 404.127C135.724 394.277 143.709 386.291 153.56 386.291C163.41 386.291 171.396 394.277 171.396 404.127ZM139.291 404.127C139.291 412.008 145.679 418.396 153.56 418.396C161.44 418.396 167.828 412.008 167.828 404.127C167.828 396.247 161.44 389.858 153.56 389.858C145.679 389.858 139.291 396.247 139.291 404.127Z" fill="white"/>
<path d="M306.27 18.1299C306.27 27.9805 298.285 35.9659 288.434 35.9659C278.584 35.9659 270.598 27.9805 270.598 18.1299C270.598 8.27939 278.584 0.293945 288.434 0.293945C298.285 0.293945 306.27 8.27939 306.27 18.1299ZM274.166 18.1299C274.166 26.0104 280.554 32.3987 288.434 32.3987C296.315 32.3987 302.703 26.0104 302.703 18.1299C302.703 10.2495 296.315 3.86115 288.434 3.86115C280.554 3.86115 274.166 10.2495 274.166 18.1299Z" fill="white"/>
<path d="M306.27 209.046C306.27 218.897 298.285 226.882 288.434 226.882C278.584 226.882 270.598 218.897 270.598 209.046C270.598 199.196 278.584 191.21 288.434 191.21C298.285 191.21 306.27 199.196 306.27 209.046ZM274.166 209.046C274.166 216.927 280.554 223.315 288.434 223.315C296.315 223.315 302.703 216.927 302.703 209.046C302.703 201.166 296.315 194.778 288.434 194.778C280.554 194.778 274.166 201.166 274.166 209.046Z" fill="white"/>
<path d="M306.27 114.293C306.27 124.143 298.285 132.129 288.434 132.129C278.584 132.129 270.598 124.143 270.598 114.293C270.598 104.442 278.584 96.4565 288.434 96.4565C298.285 96.4565 306.27 104.442 306.27 114.293ZM274.166 114.293C274.166 122.173 280.554 128.561 288.434 128.561C296.315 128.561 302.703 122.173 302.703 114.293C302.703 106.412 296.315 100.024 288.434 100.024C280.554 100.024 274.166 106.412 274.166 114.293Z" fill="white"/>
<path d="M306.27 305.208C306.27 315.059 298.285 323.044 288.434 323.044C278.584 323.044 270.598 315.059 270.598 305.208C270.598 295.358 278.584 287.372 288.434 287.372C298.285 287.372 306.27 295.358 306.27 305.208ZM274.166 305.208C274.166 313.089 280.554 319.477 288.434 319.477C296.315 319.477 302.703 313.089 302.703 305.208C302.703 297.328 296.315 290.94 288.434 290.94C280.554 290.94 274.166 297.328 274.166 305.208Z" fill="white"/>
<path d="M1553.58 453.176C1553.58 443.326 1561.56 435.34 1571.41 435.34C1581.26 435.34 1589.25 443.326 1589.25 453.176C1589.25 463.027 1581.26 471.012 1571.41 471.012C1561.56 471.012 1553.58 463.027 1553.58 453.176ZM1585.68 453.176C1585.68 445.296 1579.29 438.908 1571.41 438.908C1563.53 438.908 1557.15 445.296 1557.15 453.176C1557.15 461.057 1563.53 467.445 1571.41 467.445C1579.29 467.445 1585.68 461.057 1585.68 453.176Z" fill="white"/>
<path d="M1553.58 67.179C1553.58 57.3285 1561.56 49.343 1571.41 49.343C1581.26 49.343 1589.25 57.3285 1589.25 67.179C1589.25 77.0296 1581.26 85.015 1571.41 85.015C1561.56 85.015 1553.58 77.0296 1553.58 67.179ZM1585.68 67.179C1585.68 59.2986 1579.29 52.9102 1571.41 52.9102C1563.53 52.9102 1557.15 59.2986 1557.15 67.179C1557.15 75.0595 1563.53 81.4478 1571.41 81.4478C1579.29 81.4478 1585.68 75.0595 1585.68 67.179Z" fill="white"/>
<path d="M1553.58 258.095C1553.58 248.245 1561.56 240.259 1571.41 240.259C1581.26 240.259 1589.25 248.245 1589.25 258.095C1589.25 267.946 1581.26 275.931 1571.41 275.931C1561.56 275.931 1553.58 267.946 1553.58 258.095ZM1585.68 258.095C1585.68 250.215 1579.29 243.827 1571.41 243.827C1563.53 243.827 1557.15 250.215 1557.15 258.095C1557.15 265.976 1563.53 272.364 1571.41 272.364C1579.29 272.364 1585.68 265.976 1585.68 258.095Z" fill="white"/>
<path d="M306.27 500.29C306.27 510.14 298.285 518.126 288.434 518.126C278.584 518.126 270.598 510.14 270.598 500.29C270.598 490.439 278.584 482.454 288.434 482.454C298.285 482.454 306.27 490.439 306.27 500.29ZM274.166 500.29C274.166 508.17 280.554 514.559 288.434 514.559C296.315 514.559 302.703 508.17 302.703 500.29C302.703 492.409 296.315 486.021 288.434 486.021C280.554 486.021 274.166 492.409 274.166 500.29Z" fill="white"/>
<path d="M1553.58 163.342C1553.58 153.491 1561.56 145.506 1571.41 145.506C1581.26 145.506 1589.25 153.491 1589.25 163.342C1589.25 173.192 1581.26 181.178 1571.41 181.178C1561.56 181.178 1553.58 173.192 1553.58 163.342ZM1585.68 163.342C1585.68 155.461 1579.29 149.073 1571.41 149.073C1563.53 149.073 1557.15 155.461 1557.15 163.342C1557.15 171.222 1563.53 177.61 1571.41 177.61C1579.29 177.61 1585.68 171.222 1585.68 163.342Z" fill="white"/>
<path d="M1553.58 354.258C1553.58 344.407 1561.56 336.422 1571.41 336.422C1581.26 336.422 1589.25 344.407 1589.25 354.258C1589.25 364.108 1581.26 372.094 1571.41 372.094C1561.56 372.094 1553.58 364.108 1553.58 354.258ZM1585.68 354.258C1585.68 346.377 1579.29 339.989 1571.41 339.989C1563.53 339.989 1557.15 346.377 1557.15 354.258C1557.15 362.138 1563.53 368.526 1571.41 368.526C1579.29 368.526 1585.68 362.138 1585.68 354.258Z" fill="white"/>
<path d="M306.27 404.127C306.27 413.978 298.285 421.963 288.434 421.963C278.584 421.963 270.598 413.978 270.598 404.127C270.598 394.277 278.584 386.291 288.434 386.291C298.285 386.291 306.27 394.277 306.27 404.127ZM274.166 404.127C274.166 412.008 280.554 418.396 288.434 418.396C296.315 418.396 302.703 412.008 302.703 404.127C302.703 396.247 296.315 389.858 288.434 389.858C280.554 389.858 274.166 396.247 274.166 404.127Z" fill="white"/>
<path d="M441.146 18.1299C441.146 27.9805 433.16 35.9659 423.31 35.9659C413.459 35.9659 405.474 27.9805 405.474 18.1299C405.474 8.27939 413.459 0.293945 423.31 0.293945C433.16 0.293945 441.146 8.27939 441.146 18.1299ZM409.041 18.1299C409.041 26.0104 415.429 32.3987 423.31 32.3987C431.19 32.3987 437.578 26.0104 437.578 18.1299C437.578 10.2495 431.19 3.86115 423.31 3.86115C415.429 3.86115 409.041 10.2495 409.041 18.1299Z" fill="white"/>
<path d="M441.146 209.046C441.146 218.897 433.16 226.882 423.31 226.882C413.459 226.882 405.474 218.897 405.474 209.046C405.474 199.196 413.459 191.21 423.31 191.21C433.16 191.21 441.146 199.196 441.146 209.046ZM409.041 209.046C409.041 216.927 415.429 223.315 423.31 223.315C431.19 223.315 437.578 216.927 437.578 209.046C437.578 201.166 431.19 194.778 423.31 194.778C415.429 194.778 409.041 201.166 409.041 209.046Z" fill="white"/>
<path d="M441.146 114.293C441.146 124.143 433.16 132.129 423.31 132.129C413.459 132.129 405.474 124.143 405.474 114.293C405.474 104.442 413.459 96.4565 423.31 96.4565C433.16 96.4565 441.146 104.442 441.146 114.293ZM409.041 114.293C409.041 122.173 415.429 128.561 423.31 128.561C431.19 128.561 437.578 122.173 437.578 114.293C437.578 106.412 431.19 100.024 423.31 100.024C415.429 100.024 409.041 106.412 409.041 114.293Z" fill="white"/>
<path d="M441.146 305.208C441.146 315.059 433.16 323.044 423.31 323.044C413.459 323.044 405.474 315.059 405.474 305.208C405.474 295.358 413.459 287.372 423.31 287.372C433.16 287.372 441.146 295.358 441.146 305.208ZM409.041 305.208C409.041 313.089 415.429 319.477 423.31 319.477C431.19 319.477 437.578 313.089 437.578 305.208C437.578 297.328 431.19 290.94 423.31 290.94C415.429 290.94 409.041 297.328 409.041 305.208Z" fill="white"/>
<path d="M1418.7 453.176C1418.7 443.326 1426.69 435.34 1436.54 435.34C1446.39 435.34 1454.37 443.326 1454.37 453.176C1454.37 463.027 1446.39 471.012 1436.54 471.012C1426.69 471.012 1418.7 463.027 1418.7 453.176ZM1450.81 453.176C1450.81 445.296 1444.42 438.908 1436.54 438.908C1428.66 438.908 1422.27 445.296 1422.27 453.176C1422.27 461.057 1428.66 467.445 1436.54 467.445C1444.42 467.445 1450.81 461.057 1450.81 453.176Z" fill="white"/>
<path d="M1418.7 67.179C1418.7 57.3285 1426.69 49.343 1436.54 49.343C1446.39 49.343 1454.37 57.3285 1454.37 67.179C1454.37 77.0296 1446.39 85.015 1436.54 85.015C1426.69 85.015 1418.7 77.0296 1418.7 67.179ZM1450.81 67.179C1450.81 59.2986 1444.42 52.9102 1436.54 52.9102C1428.66 52.9102 1422.27 59.2986 1422.27 67.179C1422.27 75.0595 1428.66 81.4478 1436.54 81.4478C1444.42 81.4478 1450.81 75.0595 1450.81 67.179Z" fill="white"/>
<path d="M1418.7 258.095C1418.7 248.245 1426.69 240.259 1436.54 240.259C1446.39 240.259 1454.37 248.245 1454.37 258.095C1454.37 267.946 1446.39 275.931 1436.54 275.931C1426.69 275.931 1418.7 267.946 1418.7 258.095ZM1450.81 258.095C1450.81 250.215 1444.42 243.827 1436.54 243.827C1428.66 243.827 1422.27 250.215 1422.27 258.095C1422.27 265.976 1428.66 272.364 1436.54 272.364C1444.42 272.364 1450.81 265.976 1450.81 258.095Z" fill="white"/>
<path d="M441.146 500.29C441.146 510.14 433.16 518.126 423.31 518.126C413.459 518.126 405.474 510.14 405.474 500.29C405.474 490.439 413.459 482.454 423.31 482.454C433.16 482.454 441.146 490.439 441.146 500.29ZM409.041 500.29C409.041 508.17 415.429 514.559 423.31 514.559C431.19 514.559 437.578 508.17 437.578 500.29C437.578 492.409 431.19 486.021 423.31 486.021C415.429 486.021 409.041 492.409 409.041 500.29Z" fill="white"/>
<path d="M1418.7 163.342C1418.7 153.491 1426.69 145.506 1436.54 145.506C1446.39 145.506 1454.37 153.491 1454.37 163.342C1454.37 173.192 1446.39 181.178 1436.54 181.178C1426.69 181.178 1418.7 173.192 1418.7 163.342ZM1450.81 163.342C1450.81 155.461 1444.42 149.073 1436.54 149.073C1428.66 149.073 1422.27 155.461 1422.27 163.342C1422.27 171.222 1428.66 177.61 1436.54 177.61C1444.42 177.61 1450.81 171.222 1450.81 163.342Z" fill="white"/>
<path d="M1418.7 354.258C1418.7 344.407 1426.69 336.422 1436.54 336.422C1446.39 336.422 1454.37 344.407 1454.37 354.258C1454.37 364.108 1446.39 372.094 1436.54 372.094C1426.69 372.094 1418.7 364.108 1418.7 354.258ZM1450.81 354.258C1450.81 346.377 1444.42 339.989 1436.54 339.989C1428.66 339.989 1422.27 346.377 1422.27 354.258C1422.27 362.138 1428.66 368.526 1436.54 368.526C1444.42 368.526 1450.81 362.138 1450.81 354.258Z" fill="white"/>
<path d="M441.146 404.127C441.146 413.978 433.16 421.963 423.31 421.963C413.459 421.963 405.474 413.978 405.474 404.127C405.474 394.277 413.459 386.291 423.31 386.291C433.16 386.291 441.146 394.277 441.146 404.127ZM409.041 404.127C409.041 412.008 415.429 418.396 423.31 418.396C431.19 418.396 437.578 412.008 437.578 404.127C437.578 396.247 431.19 389.858 423.31 389.858C415.429 389.858 409.041 396.247 409.041 404.127Z" fill="white"/>
<path d="M576.02 18.1299C576.02 27.9805 568.035 35.9659 558.184 35.9659C548.334 35.9659 540.348 27.9805 540.348 18.1299C540.348 8.27939 548.334 0.293945 558.184 0.293945C568.035 0.293945 576.02 8.27939 576.02 18.1299ZM543.916 18.1299C543.916 26.0104 550.304 32.3987 558.184 32.3987C566.065 32.3987 572.453 26.0104 572.453 18.1299C572.453 10.2495 566.065 3.86115 558.184 3.86115C550.304 3.86115 543.916 10.2495 543.916 18.1299Z" fill="white"/>
<path d="M576.02 209.046C576.02 218.897 568.035 226.882 558.184 226.882C548.334 226.882 540.348 218.897 540.348 209.046C540.348 199.196 548.334 191.21 558.184 191.21C568.035 191.21 576.02 199.196 576.02 209.046ZM543.916 209.046C543.916 216.927 550.304 223.315 558.184 223.315C566.065 223.315 572.453 216.927 572.453 209.046C572.453 201.166 566.065 194.778 558.184 194.778C550.304 194.778 543.916 201.166 543.916 209.046Z" fill="white"/>
<path d="M576.02 114.293C576.02 124.143 568.035 132.129 558.184 132.129C548.334 132.129 540.348 124.143 540.348 114.293C540.348 104.442 548.334 96.4565 558.184 96.4565C568.035 96.4565 576.02 104.442 576.02 114.293ZM543.916 114.293C543.916 122.173 550.304 128.561 558.184 128.561C566.065 128.561 572.453 122.173 572.453 114.293C572.453 106.412 566.065 100.024 558.184 100.024C550.304 100.024 543.916 106.412 543.916 114.293Z" fill="white"/>
<path d="M576.02 305.208C576.02 315.059 568.035 323.044 558.184 323.044C548.334 323.044 540.348 315.059 540.348 305.208C540.348 295.358 548.334 287.372 558.184 287.372C568.035 287.372 576.02 295.358 576.02 305.208ZM543.916 305.208C543.916 313.089 550.304 319.477 558.184 319.477C566.065 319.477 572.453 313.089 572.453 305.208C572.453 297.328 566.065 290.94 558.184 290.94C550.304 290.94 543.916 297.328 543.916 305.208Z" fill="white"/>
<path d="M1283.83 453.176C1283.83 443.326 1291.81 435.34 1301.66 435.34C1311.51 435.34 1319.5 443.326 1319.5 453.176C1319.5 463.027 1311.51 471.012 1301.66 471.012C1291.81 471.012 1283.83 463.027 1283.83 453.176ZM1315.93 453.176C1315.93 445.296 1309.54 438.908 1301.66 438.908C1293.78 438.908 1287.39 445.296 1287.39 453.176C1287.39 461.057 1293.78 467.445 1301.66 467.445C1309.54 467.445 1315.93 461.057 1315.93 453.176Z" fill="white"/>
<path d="M1283.83 67.179C1283.83 57.3285 1291.81 49.343 1301.66 49.343C1311.51 49.343 1319.5 57.3285 1319.5 67.179C1319.5 77.0296 1311.51 85.015 1301.66 85.015C1291.81 85.015 1283.83 77.0296 1283.83 67.179ZM1315.93 67.179C1315.93 59.2986 1309.54 52.9102 1301.66 52.9102C1293.78 52.9102 1287.39 59.2986 1287.39 67.179C1287.39 75.0595 1293.78 81.4478 1301.66 81.4478C1309.54 81.4478 1315.93 75.0595 1315.93 67.179Z" fill="white"/>
<path d="M1283.83 258.095C1283.83 248.245 1291.81 240.259 1301.66 240.259C1311.51 240.259 1319.5 248.245 1319.5 258.095C1319.5 267.946 1311.51 275.931 1301.66 275.931C1291.81 275.931 1283.83 267.946 1283.83 258.095ZM1315.93 258.095C1315.93 250.215 1309.54 243.827 1301.66 243.827C1293.78 243.827 1287.39 250.215 1287.39 258.095C1287.39 265.976 1293.78 272.364 1301.66 272.364C1309.54 272.364 1315.93 265.976 1315.93 258.095Z" fill="white"/>
<path d="M576.02 500.29C576.02 510.14 568.035 518.126 558.184 518.126C548.334 518.126 540.348 510.14 540.348 500.29C540.348 490.439 548.334 482.454 558.184 482.454C568.035 482.454 576.02 490.439 576.02 500.29ZM543.916 500.29C543.916 508.17 550.304 514.559 558.184 514.559C566.065 514.559 572.453 508.17 572.453 500.29C572.453 492.409 566.065 486.021 558.184 486.021C550.304 486.021 543.916 492.409 543.916 500.29Z" fill="white"/>
<path d="M1283.83 163.342C1283.83 153.491 1291.81 145.506 1301.66 145.506C1311.51 145.506 1319.5 153.491 1319.5 163.342C1319.5 173.192 1311.51 181.178 1301.66 181.178C1291.81 181.178 1283.83 173.192 1283.83 163.342ZM1315.93 163.342C1315.93 155.461 1309.54 149.073 1301.66 149.073C1293.78 149.073 1287.39 155.461 1287.39 163.342C1287.39 171.222 1293.78 177.61 1301.66 177.61C1309.54 177.61 1315.93 171.222 1315.93 163.342Z" fill="white"/>
<path d="M1283.83 354.258C1283.83 344.407 1291.81 336.422 1301.66 336.422C1311.51 336.422 1319.5 344.407 1319.5 354.258C1319.5 364.108 1311.51 372.094 1301.66 372.094C1291.81 372.094 1283.83 364.108 1283.83 354.258ZM1315.93 354.258C1315.93 346.377 1309.54 339.989 1301.66 339.989C1293.78 339.989 1287.39 346.377 1287.39 354.258C1287.39 362.138 1293.78 368.526 1301.66 368.526C1309.54 368.526 1315.93 362.138 1315.93 354.258Z" fill="white"/>
<path d="M576.02 404.127C576.02 413.978 568.035 421.963 558.184 421.963C548.334 421.963 540.348 413.978 540.348 404.127C540.348 394.277 548.334 386.291 558.184 386.291C568.035 386.291 576.02 394.277 576.02 404.127ZM543.916 404.127C543.916 412.008 550.304 418.396 558.184 418.396C566.065 418.396 572.453 412.008 572.453 404.127C572.453 396.247 566.065 389.858 558.184 389.858C550.304 389.858 543.916 396.247 543.916 404.127Z" fill="white"/>
<path d="M710.895 18.1299C710.895 27.9805 702.91 35.9659 693.059 35.9659C683.209 35.9659 675.223 27.9805 675.223 18.1299C675.223 8.27939 683.209 0.293945 693.059 0.293945C702.91 0.293945 710.895 8.27939 710.895 18.1299ZM678.79 18.1299C678.79 26.0104 685.179 32.3987 693.059 32.3987C700.94 32.3987 707.328 26.0104 707.328 18.1299C707.328 10.2495 700.94 3.86115 693.059 3.86115C685.179 3.86115 678.79 10.2495 678.79 18.1299Z" fill="white"/>
<path d="M710.895 209.046C710.895 218.897 702.91 226.882 693.059 226.882C683.209 226.882 675.223 218.897 675.223 209.046C675.223 199.196 683.209 191.21 693.059 191.21C702.91 191.21 710.895 199.196 710.895 209.046ZM678.79 209.046C678.79 216.927 685.179 223.315 693.059 223.315C700.94 223.315 707.328 216.927 707.328 209.046C707.328 201.166 700.94 194.778 693.059 194.778C685.179 194.778 678.79 201.166 678.79 209.046Z" fill="white"/>
<path d="M710.895 114.293C710.895 124.143 702.91 132.129 693.059 132.129C683.209 132.129 675.223 124.143 675.223 114.293C675.223 104.442 683.209 96.4565 693.059 96.4565C702.91 96.4565 710.895 104.442 710.895 114.293ZM678.79 114.293C678.79 122.173 685.179 128.561 693.059 128.561C700.94 128.561 707.328 122.173 707.328 114.293C707.328 106.412 700.94 100.024 693.059 100.024C685.179 100.024 678.79 106.412 678.79 114.293Z" fill="white"/>
<path d="M710.895 305.208C710.895 315.059 702.91 323.044 693.059 323.044C683.209 323.044 675.223 315.059 675.223 305.208C675.223 295.358 683.209 287.372 693.059 287.372C702.91 287.372 710.895 295.358 710.895 305.208ZM678.79 305.208C678.79 313.089 685.179 319.477 693.059 319.477C700.94 319.477 707.328 313.089 707.328 305.208C707.328 297.328 700.94 290.94 693.059 290.94C685.179 290.94 678.79 297.328 678.79 305.208Z" fill="white"/>
<path d="M1148.95 453.176C1148.95 443.326 1156.94 435.34 1166.79 435.34C1176.64 435.34 1184.62 443.326 1184.62 453.176C1184.62 463.027 1176.64 471.012 1166.79 471.012C1156.94 471.012 1148.95 463.027 1148.95 453.176ZM1181.06 453.176C1181.06 445.296 1174.67 438.908 1166.79 438.908C1158.91 438.908 1152.52 445.296 1152.52 453.176C1152.52 461.057 1158.91 467.445 1166.79 467.445C1174.67 467.445 1181.06 461.057 1181.06 453.176Z" fill="white"/>
<path d="M1148.95 67.179C1148.95 57.3285 1156.94 49.343 1166.79 49.343C1176.64 49.343 1184.62 57.3285 1184.62 67.179C1184.62 77.0296 1176.64 85.015 1166.79 85.015C1156.94 85.015 1148.95 77.0296 1148.95 67.179ZM1181.06 67.179C1181.06 59.2986 1174.67 52.9102 1166.79 52.9102C1158.91 52.9102 1152.52 59.2986 1152.52 67.179C1152.52 75.0595 1158.91 81.4478 1166.79 81.4478C1174.67 81.4478 1181.06 75.0595 1181.06 67.179Z" fill="white"/>
<path d="M1148.95 258.095C1148.95 248.245 1156.94 240.259 1166.79 240.259C1176.64 240.259 1184.62 248.245 1184.62 258.095C1184.62 267.946 1176.64 275.931 1166.79 275.931C1156.94 275.931 1148.95 267.946 1148.95 258.095ZM1181.06 258.095C1181.06 250.215 1174.67 243.827 1166.79 243.827C1158.91 243.827 1152.52 250.215 1152.52 258.095C1152.52 265.976 1158.91 272.364 1166.79 272.364C1174.67 272.364 1181.06 265.976 1181.06 258.095Z" fill="white"/>
<path d="M710.895 500.29C710.895 510.14 702.91 518.126 693.059 518.126C683.209 518.126 675.223 510.14 675.223 500.29C675.223 490.439 683.209 482.454 693.059 482.454C702.91 482.454 710.895 490.439 710.895 500.29ZM678.79 500.29C678.79 508.17 685.179 514.559 693.059 514.559C700.94 514.559 707.328 508.17 707.328 500.29C707.328 492.409 700.94 486.021 693.059 486.021C685.179 486.021 678.79 492.409 678.79 500.29Z" fill="white"/>
<path d="M1148.95 163.342C1148.95 153.491 1156.94 145.506 1166.79 145.506C1176.64 145.506 1184.62 153.491 1184.62 163.342C1184.62 173.192 1176.64 181.178 1166.79 181.178C1156.94 181.178 1148.95 173.192 1148.95 163.342ZM1181.06 163.342C1181.06 155.461 1174.67 149.073 1166.79 149.073C1158.91 149.073 1152.52 155.461 1152.52 163.342C1152.52 171.222 1158.91 177.61 1166.79 177.61C1174.67 177.61 1181.06 171.222 1181.06 163.342Z" fill="white"/>
<path d="M1148.95 354.258C1148.95 344.407 1156.94 336.422 1166.79 336.422C1176.64 336.422 1184.62 344.407 1184.62 354.258C1184.62 364.108 1176.64 372.094 1166.79 372.094C1156.94 372.094 1148.95 364.108 1148.95 354.258ZM1181.06 354.258C1181.06 346.377 1174.67 339.989 1166.79 339.989C1158.91 339.989 1152.52 346.377 1152.52 354.258C1152.52 362.138 1158.91 368.526 1166.79 368.526C1174.67 368.526 1181.06 362.138 1181.06 354.258Z" fill="white"/>
<path d="M710.895 404.127C710.895 413.978 702.91 421.963 693.059 421.963C683.209 421.963 675.223 413.978 675.223 404.127C675.223 394.277 683.209 386.291 693.059 386.291C702.91 386.291 710.895 394.277 710.895 404.127ZM678.79 404.127C678.79 412.008 685.179 418.396 693.059 418.396C700.94 418.396 707.328 412.008 707.328 404.127C707.328 396.247 700.94 389.858 693.059 389.858C685.179 389.858 678.79 396.247 678.79 404.127Z" fill="white"/>
<path d="M845.77 18.1299C845.77 27.9805 837.785 35.9659 827.934 35.9659C818.084 35.9659 810.098 27.9805 810.098 18.1299C810.098 8.27939 818.084 0.293945 827.934 0.293945C837.785 0.293945 845.77 8.27939 845.77 18.1299ZM813.665 18.1299C813.665 26.0104 820.054 32.3987 827.934 32.3987C835.815 32.3987 842.203 26.0104 842.203 18.1299C842.203 10.2495 835.815 3.86115 827.934 3.86115C820.054 3.86115 813.665 10.2495 813.665 18.1299Z" fill="white"/>
<path d="M845.77 209.046C845.77 218.897 837.785 226.882 827.934 226.882C818.084 226.882 810.098 218.897 810.098 209.046C810.098 199.196 818.084 191.21 827.934 191.21C837.785 191.21 845.77 199.196 845.77 209.046ZM813.665 209.046C813.665 216.927 820.054 223.315 827.934 223.315C835.815 223.315 842.203 216.927 842.203 209.046C842.203 201.166 835.815 194.778 827.934 194.778C820.054 194.778 813.665 201.166 813.665 209.046Z" fill="white"/>
<path d="M845.77 114.293C845.77 124.143 837.785 132.129 827.934 132.129C818.084 132.129 810.098 124.143 810.098 114.293C810.098 104.442 818.084 96.4565 827.934 96.4565C837.785 96.4565 845.77 104.442 845.77 114.293ZM813.665 114.293C813.665 122.173 820.054 128.561 827.934 128.561C835.815 128.561 842.203 122.173 842.203 114.293C842.203 106.412 835.815 100.024 827.934 100.024C820.054 100.024 813.665 106.412 813.665 114.293Z" fill="white"/>
<path d="M845.77 305.208C845.77 315.059 837.785 323.044 827.934 323.044C818.084 323.044 810.098 315.059 810.098 305.208C810.098 295.358 818.084 287.372 827.934 287.372C837.785 287.372 845.77 295.358 845.77 305.208ZM813.665 305.208C813.665 313.089 820.054 319.477 827.934 319.477C835.815 319.477 842.203 313.089 842.203 305.208C842.203 297.328 835.815 290.94 827.934 290.94C820.054 290.94 813.665 297.328 813.665 305.208Z" fill="white"/>
<path d="M1014.08 453.176C1014.08 443.326 1022.06 435.34 1031.91 435.34C1041.76 435.34 1049.75 443.326 1049.75 453.176C1049.75 463.027 1041.76 471.012 1031.91 471.012C1022.06 471.012 1014.08 463.027 1014.08 453.176ZM1046.18 453.176C1046.18 445.296 1039.79 438.908 1031.91 438.908C1024.03 438.908 1017.65 445.296 1017.65 453.176C1017.65 461.057 1024.03 467.445 1031.91 467.445C1039.79 467.445 1046.18 461.057 1046.18 453.176Z" fill="white"/>
<path d="M1014.08 67.179C1014.08 57.3285 1022.06 49.343 1031.91 49.343C1041.76 49.343 1049.75 57.3285 1049.75 67.179C1049.75 77.0296 1041.76 85.015 1031.91 85.015C1022.06 85.015 1014.08 77.0296 1014.08 67.179ZM1046.18 67.179C1046.18 59.2986 1039.79 52.9102 1031.91 52.9102C1024.03 52.9102 1017.65 59.2986 1017.65 67.179C1017.65 75.0595 1024.03 81.4478 1031.91 81.4478C1039.79 81.4478 1046.18 75.0595 1046.18 67.179Z" fill="white"/>
<path d="M1014.08 258.095C1014.08 248.245 1022.06 240.259 1031.91 240.259C1041.76 240.259 1049.75 248.245 1049.75 258.095C1049.75 267.946 1041.76 275.931 1031.91 275.931C1022.06 275.931 1014.08 267.946 1014.08 258.095ZM1046.18 258.095C1046.18 250.215 1039.79 243.827 1031.91 243.827C1024.03 243.827 1017.65 250.215 1017.65 258.095C1017.65 265.976 1024.03 272.364 1031.91 272.364C1039.79 272.364 1046.18 265.976 1046.18 258.095Z" fill="white"/>
<path d="M845.77 500.29C845.77 510.14 837.785 518.126 827.934 518.126C818.084 518.126 810.098 510.14 810.098 500.29C810.098 490.439 818.084 482.454 827.934 482.454C837.785 482.454 845.77 490.439 845.77 500.29ZM813.665 500.29C813.665 508.17 820.054 514.559 827.934 514.559C835.815 514.559 842.203 508.17 842.203 500.29C842.203 492.409 835.815 486.021 827.934 486.021C820.054 486.021 813.665 492.409 813.665 500.29Z" fill="white"/>
<path d="M1014.08 163.342C1014.08 153.491 1022.06 145.506 1031.91 145.506C1041.76 145.506 1049.75 153.491 1049.75 163.342C1049.75 173.192 1041.76 181.178 1031.91 181.178C1022.06 181.178 1014.08 173.192 1014.08 163.342ZM1046.18 163.342C1046.18 155.461 1039.79 149.073 1031.91 149.073C1024.03 149.073 1017.65 155.461 1017.65 163.342C1017.65 171.222 1024.03 177.61 1031.91 177.61C1039.79 177.61 1046.18 171.222 1046.18 163.342Z" fill="white"/>
<path d="M1014.08 354.258C1014.08 344.407 1022.06 336.422 1031.91 336.422C1041.76 336.422 1049.75 344.407 1049.75 354.258C1049.75 364.108 1041.76 372.094 1031.91 372.094C1022.06 372.094 1014.08 364.108 1014.08 354.258ZM1046.18 354.258C1046.18 346.377 1039.79 339.989 1031.91 339.989C1024.03 339.989 1017.65 346.377 1017.65 354.258C1017.65 362.138 1024.03 368.526 1031.91 368.526C1039.79 368.526 1046.18 362.138 1046.18 354.258Z" fill="white"/>
<path d="M845.77 404.127C845.77 413.978 837.785 421.963 827.934 421.963C818.084 421.963 810.098 413.978 810.098 404.127C810.098 394.277 818.084 386.291 827.934 386.291C837.785 386.291 845.77 394.277 845.77 404.127ZM813.665 404.127C813.665 412.008 820.054 418.396 827.934 418.396C835.815 418.396 842.203 412.008 842.203 404.127C842.203 396.247 835.815 389.858 827.934 389.858C820.054 389.858 813.665 396.247 813.665 404.127Z" fill="white"/>
<path d="M980.646 18.1299C980.646 27.9805 972.66 35.9659 962.81 35.9659C952.959 35.9659 944.974 27.9805 944.974 18.1299C944.974 8.27939 952.959 0.293945 962.81 0.293945C972.66 0.293945 980.646 8.27939 980.646 18.1299ZM948.541 18.1299C948.541 26.0104 954.929 32.3987 962.81 32.3987C970.69 32.3987 977.078 26.0104 977.078 18.1299C977.078 10.2495 970.69 3.86115 962.81 3.86115C954.929 3.86115 948.541 10.2495 948.541 18.1299Z" fill="white"/>
<path d="M980.646 209.046C980.646 218.897 972.66 226.882 962.81 226.882C952.959 226.882 944.974 218.897 944.974 209.046C944.974 199.196 952.959 191.21 962.81 191.21C972.66 191.21 980.646 199.196 980.646 209.046ZM948.541 209.046C948.541 216.927 954.929 223.315 962.81 223.315C970.69 223.315 977.078 216.927 977.078 209.046C977.078 201.166 970.69 194.778 962.81 194.778C954.929 194.778 948.541 201.166 948.541 209.046Z" fill="white"/>
<path d="M980.646 114.293C980.646 124.143 972.66 132.129 962.81 132.129C952.959 132.129 944.974 124.143 944.974 114.293C944.974 104.442 952.959 96.4565 962.81 96.4565C972.66 96.4565 980.646 104.442 980.646 114.293ZM948.541 114.293C948.541 122.173 954.929 128.561 962.81 128.561C970.69 128.561 977.078 122.173 977.078 114.293C977.078 106.412 970.69 100.024 962.81 100.024C954.929 100.024 948.541 106.412 948.541 114.293Z" fill="white"/>
<path d="M980.646 305.208C980.646 315.059 972.66 323.044 962.81 323.044C952.959 323.044 944.974 315.059 944.974 305.208C944.974 295.358 952.959 287.372 962.81 287.372C972.66 287.372 980.646 295.358 980.646 305.208ZM948.541 305.208C948.541 313.089 954.929 319.477 962.81 319.477C970.69 319.477 977.078 313.089 977.078 305.208C977.078 297.328 970.69 290.94 962.81 290.94C954.929 290.94 948.541 297.328 948.541 305.208Z" fill="white"/>
<path d="M879.203 453.176C879.203 443.326 887.188 435.34 897.039 435.34C906.89 435.34 914.875 443.326 914.875 453.176C914.875 463.027 906.89 471.012 897.039 471.012C887.188 471.012 879.203 463.027 879.203 453.176ZM911.308 453.176C911.308 445.296 904.919 438.908 897.039 438.908C889.159 438.908 882.77 445.296 882.77 453.176C882.77 461.057 889.159 467.445 897.039 467.445C904.919 467.445 911.308 461.057 911.308 453.176Z" fill="white"/>
<path d="M879.203 67.179C879.203 57.3285 887.188 49.343 897.039 49.343C906.89 49.343 914.875 57.3285 914.875 67.179C914.875 77.0296 906.89 85.015 897.039 85.015C887.188 85.015 879.203 77.0296 879.203 67.179ZM911.308 67.179C911.308 59.2986 904.919 52.9102 897.039 52.9102C889.159 52.9102 882.77 59.2986 882.77 67.179C882.77 75.0595 889.159 81.4478 897.039 81.4478C904.919 81.4478 911.308 75.0595 911.308 67.179Z" fill="white"/>
<path d="M879.203 258.095C879.203 248.245 887.188 240.259 897.039 240.259C906.89 240.259 914.875 248.245 914.875 258.095C914.875 267.946 906.89 275.931 897.039 275.931C887.188 275.931 879.203 267.946 879.203 258.095ZM911.308 258.095C911.308 250.215 904.919 243.827 897.039 243.827C889.159 243.827 882.77 250.215 882.77 258.095C882.77 265.976 889.159 272.364 897.039 272.364C904.919 272.364 911.308 265.976 911.308 258.095Z" fill="white"/>
<path d="M980.646 500.29C980.646 510.14 972.66 518.126 962.81 518.126C952.959 518.126 944.974 510.14 944.974 500.29C944.974 490.439 952.959 482.454 962.81 482.454C972.66 482.454 980.646 490.439 980.646 500.29ZM948.541 500.29C948.541 508.17 954.929 514.559 962.81 514.559C970.69 514.559 977.078 508.17 977.078 500.29C977.078 492.409 970.69 486.021 962.81 486.021C954.929 486.021 948.541 492.409 948.541 500.29Z" fill="white"/>
<path d="M879.203 163.342C879.203 153.491 887.188 145.506 897.039 145.506C906.89 145.506 914.875 153.491 914.875 163.342C914.875 173.192 906.89 181.178 897.039 181.178C887.188 181.178 879.203 173.192 879.203 163.342ZM911.308 163.342C911.308 155.461 904.919 149.073 897.039 149.073C889.159 149.073 882.77 155.461 882.77 163.342C882.77 171.222 889.159 177.61 897.039 177.61C904.919 177.61 911.308 171.222 911.308 163.342Z" fill="white"/>
<path d="M879.203 354.258C879.203 344.407 887.188 336.422 897.039 336.422C906.89 336.422 914.875 344.407 914.875 354.258C914.875 364.108 906.89 372.094 897.039 372.094C887.188 372.094 879.203 364.108 879.203 354.258ZM911.308 354.258C911.308 346.377 904.919 339.989 897.039 339.989C889.159 339.989 882.77 346.377 882.77 354.258C882.77 362.138 889.159 368.526 897.039 368.526C904.919 368.526 911.308 362.138 911.308 354.258Z" fill="white"/>
<path d="M980.646 404.127C980.646 413.978 972.66 421.963 962.81 421.963C952.959 421.963 944.974 413.978 944.974 404.127C944.974 394.277 952.959 386.291 962.81 386.291C972.66 386.291 980.646 394.277 980.646 404.127ZM948.541 404.127C948.541 412.008 954.929 418.396 962.81 418.396C970.69 418.396 977.078 412.008 977.078 404.127C977.078 396.247 970.69 389.858 962.81 389.858C954.929 389.858 948.541 396.247 948.541 404.127Z" fill="white"/>
<path d="M1115.52 18.1299C1115.52 27.9805 1107.53 35.9659 1097.68 35.9659C1087.83 35.9659 1079.85 27.9805 1079.85 18.1299C1079.85 8.27939 1087.83 0.293945 1097.68 0.293945C1107.53 0.293945 1115.52 8.27939 1115.52 18.1299ZM1083.42 18.1299C1083.42 26.0104 1089.8 32.3987 1097.68 32.3987C1105.56 32.3987 1111.95 26.0104 1111.95 18.1299C1111.95 10.2495 1105.56 3.86115 1097.68 3.86115C1089.8 3.86115 1083.42 10.2495 1083.42 18.1299Z" fill="white"/>
<path d="M1115.52 209.046C1115.52 218.897 1107.53 226.882 1097.68 226.882C1087.83 226.882 1079.85 218.897 1079.85 209.046C1079.85 199.196 1087.83 191.21 1097.68 191.21C1107.53 191.21 1115.52 199.196 1115.52 209.046ZM1083.42 209.046C1083.42 216.927 1089.8 223.315 1097.68 223.315C1105.56 223.315 1111.95 216.927 1111.95 209.046C1111.95 201.166 1105.56 194.778 1097.68 194.778C1089.8 194.778 1083.42 201.166 1083.42 209.046Z" fill="white"/>
<path d="M1115.52 114.293C1115.52 124.143 1107.53 132.129 1097.68 132.129C1087.83 132.129 1079.85 124.143 1079.85 114.293C1079.85 104.442 1087.83 96.4565 1097.68 96.4565C1107.53 96.4565 1115.52 104.442 1115.52 114.293ZM1083.42 114.293C1083.42 122.173 1089.8 128.561 1097.68 128.561C1105.56 128.561 1111.95 122.173 1111.95 114.293C1111.95 106.412 1105.56 100.024 1097.68 100.024C1089.8 100.024 1083.42 106.412 1083.42 114.293Z" fill="white"/>
<path d="M1115.52 305.208C1115.52 315.059 1107.53 323.044 1097.68 323.044C1087.83 323.044 1079.85 315.059 1079.85 305.208C1079.85 295.358 1087.83 287.372 1097.68 287.372C1107.53 287.372 1115.52 295.358 1115.52 305.208ZM1083.42 305.208C1083.42 313.089 1089.8 319.477 1097.68 319.477C1105.56 319.477 1111.95 313.089 1111.95 305.208C1111.95 297.328 1105.56 290.94 1097.68 290.94C1089.8 290.94 1083.42 297.328 1083.42 305.208Z" fill="white"/>
<path d="M744.328 453.176C744.328 443.326 752.313 435.34 762.164 435.34C772.015 435.34 780 443.326 780 453.176C780 463.027 772.015 471.012 762.164 471.012C752.313 471.012 744.328 463.027 744.328 453.176ZM776.433 453.176C776.433 445.296 770.044 438.908 762.164 438.908C754.284 438.908 747.895 445.296 747.895 453.176C747.895 461.057 754.284 467.445 762.164 467.445C770.044 467.445 776.433 461.057 776.433 453.176Z" fill="white"/>
<path d="M744.328 67.179C744.328 57.3285 752.313 49.343 762.164 49.343C772.015 49.343 780 57.3285 780 67.179C780 77.0296 772.015 85.015 762.164 85.015C752.313 85.015 744.328 77.0296 744.328 67.179ZM776.433 67.179C776.433 59.2986 770.044 52.9102 762.164 52.9102C754.284 52.9102 747.895 59.2986 747.895 67.179C747.895 75.0595 754.284 81.4478 762.164 81.4478C770.044 81.4478 776.433 75.0595 776.433 67.179Z" fill="white"/>
<path d="M744.328 258.095C744.328 248.245 752.313 240.259 762.164 240.259C772.015 240.259 780 248.245 780 258.095C780 267.946 772.015 275.931 762.164 275.931C752.313 275.931 744.328 267.946 744.328 258.095ZM776.433 258.095C776.433 250.215 770.044 243.827 762.164 243.827C754.284 243.827 747.895 250.215 747.895 258.095C747.895 265.976 754.284 272.364 762.164 272.364C770.044 272.364 776.433 265.976 776.433 258.095Z" fill="white"/>
<path d="M1115.52 500.29C1115.52 510.14 1107.53 518.126 1097.68 518.126C1087.83 518.126 1079.85 510.14 1079.85 500.29C1079.85 490.439 1087.83 482.454 1097.68 482.454C1107.53 482.454 1115.52 490.439 1115.52 500.29ZM1083.42 500.29C1083.42 508.17 1089.8 514.559 1097.68 514.559C1105.56 514.559 1111.95 508.17 1111.95 500.29C1111.95 492.409 1105.56 486.021 1097.68 486.021C1089.8 486.021 1083.42 492.409 1083.42 500.29Z" fill="white"/>
<path d="M744.328 163.342C744.328 153.491 752.313 145.506 762.164 145.506C772.015 145.506 780 153.491 780 163.342C780 173.192 772.015 181.178 762.164 181.178C752.313 181.178 744.328 173.192 744.328 163.342ZM776.433 163.342C776.433 155.461 770.044 149.073 762.164 149.073C754.284 149.073 747.895 155.461 747.895 163.342C747.895 171.222 754.284 177.61 762.164 177.61C770.044 177.61 776.433 171.222 776.433 163.342Z" fill="white"/>
<path d="M744.328 354.258C744.328 344.407 752.313 336.422 762.164 336.422C772.015 336.422 780 344.407 780 354.258C780 364.108 772.015 372.094 762.164 372.094C752.313 372.094 744.328 364.108 744.328 354.258ZM776.433 354.258C776.433 346.377 770.044 339.989 762.164 339.989C754.284 339.989 747.895 346.377 747.895 354.258C747.895 362.138 754.284 368.526 762.164 368.526C770.044 368.526 776.433 362.138 776.433 354.258Z" fill="white"/>
<path d="M1115.52 404.127C1115.52 413.978 1107.53 421.963 1097.68 421.963C1087.83 421.963 1079.85 413.978 1079.85 404.127C1079.85 394.277 1087.83 386.291 1097.68 386.291C1107.53 386.291 1115.52 394.277 1115.52 404.127ZM1083.42 404.127C1083.42 412.008 1089.8 418.396 1097.68 418.396C1105.56 418.396 1111.95 412.008 1111.95 404.127C1111.95 396.247 1105.56 389.858 1097.68 389.858C1089.8 389.858 1083.42 396.247 1083.42 404.127Z" fill="white"/>
<path d="M1250.4 18.1299C1250.4 27.9805 1242.41 35.9659 1232.56 35.9659C1222.71 35.9659 1214.72 27.9805 1214.72 18.1299C1214.72 8.27939 1222.71 0.293945 1232.56 0.293945C1242.41 0.293945 1250.4 8.27939 1250.4 18.1299ZM1218.29 18.1299C1218.29 26.0104 1224.68 32.3987 1232.56 32.3987C1240.44 32.3987 1246.83 26.0104 1246.83 18.1299C1246.83 10.2495 1240.44 3.86115 1232.56 3.86115C1224.68 3.86115 1218.29 10.2495 1218.29 18.1299Z" fill="white"/>
<path d="M1250.4 209.046C1250.4 218.897 1242.41 226.882 1232.56 226.882C1222.71 226.882 1214.72 218.897 1214.72 209.046C1214.72 199.196 1222.71 191.21 1232.56 191.21C1242.41 191.21 1250.4 199.196 1250.4 209.046ZM1218.29 209.046C1218.29 216.927 1224.68 223.315 1232.56 223.315C1240.44 223.315 1246.83 216.927 1246.83 209.046C1246.83 201.166 1240.44 194.778 1232.56 194.778C1224.68 194.778 1218.29 201.166 1218.29 209.046Z" fill="white"/>
<path d="M1250.4 114.293C1250.4 124.143 1242.41 132.129 1232.56 132.129C1222.71 132.129 1214.72 124.143 1214.72 114.293C1214.72 104.442 1222.71 96.4565 1232.56 96.4565C1242.41 96.4565 1250.4 104.442 1250.4 114.293ZM1218.29 114.293C1218.29 122.173 1224.68 128.561 1232.56 128.561C1240.44 128.561 1246.83 122.173 1246.83 114.293C1246.83 106.412 1240.44 100.024 1232.56 100.024C1224.68 100.024 1218.29 106.412 1218.29 114.293Z" fill="white"/>
<path d="M1250.4 305.208C1250.4 315.059 1242.41 323.044 1232.56 323.044C1222.71 323.044 1214.72 315.059 1214.72 305.208C1214.72 295.358 1222.71 287.372 1232.56 287.372C1242.41 287.372 1250.4 295.358 1250.4 305.208ZM1218.29 305.208C1218.29 313.089 1224.68 319.477 1232.56 319.477C1240.44 319.477 1246.83 313.089 1246.83 305.208C1246.83 297.328 1240.44 290.94 1232.56 290.94C1224.68 290.94 1218.29 297.328 1218.29 305.208Z" fill="white"/>
<path d="M609.453 453.176C609.453 443.326 617.438 435.34 627.289 435.34C637.14 435.34 645.125 443.326 645.125 453.176C645.125 463.027 637.14 471.012 627.289 471.012C617.438 471.012 609.453 463.027 609.453 453.176ZM641.558 453.176C641.558 445.296 635.169 438.908 627.289 438.908C619.409 438.908 613.02 445.296 613.02 453.176C613.02 461.057 619.409 467.445 627.289 467.445C635.169 467.445 641.558 461.057 641.558 453.176Z" fill="white"/>
<path d="M609.453 67.179C609.453 57.3285 617.438 49.343 627.289 49.343C637.14 49.343 645.125 57.3285 645.125 67.179C645.125 77.0296 637.14 85.015 627.289 85.015C617.438 85.015 609.453 77.0296 609.453 67.179ZM641.558 67.179C641.558 59.2986 635.169 52.9102 627.289 52.9102C619.409 52.9102 613.02 59.2986 613.02 67.179C613.02 75.0595 619.409 81.4478 627.289 81.4478C635.169 81.4478 641.558 75.0595 641.558 67.179Z" fill="white"/>
<path d="M609.453 258.095C609.453 248.245 617.438 240.259 627.289 240.259C637.14 240.259 645.125 248.245 645.125 258.095C645.125 267.946 637.14 275.931 627.289 275.931C617.438 275.931 609.453 267.946 609.453 258.095ZM641.558 258.095C641.558 250.215 635.169 243.827 627.289 243.827C619.409 243.827 613.02 250.215 613.02 258.095C613.02 265.976 619.409 272.364 627.289 272.364C635.169 272.364 641.558 265.976 641.558 258.095Z" fill="white"/>
<path d="M1250.4 500.29C1250.4 510.14 1242.41 518.126 1232.56 518.126C1222.71 518.126 1214.72 510.14 1214.72 500.29C1214.72 490.439 1222.71 482.454 1232.56 482.454C1242.41 482.454 1250.4 490.439 1250.4 500.29ZM1218.29 500.29C1218.29 508.17 1224.68 514.559 1232.56 514.559C1240.44 514.559 1246.83 508.17 1246.83 500.29C1246.83 492.409 1240.44 486.021 1232.56 486.021C1224.68 486.021 1218.29 492.409 1218.29 500.29Z" fill="white"/>
<path d="M609.453 163.342C609.453 153.491 617.438 145.506 627.289 145.506C637.14 145.506 645.125 153.491 645.125 163.342C645.125 173.192 637.14 181.178 627.289 181.178C617.438 181.178 609.453 173.192 609.453 163.342ZM641.558 163.342C641.558 155.461 635.169 149.073 627.289 149.073C619.409 149.073 613.02 155.461 613.02 163.342C613.02 171.222 619.409 177.61 627.289 177.61C635.169 177.61 641.558 171.222 641.558 163.342Z" fill="white"/>
<path d="M609.453 354.258C609.453 344.407 617.438 336.422 627.289 336.422C637.14 336.422 645.125 344.407 645.125 354.258C645.125 364.108 637.14 372.094 627.289 372.094C617.438 372.094 609.453 364.108 609.453 354.258ZM641.558 354.258C641.558 346.377 635.169 339.989 627.289 339.989C619.409 339.989 613.02 346.377 613.02 354.258C613.02 362.138 619.409 368.526 627.289 368.526C635.169 368.526 641.558 362.138 641.558 354.258Z" fill="white"/>
<path d="M1250.4 404.127C1250.4 413.978 1242.41 421.963 1232.56 421.963C1222.71 421.963 1214.72 413.978 1214.72 404.127C1214.72 394.277 1222.71 386.291 1232.56 386.291C1242.41 386.291 1250.4 394.277 1250.4 404.127ZM1218.29 404.127C1218.29 412.008 1224.68 418.396 1232.56 418.396C1240.44 418.396 1246.83 412.008 1246.83 404.127C1246.83 396.247 1240.44 389.858 1232.56 389.858C1224.68 389.858 1218.29 396.247 1218.29 404.127Z" fill="white"/>
<path d="M1385.27 18.1299C1385.27 27.9805 1377.28 35.9659 1367.43 35.9659C1357.58 35.9659 1349.6 27.9805 1349.6 18.1299C1349.6 8.27939 1357.58 0.293945 1367.43 0.293945C1377.28 0.293945 1385.27 8.27939 1385.27 18.1299ZM1353.17 18.1299C1353.17 26.0104 1359.55 32.3987 1367.43 32.3987C1375.31 32.3987 1381.7 26.0104 1381.7 18.1299C1381.7 10.2495 1375.31 3.86115 1367.43 3.86115C1359.55 3.86115 1353.17 10.2495 1353.17 18.1299Z" fill="white"/>
<path d="M1385.27 209.046C1385.27 218.897 1377.28 226.882 1367.43 226.882C1357.58 226.882 1349.6 218.897 1349.6 209.046C1349.6 199.196 1357.58 191.21 1367.43 191.21C1377.28 191.21 1385.27 199.196 1385.27 209.046ZM1353.17 209.046C1353.17 216.927 1359.55 223.315 1367.43 223.315C1375.31 223.315 1381.7 216.927 1381.7 209.046C1381.7 201.166 1375.31 194.778 1367.43 194.778C1359.55 194.778 1353.17 201.166 1353.17 209.046Z" fill="white"/>
<path d="M1385.27 114.293C1385.27 124.143 1377.28 132.129 1367.43 132.129C1357.58 132.129 1349.6 124.143 1349.6 114.293C1349.6 104.442 1357.58 96.4565 1367.43 96.4565C1377.28 96.4565 1385.27 104.442 1385.27 114.293ZM1353.17 114.293C1353.17 122.173 1359.55 128.561 1367.43 128.561C1375.31 128.561 1381.7 122.173 1381.7 114.293C1381.7 106.412 1375.31 100.024 1367.43 100.024C1359.55 100.024 1353.17 106.412 1353.17 114.293Z" fill="white"/>
<path d="M1385.27 305.208C1385.27 315.059 1377.28 323.044 1367.43 323.044C1357.58 323.044 1349.6 315.059 1349.6 305.208C1349.6 295.358 1357.58 287.372 1367.43 287.372C1377.28 287.372 1385.27 295.358 1385.27 305.208ZM1353.17 305.208C1353.17 313.089 1359.55 319.477 1367.43 319.477C1375.31 319.477 1381.7 313.089 1381.7 305.208C1381.7 297.328 1375.31 290.94 1367.43 290.94C1359.55 290.94 1353.17 297.328 1353.17 305.208Z" fill="white"/>
<path d="M474.578 453.176C474.578 443.326 482.563 435.34 492.414 435.34C502.265 435.34 510.25 443.326 510.25 453.176C510.25 463.027 502.265 471.012 492.414 471.012C482.563 471.012 474.578 463.027 474.578 453.176ZM506.683 453.176C506.683 445.296 500.294 438.908 492.414 438.908C484.534 438.908 478.145 445.296 478.145 453.176C478.145 461.057 484.534 467.445 492.414 467.445C500.294 467.445 506.683 461.057 506.683 453.176Z" fill="white"/>
<path d="M474.578 67.179C474.578 57.3285 482.563 49.343 492.414 49.343C502.265 49.343 510.25 57.3285 510.25 67.179C510.25 77.0296 502.265 85.015 492.414 85.015C482.563 85.015 474.578 77.0296 474.578 67.179ZM506.683 67.179C506.683 59.2986 500.294 52.9102 492.414 52.9102C484.534 52.9102 478.145 59.2986 478.145 67.179C478.145 75.0595 484.534 81.4478 492.414 81.4478C500.294 81.4478 506.683 75.0595 506.683 67.179Z" fill="white"/>
<path d="M474.578 258.095C474.578 248.245 482.563 240.259 492.414 240.259C502.265 240.259 510.25 248.245 510.25 258.095C510.25 267.946 502.265 275.931 492.414 275.931C482.563 275.931 474.578 267.946 474.578 258.095ZM506.683 258.095C506.683 250.215 500.294 243.827 492.414 243.827C484.534 243.827 478.145 250.215 478.145 258.095C478.145 265.976 484.534 272.364 492.414 272.364C500.294 272.364 506.683 265.976 506.683 258.095Z" fill="white"/>
<path d="M1385.27 500.29C1385.27 510.14 1377.28 518.126 1367.43 518.126C1357.58 518.126 1349.6 510.14 1349.6 500.29C1349.6 490.439 1357.58 482.454 1367.43 482.454C1377.28 482.454 1385.27 490.439 1385.27 500.29ZM1353.17 500.29C1353.17 508.17 1359.55 514.559 1367.43 514.559C1375.31 514.559 1381.7 508.17 1381.7 500.29C1381.7 492.409 1375.31 486.021 1367.43 486.021C1359.55 486.021 1353.17 492.409 1353.17 500.29Z" fill="white"/>
<path d="M474.578 163.342C474.578 153.491 482.563 145.506 492.414 145.506C502.265 145.506 510.25 153.491 510.25 163.342C510.25 173.192 502.265 181.178 492.414 181.178C482.563 181.178 474.578 173.192 474.578 163.342ZM506.683 163.342C506.683 155.461 500.294 149.073 492.414 149.073C484.534 149.073 478.145 155.461 478.145 163.342C478.145 171.222 484.534 177.61 492.414 177.61C500.294 177.61 506.683 171.222 506.683 163.342Z" fill="white"/>
<path d="M474.578 354.258C474.578 344.407 482.563 336.422 492.414 336.422C502.265 336.422 510.25 344.407 510.25 354.258C510.25 364.108 502.265 372.094 492.414 372.094C482.563 372.094 474.578 364.108 474.578 354.258ZM506.683 354.258C506.683 346.377 500.294 339.989 492.414 339.989C484.534 339.989 478.145 346.377 478.145 354.258C478.145 362.138 484.534 368.526 492.414 368.526C500.294 368.526 506.683 362.138 506.683 354.258Z" fill="white"/>
<path d="M1385.27 404.127C1385.27 413.978 1377.28 421.963 1367.43 421.963C1357.58 421.963 1349.6 413.978 1349.6 404.127C1349.6 394.277 1357.58 386.291 1367.43 386.291C1377.28 386.291 1385.27 394.277 1385.27 404.127ZM1353.17 404.127C1353.17 412.008 1359.55 418.396 1367.43 418.396C1375.31 418.396 1381.7 412.008 1381.7 404.127C1381.7 396.247 1375.31 389.858 1367.43 389.858C1359.55 389.858 1353.17 396.247 1353.17 404.127Z" fill="white"/>
<path d="M1520.15 18.1299C1520.15 27.9805 1512.16 35.9659 1502.31 35.9659C1492.46 35.9659 1484.47 27.9805 1484.47 18.1299C1484.47 8.27939 1492.46 0.293945 1502.31 0.293945C1512.16 0.293945 1520.15 8.27939 1520.15 18.1299ZM1488.04 18.1299C1488.04 26.0104 1494.43 32.3987 1502.31 32.3987C1510.19 32.3987 1516.58 26.0104 1516.58 18.1299C1516.58 10.2495 1510.19 3.86115 1502.31 3.86115C1494.43 3.86115 1488.04 10.2495 1488.04 18.1299Z" fill="white"/>
<path d="M1520.15 209.046C1520.15 218.897 1512.16 226.882 1502.31 226.882C1492.46 226.882 1484.47 218.897 1484.47 209.046C1484.47 199.196 1492.46 191.21 1502.31 191.21C1512.16 191.21 1520.15 199.196 1520.15 209.046ZM1488.04 209.046C1488.04 216.927 1494.43 223.315 1502.31 223.315C1510.19 223.315 1516.58 216.927 1516.58 209.046C1516.58 201.166 1510.19 194.778 1502.31 194.778C1494.43 194.778 1488.04 201.166 1488.04 209.046Z" fill="white"/>
<path d="M1520.15 114.293C1520.15 124.143 1512.16 132.129 1502.31 132.129C1492.46 132.129 1484.47 124.143 1484.47 114.293C1484.47 104.442 1492.46 96.4565 1502.31 96.4565C1512.16 96.4565 1520.15 104.442 1520.15 114.293ZM1488.04 114.293C1488.04 122.173 1494.43 128.561 1502.31 128.561C1510.19 128.561 1516.58 122.173 1516.58 114.293C1516.58 106.412 1510.19 100.024 1502.31 100.024C1494.43 100.024 1488.04 106.412 1488.04 114.293Z" fill="white"/>
<path d="M1520.15 305.208C1520.15 315.059 1512.16 323.044 1502.31 323.044C1492.46 323.044 1484.47 315.059 1484.47 305.208C1484.47 295.358 1492.46 287.372 1502.31 287.372C1512.16 287.372 1520.15 295.358 1520.15 305.208ZM1488.04 305.208C1488.04 313.089 1494.43 319.477 1502.31 319.477C1510.19 319.477 1516.58 313.089 1516.58 305.208C1516.58 297.328 1510.19 290.94 1502.31 290.94C1494.43 290.94 1488.04 297.328 1488.04 305.208Z" fill="white"/>
<path d="M339.703 453.176C339.703 443.326 347.689 435.34 357.539 435.34C367.39 435.34 375.375 443.326 375.375 453.176C375.375 463.027 367.39 471.012 357.539 471.012C347.689 471.012 339.703 463.027 339.703 453.176ZM371.808 453.176C371.808 445.296 365.42 438.908 357.539 438.908C349.659 438.908 343.27 445.296 343.27 453.176C343.27 461.057 349.659 467.445 357.539 467.445C365.42 467.445 371.808 461.057 371.808 453.176Z" fill="white"/>
<path d="M339.703 67.179C339.703 57.3285 347.689 49.343 357.539 49.343C367.39 49.343 375.375 57.3285 375.375 67.179C375.375 77.0296 367.39 85.015 357.539 85.015C347.689 85.015 339.703 77.0296 339.703 67.179ZM371.808 67.179C371.808 59.2986 365.42 52.9102 357.539 52.9102C349.659 52.9102 343.27 59.2986 343.27 67.179C343.27 75.0595 349.659 81.4478 357.539 81.4478C365.42 81.4478 371.808 75.0595 371.808 67.179Z" fill="white"/>
<path d="M339.703 258.095C339.703 248.245 347.689 240.259 357.539 240.259C367.39 240.259 375.375 248.245 375.375 258.095C375.375 267.946 367.39 275.931 357.539 275.931C347.689 275.931 339.703 267.946 339.703 258.095ZM371.808 258.095C371.808 250.215 365.42 243.827 357.539 243.827C349.659 243.827 343.27 250.215 343.27 258.095C343.27 265.976 349.659 272.364 357.539 272.364C365.42 272.364 371.808 265.976 371.808 258.095Z" fill="white"/>
<path d="M1520.15 500.29C1520.15 510.14 1512.16 518.126 1502.31 518.126C1492.46 518.126 1484.47 510.14 1484.47 500.29C1484.47 490.439 1492.46 482.454 1502.31 482.454C1512.16 482.454 1520.15 490.439 1520.15 500.29ZM1488.04 500.29C1488.04 508.17 1494.43 514.559 1502.31 514.559C1510.19 514.559 1516.58 508.17 1516.58 500.29C1516.58 492.409 1510.19 486.021 1502.31 486.021C1494.43 486.021 1488.04 492.409 1488.04 500.29Z" fill="white"/>
<path d="M339.703 163.342C339.703 153.491 347.689 145.506 357.539 145.506C367.39 145.506 375.375 153.491 375.375 163.342C375.375 173.192 367.39 181.178 357.539 181.178C347.689 181.178 339.703 173.192 339.703 163.342ZM371.808 163.342C371.808 155.461 365.42 149.073 357.539 149.073C349.659 149.073 343.27 155.461 343.27 163.342C343.27 171.222 349.659 177.61 357.539 177.61C365.42 177.61 371.808 171.222 371.808 163.342Z" fill="white"/>
<path d="M339.703 354.258C339.703 344.407 347.689 336.422 357.539 336.422C367.39 336.422 375.375 344.407 375.375 354.258C375.375 364.108 367.39 372.094 357.539 372.094C347.689 372.094 339.703 364.108 339.703 354.258ZM371.808 354.258C371.808 346.377 365.42 339.989 357.539 339.989C349.659 339.989 343.27 346.377 343.27 354.258C343.27 362.138 349.659 368.526 357.539 368.526C365.42 368.526 371.808 362.138 371.808 354.258Z" fill="white"/>
<path d="M1520.15 404.127C1520.15 413.978 1512.16 421.963 1502.31 421.963C1492.46 421.963 1484.47 413.978 1484.47 404.127C1484.47 394.277 1492.46 386.291 1502.31 386.291C1512.16 386.291 1520.15 394.277 1520.15 404.127ZM1488.04 404.127C1488.04 412.008 1494.43 418.396 1502.31 418.396C1510.19 418.396 1516.58 412.008 1516.58 404.127C1516.58 396.247 1510.19 389.858 1502.31 389.858C1494.43 389.858 1488.04 396.247 1488.04 404.127Z" fill="white"/>
<path d="M1655.02 18.1299C1655.02 27.9805 1647.03 35.9659 1637.18 35.9659C1627.33 35.9659 1619.35 27.9805 1619.35 18.1299C1619.35 8.27939 1627.33 0.293945 1637.18 0.293945C1647.03 0.293945 1655.02 8.27939 1655.02 18.1299ZM1622.91 18.1299C1622.91 26.0104 1629.3 32.3987 1637.18 32.3987C1645.06 32.3987 1651.45 26.0104 1651.45 18.1299C1651.45 10.2495 1645.06 3.86115 1637.18 3.86115C1629.3 3.86115 1622.91 10.2495 1622.91 18.1299Z" fill="white"/>
<path d="M1655.02 209.046C1655.02 218.897 1647.03 226.882 1637.18 226.882C1627.33 226.882 1619.35 218.897 1619.35 209.046C1619.35 199.196 1627.33 191.21 1637.18 191.21C1647.03 191.21 1655.02 199.196 1655.02 209.046ZM1622.91 209.046C1622.91 216.927 1629.3 223.315 1637.18 223.315C1645.06 223.315 1651.45 216.927 1651.45 209.046C1651.45 201.166 1645.06 194.778 1637.18 194.778C1629.3 194.778 1622.91 201.166 1622.91 209.046Z" fill="white"/>
<path d="M1655.02 114.293C1655.02 124.143 1647.03 132.129 1637.18 132.129C1627.33 132.129 1619.35 124.143 1619.35 114.293C1619.35 104.442 1627.33 96.4565 1637.18 96.4565C1647.03 96.4565 1655.02 104.442 1655.02 114.293ZM1622.91 114.293C1622.91 122.173 1629.3 128.561 1637.18 128.561C1645.06 128.561 1651.45 122.173 1651.45 114.293C1651.45 106.412 1645.06 100.024 1637.18 100.024C1629.3 100.024 1622.91 106.412 1622.91 114.293Z" fill="white"/>
<path d="M1655.02 305.208C1655.02 315.059 1647.03 323.044 1637.18 323.044C1627.33 323.044 1619.35 315.059 1619.35 305.208C1619.35 295.358 1627.33 287.372 1637.18 287.372C1647.03 287.372 1655.02 295.358 1655.02 305.208ZM1622.91 305.208C1622.91 313.089 1629.3 319.477 1637.18 319.477C1645.06 319.477 1651.45 313.089 1651.45 305.208C1651.45 297.328 1645.06 290.94 1637.18 290.94C1629.3 290.94 1622.91 297.328 1622.91 305.208Z" fill="white"/>
<path d="M204.828 453.176C204.828 443.326 212.814 435.34 222.664 435.34C232.515 435.34 240.5 443.326 240.5 453.176C240.5 463.027 232.515 471.012 222.664 471.012C212.814 471.012 204.828 463.027 204.828 453.176ZM236.933 453.176C236.933 445.296 230.545 438.908 222.664 438.908C214.784 438.908 208.395 445.296 208.395 453.176C208.395 461.057 214.784 467.445 222.664 467.445C230.545 467.445 236.933 461.057 236.933 453.176Z" fill="white"/>
<path d="M204.828 67.179C204.828 57.3285 212.814 49.343 222.664 49.343C232.515 49.343 240.5 57.3285 240.5 67.179C240.5 77.0296 232.515 85.015 222.664 85.015C212.814 85.015 204.828 77.0296 204.828 67.179ZM236.933 67.179C236.933 59.2986 230.545 52.9102 222.664 52.9102C214.784 52.9102 208.395 59.2986 208.395 67.179C208.395 75.0595 214.784 81.4478 222.664 81.4478C230.545 81.4478 236.933 75.0595 236.933 67.179Z" fill="white"/>
<path d="M204.828 258.095C204.828 248.245 212.814 240.259 222.664 240.259C232.515 240.259 240.5 248.245 240.5 258.095C240.5 267.946 232.515 275.931 222.664 275.931C212.814 275.931 204.828 267.946 204.828 258.095ZM236.933 258.095C236.933 250.215 230.545 243.827 222.664 243.827C214.784 243.827 208.395 250.215 208.395 258.095C208.395 265.976 214.784 272.364 222.664 272.364C230.545 272.364 236.933 265.976 236.933 258.095Z" fill="white"/>
<path d="M1655.02 500.29C1655.02 510.14 1647.03 518.126 1637.18 518.126C1627.33 518.126 1619.35 510.14 1619.35 500.29C1619.35 490.439 1627.33 482.454 1637.18 482.454C1647.03 482.454 1655.02 490.439 1655.02 500.29ZM1622.91 500.29C1622.91 508.17 1629.3 514.559 1637.18 514.559C1645.06 514.559 1651.45 508.17 1651.45 500.29C1651.45 492.409 1645.06 486.021 1637.18 486.021C1629.3 486.021 1622.91 492.409 1622.91 500.29Z" fill="white"/>
<path d="M204.828 163.342C204.828 153.491 212.814 145.506 222.664 145.506C232.515 145.506 240.5 153.491 240.5 163.342C240.5 173.192 232.515 181.178 222.664 181.178C212.814 181.178 204.828 173.192 204.828 163.342ZM236.933 163.342C236.933 155.461 230.545 149.073 222.664 149.073C214.784 149.073 208.395 155.461 208.395 163.342C208.395 171.222 214.784 177.61 222.664 177.61C230.545 177.61 236.933 171.222 236.933 163.342Z" fill="white"/>
<path d="M204.828 354.258C204.828 344.407 212.814 336.422 222.664 336.422C232.515 336.422 240.5 344.407 240.5 354.258C240.5 364.108 232.515 372.094 222.664 372.094C212.814 372.094 204.828 364.108 204.828 354.258ZM236.933 354.258C236.933 346.377 230.545 339.989 222.664 339.989C214.784 339.989 208.395 346.377 208.395 354.258C208.395 362.138 214.784 368.526 222.664 368.526C230.545 368.526 236.933 362.138 236.933 354.258Z" fill="white"/>
<path d="M1655.02 404.127C1655.02 413.978 1647.03 421.963 1637.18 421.963C1627.33 421.963 1619.35 413.978 1619.35 404.127C1619.35 394.277 1627.33 386.291 1637.18 386.291C1647.03 386.291 1655.02 394.277 1655.02 404.127ZM1622.91 404.127C1622.91 412.008 1629.3 418.396 1637.18 418.396C1645.06 418.396 1651.45 412.008 1651.45 404.127C1651.45 396.247 1645.06 389.858 1637.18 389.858C1629.3 389.858 1622.91 396.247 1622.91 404.127Z" fill="white"/>
<path d="M1789.89 18.1299C1789.89 27.9805 1781.91 35.9659 1772.06 35.9659C1762.21 35.9659 1754.22 27.9805 1754.22 18.1299C1754.22 8.27939 1762.21 0.293945 1772.06 0.293945C1781.91 0.293945 1789.89 8.27939 1789.89 18.1299ZM1757.79 18.1299C1757.79 26.0104 1764.18 32.3987 1772.06 32.3987C1779.94 32.3987 1786.33 26.0104 1786.33 18.1299C1786.33 10.2495 1779.94 3.86115 1772.06 3.86115C1764.18 3.86115 1757.79 10.2495 1757.79 18.1299Z" fill="white"/>
<path d="M1789.89 209.046C1789.89 218.897 1781.91 226.882 1772.06 226.882C1762.21 226.882 1754.22 218.897 1754.22 209.046C1754.22 199.196 1762.21 191.21 1772.06 191.21C1781.91 191.21 1789.89 199.196 1789.89 209.046ZM1757.79 209.046C1757.79 216.927 1764.18 223.315 1772.06 223.315C1779.94 223.315 1786.33 216.927 1786.33 209.046C1786.33 201.166 1779.94 194.778 1772.06 194.778C1764.18 194.778 1757.79 201.166 1757.79 209.046Z" fill="white"/>
<path d="M1789.89 114.293C1789.89 124.143 1781.91 132.129 1772.06 132.129C1762.21 132.129 1754.22 124.143 1754.22 114.293C1754.22 104.442 1762.21 96.4565 1772.06 96.4565C1781.91 96.4565 1789.89 104.442 1789.89 114.293ZM1757.79 114.293C1757.79 122.173 1764.18 128.561 1772.06 128.561C1779.94 128.561 1786.33 122.173 1786.33 114.293C1786.33 106.412 1779.94 100.024 1772.06 100.024C1764.18 100.024 1757.79 106.412 1757.79 114.293Z" fill="white"/>
<path d="M1789.89 305.208C1789.89 315.059 1781.91 323.044 1772.06 323.044C1762.21 323.044 1754.22 315.059 1754.22 305.208C1754.22 295.358 1762.21 287.372 1772.06 287.372C1781.91 287.372 1789.89 295.358 1789.89 305.208ZM1757.79 305.208C1757.79 313.089 1764.18 319.477 1772.06 319.477C1779.94 319.477 1786.33 313.089 1786.33 305.208C1786.33 297.328 1779.94 290.94 1772.06 290.94C1764.18 290.94 1757.79 297.328 1757.79 305.208Z" fill="white"/>
<path d="M69.9535 453.176C69.9535 443.326 77.9389 435.34 87.7895 435.34C97.64 435.34 105.625 443.326 105.625 453.176C105.625 463.027 97.64 471.012 87.7895 471.012C77.9389 471.012 69.9535 463.027 69.9535 453.176ZM102.058 453.176C102.058 445.296 95.6699 438.908 87.7895 438.908C79.909 438.908 73.5207 445.296 73.5207 453.176C73.5207 461.057 79.909 467.445 87.7895 467.445C95.6699 467.445 102.058 461.057 102.058 453.176Z" fill="white"/>
<path d="M69.9535 67.179C69.9535 57.3285 77.9389 49.343 87.7895 49.343C97.64 49.343 105.625 57.3285 105.625 67.179C105.625 77.0296 97.64 85.015 87.7895 85.015C77.9389 85.015 69.9535 77.0296 69.9535 67.179ZM102.058 67.179C102.058 59.2986 95.6699 52.9102 87.7895 52.9102C79.909 52.9102 73.5207 59.2986 73.5207 67.179C73.5207 75.0595 79.909 81.4478 87.7895 81.4478C95.6699 81.4478 102.058 75.0595 102.058 67.179Z" fill="white"/>
<path d="M69.9535 258.095C69.9535 248.245 77.9389 240.259 87.7895 240.259C97.64 240.259 105.625 248.245 105.625 258.095C105.625 267.946 97.64 275.931 87.7895 275.931C77.9389 275.931 69.9535 267.946 69.9535 258.095ZM102.058 258.095C102.058 250.215 95.6699 243.827 87.7895 243.827C79.909 243.827 73.5207 250.215 73.5207 258.095C73.5207 265.976 79.909 272.364 87.7895 272.364C95.6699 272.364 102.058 265.976 102.058 258.095Z" fill="white"/>
<path d="M1789.89 500.29C1789.89 510.14 1781.91 518.126 1772.06 518.126C1762.21 518.126 1754.22 510.14 1754.22 500.29C1754.22 490.439 1762.21 482.454 1772.06 482.454C1781.91 482.454 1789.89 490.439 1789.89 500.29ZM1757.79 500.29C1757.79 508.17 1764.18 514.559 1772.06 514.559C1779.94 514.559 1786.33 508.17 1786.33 500.29C1786.33 492.409 1779.94 486.021 1772.06 486.021C1764.18 486.021 1757.79 492.409 1757.79 500.29Z" fill="white"/>
<path d="M69.9535 163.342C69.9535 153.491 77.9389 145.506 87.7895 145.506C97.64 145.506 105.625 153.491 105.625 163.342C105.625 173.192 97.64 181.178 87.7895 181.178C77.9389 181.178 69.9535 173.192 69.9535 163.342ZM102.058 163.342C102.058 155.461 95.6699 149.073 87.7895 149.073C79.909 149.073 73.5207 155.461 73.5207 163.342C73.5207 171.222 79.909 177.61 87.7895 177.61C95.6699 177.61 102.058 171.222 102.058 163.342Z" fill="white"/>
<path d="M69.9535 354.258C69.9535 344.407 77.9389 336.422 87.7895 336.422C97.64 336.422 105.625 344.407 105.625 354.258C105.625 364.108 97.64 372.094 87.7895 372.094C77.9389 372.094 69.9535 364.108 69.9535 354.258ZM102.058 354.258C102.058 346.377 95.6699 339.989 87.7895 339.989C79.909 339.989 73.5207 346.377 73.5207 354.258C73.5207 362.138 79.909 368.526 87.7895 368.526C95.6699 368.526 102.058 362.138 102.058 354.258Z" fill="white"/>
<path d="M1789.89 404.127C1789.89 413.978 1781.91 421.963 1772.06 421.963C1762.21 421.963 1754.22 413.978 1754.22 404.127C1754.22 394.277 1762.21 386.291 1772.06 386.291C1781.91 386.291 1789.89 394.277 1789.89 404.127ZM1757.79 404.127C1757.79 412.008 1764.18 418.396 1772.06 418.396C1779.94 418.396 1786.33 412.008 1786.33 404.127C1786.33 396.247 1779.94 389.858 1772.06 389.858C1764.18 389.858 1757.79 396.247 1757.79 404.127Z" fill="white"/>
</mask>
<g mask="url(#mask0_56_1913)">
<rect x="1882" y="1063" width="1922" height="949" transform="rotate(180 1882 1063)" fill="url(#paint0_linear_56_1913)"/>
</g>
<defs>
<linearGradient id="paint0_linear_56_1913" x1="2843" y1="1063" x2="2843" y2="2012" gradientUnits="userSpaceOnUse">
<stop stop-color="white"/>
<stop offset="1" stop-color="#D9D9D9" stop-opacity="0"/>
<stop offset="1" stop-color="white" stop-opacity="0"/>
</linearGradient>
</defs>
</svg>
